<?xml version="1.0" encoding="UTF-8"?>
<svg xmlns="http://www.w3.org/2000/svg" width="720" height="540" viewBox="0 0 720 540">
<rect width="100%" height="100%" fill="black"/>
<polyline fill="none" stroke="#ff0000" stroke-width="1" points="640,311 640,310 "/>
<polyline fill="none" stroke="#ff0000" stroke-width="1" points="617,311 617,310 617,311 "/>
<polyline fill="none" stroke="#ff0000" stroke-width="1" points="570,311 570,310 570,311 "/>
<polyline fill="none" stroke="#ff0000" stroke-width="1" points="593,311 593,310 593,311 "/>
<polyline fill="none" stroke="#ff0000" stroke-width="1" points="547,311 547,310 547,311 "/>
<polyline fill="none" stroke="#ff0000" stroke-width="1" points="500,311 500,310 500,311 "/>
<polyline fill="none" stroke="#ff0000" stroke-width="1" points="523,311 523,310 523,311 "/>
<polyline fill="none" stroke="#ff0000" stroke-width="1" points="477,311 477,310 477,311 "/>
<polyline fill="none" stroke="#ff0000" stroke-width="1" points="430,311 430,310 430,311 "/>
<polyline fill="none" stroke="#ff0000" stroke-width="1" points="453,311 453,310 453,311 "/>
<polyline fill="none" stroke="#ff0000" stroke-width="1" points="407,311 407,310 407,311 "/>
<polyline fill="none" stroke="#ff0000" stroke-width="1" points="360,311 360,310 360,311 "/>
<polyline fill="none" stroke="#ff0000" stroke-width="1" points="383,311 383,310 383,311 "/>
<polyline fill="none" stroke="#ff0000" stroke-width="1" points="337,311 337,310 337,311 "/>
<polyline fill="none" stroke="#ff0000" stroke-width="1" points="290,311 290,310 290,311 "/>
<polyline fill="none" stroke="#ff0000" stroke-width="1" points="313,311 313,310 313,311 "/>
<polyline fill="none" stroke="#ff0000" stroke-width="1" points="267,311 267,310 267,311 "/>
<polyline fill="none" stroke="#ff0000" stroke-width="1" points="220,311 220,310 220,311 "/>
<polyline fill="none" stroke="#ff0000" stroke-width="1" points="243,311 243,310 243,311 "/>
<polyline fill="none" stroke="#ff0000" stroke-width="1" points="197,311 197,310 197,311 "/>
<polyline fill="none" stroke="#ff0000" stroke-width="1" points="150,311 150,310 150,311 "/>
<polyline fill="none" stroke="#ff0000" stroke-width="1" points="173,311 173,310 173,311 "/>
<polyline fill="none" stroke="#ff0000" stroke-width="1" points="127,311 127,310 127,311 "/>
<polyline fill="none" stroke="#ff0000" stroke-width="1" points="80,311 80,310 80,311 "/>
<polyline fill="none" stroke="#ff0000" stroke-width="1" points="103,311 103,310 103,311 "/>
<polyline fill="none" stroke="#ff0000" stroke-width="1" points="72,305 74,305 "/>
<polyline fill="none" stroke="#ff0000" stroke-width="1" points="72,310 73,310 72,310 "/>
<polyline fill="none" stroke="#ff0000" stroke-width="1" points="72,307 73,307 72,307 "/>
<polyline fill="none" stroke="#ff0000" stroke-width="1" points="72,303 73,303 72,303 "/>
<polyline fill="none" stroke="#ff0000" stroke-width="1" points="72,300 73,300 72,300 "/>
<polyline fill="none" stroke="#ff0000" stroke-width="1" points="72,293 74,293 72,293 "/>
<polyline fill="none" stroke="#ff0000" stroke-width="1" points="72,298 73,298 72,298 "/>
<polyline fill="none" stroke="#ff0000" stroke-width="1" points="72,296 73,296 72,296 "/>
<polyline fill="none" stroke="#ff0000" stroke-width="1" points="72,291 73,291 72,291 "/>
<polyline fill="none" stroke="#ff0000" stroke-width="1" points="72,289 73,289 72,289 "/>
<polyline fill="none" stroke="#ff0000" stroke-width="1" points="72,282 74,282 72,282 "/>
<polyline fill="none" stroke="#ff0000" stroke-width="1" points="72,286 73,286 72,286 "/>
<polyline fill="none" stroke="#ff0000" stroke-width="1" points="72,284 73,284 72,284 "/>
<polyline fill="none" stroke="#ff0000" stroke-width="1" points="72,279 73,279 72,279 "/>
<polyline fill="none" stroke="#ff0000" stroke-width="1" points="72,277 73,277 72,277 "/>
<polyline fill="none" stroke="#ff0000" stroke-width="1" points="72,270 74,270 72,270 "/>
<polyline fill="none" stroke="#ff0000" stroke-width="1" points="72,275 73,275 72,275 "/>
<polyline fill="none" stroke="#ff0000" stroke-width="1" points="72,272 73,272 72,272 "/>
<polyline fill="none" stroke="#ff0000" stroke-width="1" points="72,268 73,268 72,268 "/>
<polyline fill="none" stroke="#ff0000" stroke-width="1" points="72,265 73,265 72,265 "/>
<polyline fill="none" stroke="#ff0000" stroke-width="1" points="72,258 74,258 72,258 "/>
<polyline fill="none" stroke="#ff0000" stroke-width="1" points="72,263 73,263 72,263 "/>
<polyline fill="none" stroke="#ff0000" stroke-width="1" points="72,261 73,261 72,261 "/>
<polyline fill="none" stroke="#ff0000" stroke-width="1" points="72,256 73,256 72,256 "/>
<polyline fill="none" stroke="#ff0000" stroke-width="1" points="72,254 73,254 72,254 "/>
<polyline fill="none" stroke="#ff0000" stroke-width="1" points="72,247 74,247 72,247 "/>
<polyline fill="none" stroke="#ff0000" stroke-width="1" points="72,251 73,251 72,251 "/>
<polyline fill="none" stroke="#ff0000" stroke-width="1" points="72,249 73,249 72,249 "/>
<polyline fill="none" stroke="#ff0000" stroke-width="1" points="72,244 73,244 72,244 "/>
<polyline fill="none" stroke="#ff0000" stroke-width="1" points="72,242 73,242 72,242 "/>
<polyline fill="none" stroke="#ff0000" stroke-width="1" points="72,235 74,235 72,235 "/>
<polyline fill="none" stroke="#ff0000" stroke-width="1" points="72,240 73,240 72,240 "/>
<polyline fill="none" stroke="#ff0000" stroke-width="1" points="72,237 73,237 72,237 "/>
<polyline fill="none" stroke="#ff0000" stroke-width="1" points="72,233 73,233 72,233 "/>
<polyline fill="none" stroke="#ff0000" stroke-width="1" points="72,230 73,230 72,230 "/>
<polyline fill="none" stroke="#ff0000" stroke-width="1" points="640,229 640,230 "/>
<polyline fill="none" stroke="#ff0000" stroke-width="1" points="617,229 617,230 617,229 "/>
<polyline fill="none" stroke="#ff0000" stroke-width="1" points="570,229 570,230 570,229 "/>
<polyline fill="none" stroke="#ff0000" stroke-width="1" points="593,229 593,230 593,229 "/>
<polyline fill="none" stroke="#ff0000" stroke-width="1" points="547,229 547,230 547,229 "/>
<polyline fill="none" stroke="#ff0000" stroke-width="1" points="500,229 500,230 500,229 "/>
<polyline fill="none" stroke="#ff0000" stroke-width="1" points="523,229 523,230 523,229 "/>
<polyline fill="none" stroke="#ff0000" stroke-width="1" points="477,229 477,230 477,229 "/>
<polyline fill="none" stroke="#ff0000" stroke-width="1" points="430,229 430,230 430,229 "/>
<polyline fill="none" stroke="#ff0000" stroke-width="1" points="453,229 453,230 453,229 "/>
<polyline fill="none" stroke="#ff0000" stroke-width="1" points="407,229 407,230 407,229 "/>
<polyline fill="none" stroke="#ff0000" stroke-width="1" points="360,229 360,230 360,229 "/>
<polyline fill="none" stroke="#ff0000" stroke-width="1" points="383,229 383,230 383,229 "/>
<polyline fill="none" stroke="#ff0000" stroke-width="1" points="337,229 337,230 337,229 "/>
<polyline fill="none" stroke="#ff0000" stroke-width="1" points="290,229 290,230 290,229 "/>
<polyline fill="none" stroke="#ff0000" stroke-width="1" points="313,229 313,230 313,229 "/>
<polyline fill="none" stroke="#ff0000" stroke-width="1" points="267,229 267,230 267,229 "/>
<polyline fill="none" stroke="#ff0000" stroke-width="1" points="220,229 220,230 220,229 "/>
<polyline fill="none" stroke="#ff0000" stroke-width="1" points="243,229 243,230 243,229 "/>
<polyline fill="none" stroke="#ff0000" stroke-width="1" points="197,229 197,230 197,229 "/>
<polyline fill="none" stroke="#ff0000" stroke-width="1" points="150,229 150,230 150,229 "/>
<polyline fill="none" stroke="#ff0000" stroke-width="1" points="173,229 173,230 173,229 "/>
<polyline fill="none" stroke="#ff0000" stroke-width="1" points="127,229 127,230 127,229 "/>
<polyline fill="none" stroke="#ff0000" stroke-width="1" points="80,229 80,230 80,229 "/>
<polyline fill="none" stroke="#ff0000" stroke-width="1" points="103,229 103,230 103,229 "/>
<polyline fill="none" stroke="#ff0000" stroke-width="1" points="648,305 646,305 "/>
<polyline fill="none" stroke="#ff0000" stroke-width="1" points="648,310 647,310 648,310 "/>
<polyline fill="none" stroke="#ff0000" stroke-width="1" points="648,307 647,307 648,307 "/>
<polyline fill="none" stroke="#ff0000" stroke-width="1" points="648,303 647,303 648,303 "/>
<polyline fill="none" stroke="#ff0000" stroke-width="1" points="648,300 647,300 648,300 "/>
<polyline fill="none" stroke="#ff0000" stroke-width="1" points="648,293 646,293 648,293 "/>
<polyline fill="none" stroke="#ff0000" stroke-width="1" points="648,298 647,298 648,298 "/>
<polyline fill="none" stroke="#ff0000" stroke-width="1" points="648,296 647,296 648,296 "/>
<polyline fill="none" stroke="#ff0000" stroke-width="1" points="648,291 647,291 648,291 "/>
<polyline fill="none" stroke="#ff0000" stroke-width="1" points="648,289 647,289 648,289 "/>
<polyline fill="none" stroke="#ff0000" stroke-width="1" points="648,282 646,282 648,282 "/>
<polyline fill="none" stroke="#ff0000" stroke-width="1" points="648,286 647,286 648,286 "/>
<polyline fill="none" stroke="#ff0000" stroke-width="1" points="648,284 647,284 648,284 "/>
<polyline fill="none" stroke="#ff0000" stroke-width="1" points="648,279 647,279 648,279 "/>
<polyline fill="none" stroke="#ff0000" stroke-width="1" points="648,277 647,277 648,277 "/>
<polyline fill="none" stroke="#ff0000" stroke-width="1" points="648,270 646,270 648,270 "/>
<polyline fill="none" stroke="#ff0000" stroke-width="1" points="648,275 647,275 648,275 "/>
<polyline fill="none" stroke="#ff0000" stroke-width="1" points="648,272 647,272 648,272 "/>
<polyline fill="none" stroke="#ff0000" stroke-width="1" points="648,268 647,268 648,268 "/>
<polyline fill="none" stroke="#ff0000" stroke-width="1" points="648,265 647,265 648,265 "/>
<polyline fill="none" stroke="#ff0000" stroke-width="1" points="648,258 646,258 648,258 "/>
<polyline fill="none" stroke="#ff0000" stroke-width="1" points="648,263 647,263 648,263 "/>
<polyline fill="none" stroke="#ff0000" stroke-width="1" points="648,261 647,261 648,261 "/>
<polyline fill="none" stroke="#ff0000" stroke-width="1" points="648,256 647,256 648,256 "/>
<polyline fill="none" stroke="#ff0000" stroke-width="1" points="648,254 647,254 648,254 "/>
<polyline fill="none" stroke="#ff0000" stroke-width="1" points="648,247 646,247 648,247 "/>
<polyline fill="none" stroke="#ff0000" stroke-width="1" points="648,251 647,251 648,251 "/>
<polyline fill="none" stroke="#ff0000" stroke-width="1" points="648,249 647,249 648,249 "/>
<polyline fill="none" stroke="#ff0000" stroke-width="1" points="648,244 647,244 648,244 "/>
<polyline fill="none" stroke="#ff0000" stroke-width="1" points="648,242 647,242 648,242 "/>
<polyline fill="none" stroke="#ff0000" stroke-width="1" points="648,235 646,235 648,235 "/>
<polyline fill="none" stroke="#ff0000" stroke-width="1" points="648,240 647,240 648,240 "/>
<polyline fill="none" stroke="#ff0000" stroke-width="1" points="648,237 647,237 648,237 "/>
<polyline fill="none" stroke="#ff0000" stroke-width="1" points="648,233 647,233 648,233 "/>
<polyline fill="none" stroke="#ff0000" stroke-width="1" points="648,230 647,230 648,230 "/>
<polyline fill="none" stroke="#ff0000" stroke-width="1" points="72,311 113,311 154,311 195,311 237,311 278,311 319,311 360,311 401,311 442,311 483,311 525,311 566,311 607,311 648,311 648,305 648,299 648,293 648,288 648,282 648,276 648,270 648,264 648,258 648,252 648,247 648,241 648,235 648,229 607,229 566,229 525,229 483,229 442,229 401,229 360,229 319,229 278,229 237,229 195,229 154,229 113,229 72,229 72,235 72,241 72,247 72,252 72,258 72,264 72,270 72,276 72,282 72,288 72,293 72,299 72,305 72,311 "/>
<text x="80" y="315" font-family="sans-serif" font-size="14" fill="#ff0000" text-anchor="middle" dominant-baseline="hanging">180</text>
<text x="150" y="315" font-family="sans-serif" font-size="14" fill="#ff0000" text-anchor="middle" dominant-baseline="hanging">135</text>
<text x="220" y="315" font-family="sans-serif" font-size="14" fill="#ff0000" text-anchor="middle" dominant-baseline="hanging">90</text>
<text x="290" y="315" font-family="sans-serif" font-size="14" fill="#ff0000" text-anchor="middle" dominant-baseline="hanging">45</text>
<text x="360" y="315" font-family="sans-serif" font-size="14" fill="#ff0000" text-anchor="middle" dominant-baseline="hanging">0</text>
<text x="430" y="315" font-family="sans-serif" font-size="14" fill="#ff0000" text-anchor="middle" dominant-baseline="hanging">315</text>
<text x="500" y="315" font-family="sans-serif" font-size="14" fill="#ff0000" text-anchor="middle" dominant-baseline="hanging">270</text>
<text x="570" y="315" font-family="sans-serif" font-size="14" fill="#ff0000" text-anchor="middle" dominant-baseline="hanging">225</text>
<text x="640" y="315" font-family="sans-serif" font-size="14" fill="#ff0000" text-anchor="middle" dominant-baseline="hanging">180</text>
<text x="67" y="293" font-family="sans-serif" font-size="14" fill="#ff0000" text-anchor="end" dominant-baseline="central">-20</text>
<text x="67" y="270" font-family="sans-serif" font-size="14" fill="#ff0000" text-anchor="end" dominant-baseline="central">0</text>
<text x="67" y="247" font-family="sans-serif" font-size="14" fill="#ff0000" text-anchor="end" dominant-baseline="central">20</text>
<text x="360" y="329" font-family="sans-serif" font-size="14" fill="#ff0000" text-anchor="middle" dominant-baseline="hanging">Galactic longitude</text>
<text x="34" y="270" font-family="sans-serif" font-size="14" fill="#ff0000" text-anchor="middle" dominant-baseline="alphabetic" transform="rotate(90,34,270)">Galactic latitude</text>
<text x="360" y="223" font-family="sans-serif" font-size="14" fill="#ff0000" text-anchor="middle" dominant-baseline="alphabetic">A FITS test</text>
</svg>
