<?xml version="1.0" encoding="UTF-8"?>
<svg xmlns="http://www.w3.org/2000/svg" width="720" height="540" viewBox="0 0 720 540">
<rect width="100%" height="100%" fill="black"/>
<polyline fill="none" stroke="#ff0000" stroke-width="1" points="640,270 640,269 "/>
<polyline fill="none" stroke="#ff0000" stroke-width="1" points="617,270 617,269 617,270 "/>
<polyline fill="none" stroke="#ff0000" stroke-width="1" points="593,270 593,269 593,270 "/>
<polyline fill="none" stroke="#ff0000" stroke-width="1" points="570,270 570,269 570,270 "/>
<polyline fill="none" stroke="#ff0000" stroke-width="1" points="547,270 547,269 547,270 "/>
<polyline fill="none" stroke="#ff0000" stroke-width="1" points="523,270 523,269 523,270 "/>
<polyline fill="none" stroke="#ff0000" stroke-width="1" points="500,270 500,269 500,270 "/>
<polyline fill="none" stroke="#ff0000" stroke-width="1" points="477,270 477,269 477,270 "/>
<polyline fill="none" stroke="#ff0000" stroke-width="1" points="453,270 453,269 453,270 "/>
<polyline fill="none" stroke="#ff0000" stroke-width="1" points="430,270 430,269 430,270 "/>
<polyline fill="none" stroke="#ff0000" stroke-width="1" points="407,270 407,269 407,270 "/>
<polyline fill="none" stroke="#ff0000" stroke-width="1" points="383,270 383,269 383,270 "/>
<polyline fill="none" stroke="#ff0000" stroke-width="1" points="360,270 360,269 360,270 "/>
<polyline fill="none" stroke="#ff0000" stroke-width="1" points="337,270 337,269 337,270 "/>
<polyline fill="none" stroke="#ff0000" stroke-width="1" points="313,270 313,269 313,270 "/>
<polyline fill="none" stroke="#ff0000" stroke-width="1" points="290,270 290,269 290,270 "/>
<polyline fill="none" stroke="#ff0000" stroke-width="1" points="267,270 267,269 267,270 "/>
<polyline fill="none" stroke="#ff0000" stroke-width="1" points="243,270 243,269 243,270 "/>
<polyline fill="none" stroke="#ff0000" stroke-width="1" points="220,270 220,269 220,270 "/>
<polyline fill="none" stroke="#ff0000" stroke-width="1" points="197,270 197,269 197,270 "/>
<polyline fill="none" stroke="#ff0000" stroke-width="1" points="173,270 173,269 173,270 "/>
<polyline fill="none" stroke="#ff0000" stroke-width="1" points="150,270 150,269 150,270 "/>
<polyline fill="none" stroke="#ff0000" stroke-width="1" points="127,270 127,269 127,270 "/>
<polyline fill="none" stroke="#ff0000" stroke-width="1" points="103,270 103,269 103,270 "/>
<polyline fill="none" stroke="#ff0000" stroke-width="1" points="80,270 80,269 80,270 "/>
<polyline fill="none" stroke="#ff0000" stroke-width="1" points="360,310 361,310 "/>
<polyline fill="none" stroke="#ff0000" stroke-width="1" points="360,307 361,307 360,307 "/>
<polyline fill="none" stroke="#ff0000" stroke-width="1" points="360,305 362,305 360,305 "/>
<polyline fill="none" stroke="#ff0000" stroke-width="1" points="360,303 361,303 360,303 "/>
<polyline fill="none" stroke="#ff0000" stroke-width="1" points="360,300 361,300 360,300 "/>
<polyline fill="none" stroke="#ff0000" stroke-width="1" points="360,298 361,298 360,298 "/>
<polyline fill="none" stroke="#ff0000" stroke-width="1" points="360,296 361,296 360,296 "/>
<polyline fill="none" stroke="#ff0000" stroke-width="1" points="360,293 362,293 360,293 "/>
<polyline fill="none" stroke="#ff0000" stroke-width="1" points="360,291 361,291 360,291 "/>
<polyline fill="none" stroke="#ff0000" stroke-width="1" points="360,289 361,289 360,289 "/>
<polyline fill="none" stroke="#ff0000" stroke-width="1" points="360,286 361,286 360,286 "/>
<polyline fill="none" stroke="#ff0000" stroke-width="1" points="360,284 361,284 360,284 "/>
<polyline fill="none" stroke="#ff0000" stroke-width="1" points="360,282 362,282 360,282 "/>
<polyline fill="none" stroke="#ff0000" stroke-width="1" points="360,279 361,279 360,279 "/>
<polyline fill="none" stroke="#ff0000" stroke-width="1" points="360,277 361,277 360,277 "/>
<polyline fill="none" stroke="#ff0000" stroke-width="1" points="360,275 361,275 360,275 "/>
<polyline fill="none" stroke="#ff0000" stroke-width="1" points="360,272 361,272 360,272 "/>
<polyline fill="none" stroke="#ff0000" stroke-width="1" points="360,270 362,270 360,270 "/>
<polyline fill="none" stroke="#ff0000" stroke-width="1" points="360,268 361,268 360,268 "/>
<polyline fill="none" stroke="#ff0000" stroke-width="1" points="360,265 361,265 360,265 "/>
<polyline fill="none" stroke="#ff0000" stroke-width="1" points="360,263 361,263 360,263 "/>
<polyline fill="none" stroke="#ff0000" stroke-width="1" points="360,261 361,261 360,261 "/>
<polyline fill="none" stroke="#ff0000" stroke-width="1" points="360,258 362,258 360,258 "/>
<polyline fill="none" stroke="#ff0000" stroke-width="1" points="360,256 361,256 360,256 "/>
<polyline fill="none" stroke="#ff0000" stroke-width="1" points="360,254 361,254 360,254 "/>
<polyline fill="none" stroke="#ff0000" stroke-width="1" points="360,251 361,251 360,251 "/>
<polyline fill="none" stroke="#ff0000" stroke-width="1" points="360,249 361,249 360,249 "/>
<polyline fill="none" stroke="#ff0000" stroke-width="1" points="360,247 362,247 360,247 "/>
<polyline fill="none" stroke="#ff0000" stroke-width="1" points="360,244 361,244 360,244 "/>
<polyline fill="none" stroke="#ff0000" stroke-width="1" points="360,242 361,242 360,242 "/>
<polyline fill="none" stroke="#ff0000" stroke-width="1" points="360,240 361,240 360,240 "/>
<polyline fill="none" stroke="#ff0000" stroke-width="1" points="360,237 361,237 360,237 "/>
<polyline fill="none" stroke="#ff0000" stroke-width="1" points="360,235 362,235 360,235 "/>
<polyline fill="none" stroke="#ff0000" stroke-width="1" points="360,233 361,233 360,233 "/>
<polyline fill="none" stroke="#ff0000" stroke-width="1" points="360,230 361,230 360,230 "/>
<polyline fill="none" stroke="#ff0000" stroke-width="1" points="648,270 645,270 640,270 "/>
<polyline fill="none" stroke="#ff0000" stroke-width="1" points="640,270 635,270 630,270 625,270 620,270 615,270 610,270 605,270 600,270 595,270 590,270 585,270 580,270 575,270 570,270 "/>
<polyline fill="none" stroke="#ff0000" stroke-width="1" points="570,270 565,270 560,270 555,270 550,270 545,270 540,270 535,270 530,270 525,270 520,270 515,270 510,270 505,270 500,270 "/>
<polyline fill="none" stroke="#ff0000" stroke-width="1" points="500,270 495,270 490,270 485,270 480,270 475,270 470,270 465,270 460,270 455,270 450,270 445,270 440,270 435,270 430,270 "/>
<polyline fill="none" stroke="#ff0000" stroke-width="1" points="430,270 425,270 420,270 415,270 410,270 405,270 400,270 395,270 390,270 385,270 380,270 375,270 370,270 365,270 360,270 "/>
<polyline fill="none" stroke="#ff0000" stroke-width="1" points="360,270 355,270 350,270 345,270 340,270 335,270 330,270 325,270 320,270 315,270 310,270 305,270 300,270 295,270 290,270 "/>
<polyline fill="none" stroke="#ff0000" stroke-width="1" points="290,270 285,270 280,270 275,270 270,270 265,270 260,270 255,270 250,270 245,270 240,270 235,270 230,270 225,270 220,270 "/>
<polyline fill="none" stroke="#ff0000" stroke-width="1" points="220,270 215,270 210,270 205,270 200,270 195,270 190,270 185,270 180,270 175,270 170,270 165,270 160,270 155,270 150,270 "/>
<polyline fill="none" stroke="#ff0000" stroke-width="1" points="150,270 145,270 140,270 135,270 130,270 125,270 120,270 115,270 110,270 105,270 100,270 95,270 90,270 85,270 80,270 "/>
<polyline fill="none" stroke="#ff0000" stroke-width="1" points="80,270 75,270 72,270 "/>
<polyline fill="none" stroke="#ff0000" stroke-width="1" points="360,311 360,311 360,310 360,309 360,308 360,308 360,307 360,306 360,305 "/>
<polyline fill="none" stroke="#ff0000" stroke-width="1" points="360,305 360,304 360,303 360,303 360,302 360,301 360,300 360,299 360,298 360,298 360,297 360,296 360,295 360,294 360,293 "/>
<polyline fill="none" stroke="#ff0000" stroke-width="1" points="360,293 360,293 360,292 360,291 360,290 360,289 360,288 360,288 360,287 360,286 360,285 360,284 360,283 360,283 360,282 "/>
<polyline fill="none" stroke="#ff0000" stroke-width="1" points="360,282 360,281 360,280 360,279 360,278 360,278 360,277 360,276 360,275 360,274 360,273 360,273 360,272 360,271 360,270 "/>
<polyline fill="none" stroke="#ff0000" stroke-width="1" points="360,270 360,269 360,268 360,267 360,267 360,266 360,265 360,264 360,263 360,262 360,262 360,261 360,260 360,259 360,258 "/>
<polyline fill="none" stroke="#ff0000" stroke-width="1" points="360,258 360,257 360,257 360,256 360,255 360,254 360,253 360,252 360,252 360,251 360,250 360,249 360,248 360,247 360,247 "/>
<polyline fill="none" stroke="#ff0000" stroke-width="1" points="360,247 360,246 360,245 360,244 360,243 360,242 360,242 360,241 360,240 360,239 360,238 360,237 360,237 360,236 360,235 "/>
<polyline fill="none" stroke="#ff0000" stroke-width="1" points="360,235 360,234 360,233 360,232 360,232 360,231 360,230 360,229 360,229 "/>
<text x="640" y="271" font-family="sans-serif" font-size="14" fill="#ff0000" text-anchor="middle" dominant-baseline="hanging">180</text>
<text x="570" y="271" font-family="sans-serif" font-size="14" fill="#ff0000" text-anchor="middle" dominant-baseline="hanging">225</text>
<text x="500" y="271" font-family="sans-serif" font-size="14" fill="#ff0000" text-anchor="middle" dominant-baseline="hanging">270</text>
<text x="430" y="271" font-family="sans-serif" font-size="14" fill="#ff0000" text-anchor="middle" dominant-baseline="hanging">315</text>
<text x="360" y="271" font-family="sans-serif" font-size="14" fill="#ff0000" text-anchor="middle" dominant-baseline="hanging">0</text>
<text x="290" y="271" font-family="sans-serif" font-size="14" fill="#ff0000" text-anchor="middle" dominant-baseline="hanging">45</text>
<text x="220" y="271" font-family="sans-serif" font-size="14" fill="#ff0000" text-anchor="middle" dominant-baseline="hanging">90</text>
<text x="150" y="271" font-family="sans-serif" font-size="14" fill="#ff0000" text-anchor="middle" dominant-baseline="hanging">135</text>
<text x="80" y="271" font-family="sans-serif" font-size="14" fill="#ff0000" text-anchor="middle" dominant-baseline="hanging">180</text>
<text x="355" y="305" font-family="sans-serif" font-size="14" fill="#ff0000" text-anchor="middle" dominant-baseline="alphabetic" transform="rotate(90,355,305)">-30</text>
<text x="355" y="258" font-family="sans-serif" font-size="14" fill="#ff0000" text-anchor="middle" dominant-baseline="alphabetic" transform="rotate(90,355,258)">10</text>
<text x="355" y="235" font-family="sans-serif" font-size="14" fill="#ff0000" text-anchor="middle" dominant-baseline="alphabetic" transform="rotate(90,355,235)">30</text>
<text x="360" y="221" font-family="sans-serif" font-size="14" fill="#ff0000" text-anchor="middle" dominant-baseline="alphabetic">A FITS test</text>
</svg>
