<?xml version="1.0" encoding="UTF-8"?>
<svg xmlns="http://www.w3.org/2000/svg" width="720" height="540" viewBox="0 0 720 540">
<rect width="100%" height="100%" fill="black"/>
<polyline fill="none" stroke="#ff0000" stroke-width="1" points="472,486 472,455 472,405 472,355 472,305 472,255 472,205 472,155 472,105 472,55 472,54 "/>
<polyline fill="none" stroke="#ff0000" stroke-width="1" points="435,486 435,455 435,405 435,355 435,305 435,255 435,205 435,155 435,105 435,55 435,54 "/>
<polyline fill="none" stroke="#ff0000" stroke-width="1" points="397,486 397,455 397,405 397,355 397,305 397,255 397,205 397,155 397,105 397,55 397,54 "/>
<polyline fill="none" stroke="#ff0000" stroke-width="1" points="360,486 360,455 360,405 360,355 360,305 360,255 360,205 360,155 360,105 360,55 360,54 "/>
<polyline fill="none" stroke="#ff0000" stroke-width="1" points="323,486 323,455 323,405 323,355 323,305 323,255 323,205 323,155 323,105 323,55 323,54 "/>
<polyline fill="none" stroke="#ff0000" stroke-width="1" points="285,486 285,455 285,405 285,355 285,305 285,255 285,205 285,155 285,105 285,55 285,54 "/>
<polyline fill="none" stroke="#ff0000" stroke-width="1" points="248,486 248,455 248,405 248,355 248,305 248,255 248,205 248,155 248,105 248,55 248,54 "/>
<polyline fill="none" stroke="#ff0000" stroke-width="1" points="508,445 496,445 467,445 438,445 408,445 379,445 349,445 320,445 291,445 261,445 232,445 212,445 "/>
<polyline fill="none" stroke="#ff0000" stroke-width="1" points="508,375 496,375 467,375 438,375 408,375 379,375 349,375 320,375 291,375 261,375 232,375 212,375 "/>
<polyline fill="none" stroke="#ff0000" stroke-width="1" points="508,305 496,305 467,305 438,305 408,305 379,305 349,305 320,305 291,305 261,305 232,305 212,305 "/>
<polyline fill="none" stroke="#ff0000" stroke-width="1" points="508,235 496,235 467,235 438,235 408,235 379,235 349,235 320,235 291,235 261,235 232,235 212,235 "/>
<polyline fill="none" stroke="#ff0000" stroke-width="1" points="508,165 496,165 467,165 438,165 408,165 379,165 349,165 320,165 291,165 261,165 232,165 212,165 "/>
<polyline fill="none" stroke="#ff0000" stroke-width="1" points="508,95 496,95 467,95 438,95 408,95 379,95 349,95 320,95 291,95 261,95 232,95 212,95 "/>
<polyline fill="none" stroke="#ff0000" stroke-width="1" points="500,486 500,484 "/>
<polyline fill="none" stroke="#ff0000" stroke-width="1" points="491,486 491,484 491,486 "/>
<polyline fill="none" stroke="#ff0000" stroke-width="1" points="482,486 482,484 482,486 "/>
<polyline fill="none" stroke="#ff0000" stroke-width="1" points="463,486 463,484 463,486 "/>
<polyline fill="none" stroke="#ff0000" stroke-width="1" points="454,486 454,484 454,486 "/>
<polyline fill="none" stroke="#ff0000" stroke-width="1" points="444,486 444,484 444,486 "/>
<polyline fill="none" stroke="#ff0000" stroke-width="1" points="426,486 426,484 426,486 "/>
<polyline fill="none" stroke="#ff0000" stroke-width="1" points="416,486 416,484 416,486 "/>
<polyline fill="none" stroke="#ff0000" stroke-width="1" points="407,486 407,484 407,486 "/>
<polyline fill="none" stroke="#ff0000" stroke-width="1" points="388,486 388,484 388,486 "/>
<polyline fill="none" stroke="#ff0000" stroke-width="1" points="379,486 379,484 379,486 "/>
<polyline fill="none" stroke="#ff0000" stroke-width="1" points="369,486 369,484 369,486 "/>
<polyline fill="none" stroke="#ff0000" stroke-width="1" points="351,486 351,484 351,486 "/>
<polyline fill="none" stroke="#ff0000" stroke-width="1" points="341,486 341,484 341,486 "/>
<polyline fill="none" stroke="#ff0000" stroke-width="1" points="332,486 332,484 332,486 "/>
<polyline fill="none" stroke="#ff0000" stroke-width="1" points="313,486 313,484 313,486 "/>
<polyline fill="none" stroke="#ff0000" stroke-width="1" points="304,486 304,484 304,486 "/>
<polyline fill="none" stroke="#ff0000" stroke-width="1" points="295,486 295,484 295,486 "/>
<polyline fill="none" stroke="#ff0000" stroke-width="1" points="276,486 276,484 276,486 "/>
<polyline fill="none" stroke="#ff0000" stroke-width="1" points="267,486 267,484 267,486 "/>
<polyline fill="none" stroke="#ff0000" stroke-width="1" points="257,486 257,484 257,486 "/>
<polyline fill="none" stroke="#ff0000" stroke-width="1" points="239,486 239,484 239,486 "/>
<polyline fill="none" stroke="#ff0000" stroke-width="1" points="229,486 229,484 229,486 "/>
<polyline fill="none" stroke="#ff0000" stroke-width="1" points="220,486 220,484 220,486 "/>
<polyline fill="none" stroke="#ff0000" stroke-width="1" points="212,473 214,473 "/>
<polyline fill="none" stroke="#ff0000" stroke-width="1" points="212,459 214,459 212,459 "/>
<polyline fill="none" stroke="#ff0000" stroke-width="1" points="212,431 214,431 212,431 "/>
<polyline fill="none" stroke="#ff0000" stroke-width="1" points="212,417 214,417 212,417 "/>
<polyline fill="none" stroke="#ff0000" stroke-width="1" points="212,403 214,403 212,403 "/>
<polyline fill="none" stroke="#ff0000" stroke-width="1" points="212,389 214,389 212,389 "/>
<polyline fill="none" stroke="#ff0000" stroke-width="1" points="212,361 214,361 212,361 "/>
<polyline fill="none" stroke="#ff0000" stroke-width="1" points="212,347 214,347 212,347 "/>
<polyline fill="none" stroke="#ff0000" stroke-width="1" points="212,333 214,333 212,333 "/>
<polyline fill="none" stroke="#ff0000" stroke-width="1" points="212,319 214,319 212,319 "/>
<polyline fill="none" stroke="#ff0000" stroke-width="1" points="212,291 214,291 212,291 "/>
<polyline fill="none" stroke="#ff0000" stroke-width="1" points="212,277 214,277 212,277 "/>
<polyline fill="none" stroke="#ff0000" stroke-width="1" points="212,263 214,263 212,263 "/>
<polyline fill="none" stroke="#ff0000" stroke-width="1" points="212,249 214,249 212,249 "/>
<polyline fill="none" stroke="#ff0000" stroke-width="1" points="212,221 214,221 212,221 "/>
<polyline fill="none" stroke="#ff0000" stroke-width="1" points="212,207 214,207 212,207 "/>
<polyline fill="none" stroke="#ff0000" stroke-width="1" points="212,193 214,193 212,193 "/>
<polyline fill="none" stroke="#ff0000" stroke-width="1" points="212,179 214,179 212,179 "/>
<polyline fill="none" stroke="#ff0000" stroke-width="1" points="212,151 214,151 212,151 "/>
<polyline fill="none" stroke="#ff0000" stroke-width="1" points="212,137 214,137 212,137 "/>
<polyline fill="none" stroke="#ff0000" stroke-width="1" points="212,123 214,123 212,123 "/>
<polyline fill="none" stroke="#ff0000" stroke-width="1" points="212,109 214,109 212,109 "/>
<polyline fill="none" stroke="#ff0000" stroke-width="1" points="212,81 214,81 212,81 "/>
<polyline fill="none" stroke="#ff0000" stroke-width="1" points="212,67 214,67 212,67 "/>
<polyline fill="none" stroke="#ff0000" stroke-width="1" points="212,486 233,486 254,486 275,486 297,486 318,486 339,486 360,486 381,486 402,486 423,486 445,486 466,486 487,486 508,486 508,455 508,424 508,393 508,363 508,332 508,301 508,270 508,239 508,208 508,177 508,147 508,116 508,85 508,54 487,54 466,54 445,54 423,54 402,54 381,54 360,54 339,54 318,54 297,54 275,54 254,54 233,54 212,54 212,85 212,116 212,147 212,177 212,208 212,239 212,270 212,301 212,332 212,363 212,393 212,424 212,455 212,486 "/>
<text x="245" y="490" font-family="sans-serif" font-size="14" fill="#ff0000" text-anchor="middle" dominant-baseline="hanging">352</text>
<text x="263" y="488" font-family="sans-serif" font-size="8" fill="#ff0000" text-anchor="middle" dominant-baseline="hanging">o</text>
<text x="282" y="490" font-family="sans-serif" font-size="14" fill="#ff0000" text-anchor="middle" dominant-baseline="hanging">351</text>
<text x="300" y="488" font-family="sans-serif" font-size="8" fill="#ff0000" text-anchor="middle" dominant-baseline="hanging">o</text>
<text x="319" y="490" font-family="sans-serif" font-size="14" fill="#ff0000" text-anchor="middle" dominant-baseline="hanging">351</text>
<text x="337" y="488" font-family="sans-serif" font-size="8" fill="#ff0000" text-anchor="middle" dominant-baseline="hanging">o</text>
<text x="357" y="490" font-family="sans-serif" font-size="14" fill="#ff0000" text-anchor="middle" dominant-baseline="hanging">351</text>
<text x="375" y="488" font-family="sans-serif" font-size="8" fill="#ff0000" text-anchor="middle" dominant-baseline="hanging">o</text>
<text x="394" y="490" font-family="sans-serif" font-size="14" fill="#ff0000" text-anchor="middle" dominant-baseline="hanging">351</text>
<text x="412" y="488" font-family="sans-serif" font-size="8" fill="#ff0000" text-anchor="middle" dominant-baseline="hanging">o</text>
<text x="431" y="490" font-family="sans-serif" font-size="14" fill="#ff0000" text-anchor="middle" dominant-baseline="hanging">351</text>
<text x="449" y="488" font-family="sans-serif" font-size="8" fill="#ff0000" text-anchor="middle" dominant-baseline="hanging">o</text>
<text x="469" y="490" font-family="sans-serif" font-size="14" fill="#ff0000" text-anchor="middle" dominant-baseline="hanging">350</text>
<text x="487" y="488" font-family="sans-serif" font-size="8" fill="#ff0000" text-anchor="middle" dominant-baseline="hanging">o</text>
<text x="202" y="446" font-family="sans-serif" font-size="14" fill="#ff0000" text-anchor="end" dominant-baseline="central">-1</text>
<text x="209" y="442" font-family="sans-serif" font-size="8" fill="#ff0000" text-anchor="end" dominant-baseline="central">o</text>
<text x="202" y="376" font-family="sans-serif" font-size="14" fill="#ff0000" text-anchor="end" dominant-baseline="central">0</text>
<text x="209" y="372" font-family="sans-serif" font-size="8" fill="#ff0000" text-anchor="end" dominant-baseline="central">o</text>
<text x="202" y="306" font-family="sans-serif" font-size="14" fill="#ff0000" text-anchor="end" dominant-baseline="central">1</text>
<text x="209" y="302" font-family="sans-serif" font-size="8" fill="#ff0000" text-anchor="end" dominant-baseline="central">o</text>
<text x="202" y="236" font-family="sans-serif" font-size="14" fill="#ff0000" text-anchor="end" dominant-baseline="central">1</text>
<text x="209" y="232" font-family="sans-serif" font-size="8" fill="#ff0000" text-anchor="end" dominant-baseline="central">o</text>
<text x="202" y="166" font-family="sans-serif" font-size="14" fill="#ff0000" text-anchor="end" dominant-baseline="central">1</text>
<text x="209" y="162" font-family="sans-serif" font-size="8" fill="#ff0000" text-anchor="end" dominant-baseline="central">o</text>
<text x="202" y="96" font-family="sans-serif" font-size="14" fill="#ff0000" text-anchor="end" dominant-baseline="central">2</text>
<text x="209" y="92" font-family="sans-serif" font-size="8" fill="#ff0000" text-anchor="end" dominant-baseline="central">o</text>
<text x="360" y="505" font-family="sans-serif" font-size="14" fill="#ff0000" text-anchor="middle" dominant-baseline="hanging">Galactic longitude</text>
<text x="176" y="270" font-family="sans-serif" font-size="14" fill="#ff0000" text-anchor="middle" dominant-baseline="alphabetic" transform="rotate(90,176,270)">Galactic latitude</text>
<text x="360" y="41" font-family="sans-serif" font-size="14" fill="#ff0000" text-anchor="middle" dominant-baseline="alphabetic">A FITS test</text>
</svg>
