<?xml version="1.0" encoding="UTF-8"?>
<svg xmlns="http://www.w3.org/2000/svg" width="720" height="540" viewBox="0 0 720 540">
<rect width="100%" height="100%" fill="black"/>
<polyline fill="none" stroke="#ff0000" stroke-width="1" points="507,486 507,483 "/>
<polyline fill="none" stroke="#ff0000" stroke-width="1" points="498,486 498,484 498,486 "/>
<polyline fill="none" stroke="#ff0000" stroke-width="1" points="488,486 488,484 488,486 "/>
<polyline fill="none" stroke="#ff0000" stroke-width="1" points="470,486 470,483 470,486 "/>
<polyline fill="none" stroke="#ff0000" stroke-width="1" points="479,486 479,484 479,486 "/>
<polyline fill="none" stroke="#ff0000" stroke-width="1" points="460,486 460,484 460,486 "/>
<polyline fill="none" stroke="#ff0000" stroke-width="1" points="451,486 451,484 451,486 "/>
<polyline fill="none" stroke="#ff0000" stroke-width="1" points="432,486 432,483 432,486 "/>
<polyline fill="none" stroke="#ff0000" stroke-width="1" points="442,486 442,484 442,486 "/>
<polyline fill="none" stroke="#ff0000" stroke-width="1" points="423,486 423,484 423,486 "/>
<polyline fill="none" stroke="#ff0000" stroke-width="1" points="414,486 414,484 414,486 "/>
<polyline fill="none" stroke="#ff0000" stroke-width="1" points="395,486 395,483 395,486 "/>
<polyline fill="none" stroke="#ff0000" stroke-width="1" points="404,486 404,484 404,486 "/>
<polyline fill="none" stroke="#ff0000" stroke-width="1" points="386,486 386,484 386,486 "/>
<polyline fill="none" stroke="#ff0000" stroke-width="1" points="376,486 376,484 376,486 "/>
<polyline fill="none" stroke="#ff0000" stroke-width="1" points="358,486 358,483 358,486 "/>
<polyline fill="none" stroke="#ff0000" stroke-width="1" points="367,486 367,484 367,486 "/>
<polyline fill="none" stroke="#ff0000" stroke-width="1" points="348,486 348,484 348,486 "/>
<polyline fill="none" stroke="#ff0000" stroke-width="1" points="339,486 339,484 339,486 "/>
<polyline fill="none" stroke="#ff0000" stroke-width="1" points="320,486 320,483 320,486 "/>
<polyline fill="none" stroke="#ff0000" stroke-width="1" points="330,486 330,484 330,486 "/>
<polyline fill="none" stroke="#ff0000" stroke-width="1" points="311,486 311,484 311,486 "/>
<polyline fill="none" stroke="#ff0000" stroke-width="1" points="302,486 302,484 302,486 "/>
<polyline fill="none" stroke="#ff0000" stroke-width="1" points="283,486 283,483 283,486 "/>
<polyline fill="none" stroke="#ff0000" stroke-width="1" points="292,486 292,484 292,486 "/>
<polyline fill="none" stroke="#ff0000" stroke-width="1" points="274,486 274,484 274,486 "/>
<polyline fill="none" stroke="#ff0000" stroke-width="1" points="264,486 264,484 264,486 "/>
<polyline fill="none" stroke="#ff0000" stroke-width="1" points="246,486 246,483 246,486 "/>
<polyline fill="none" stroke="#ff0000" stroke-width="1" points="255,486 255,484 255,486 "/>
<polyline fill="none" stroke="#ff0000" stroke-width="1" points="236,486 236,484 236,486 "/>
<polyline fill="none" stroke="#ff0000" stroke-width="1" points="227,486 227,484 227,486 "/>
<polyline fill="none" stroke="#ff0000" stroke-width="1" points="218,486 218,484 218,486 "/>
<polyline fill="none" stroke="#ff0000" stroke-width="1" points="212,445 216,445 "/>
<polyline fill="none" stroke="#ff0000" stroke-width="1" points="212,473 214,473 212,473 "/>
<polyline fill="none" stroke="#ff0000" stroke-width="1" points="212,459 214,459 212,459 "/>
<polyline fill="none" stroke="#ff0000" stroke-width="1" points="212,431 214,431 212,431 "/>
<polyline fill="none" stroke="#ff0000" stroke-width="1" points="212,417 214,417 212,417 "/>
<polyline fill="none" stroke="#ff0000" stroke-width="1" points="212,375 216,375 212,375 "/>
<polyline fill="none" stroke="#ff0000" stroke-width="1" points="212,403 214,403 212,403 "/>
<polyline fill="none" stroke="#ff0000" stroke-width="1" points="212,389 214,389 212,389 "/>
<polyline fill="none" stroke="#ff0000" stroke-width="1" points="212,361 214,361 212,361 "/>
<polyline fill="none" stroke="#ff0000" stroke-width="1" points="212,347 214,347 212,347 "/>
<polyline fill="none" stroke="#ff0000" stroke-width="1" points="212,305 216,305 212,305 "/>
<polyline fill="none" stroke="#ff0000" stroke-width="1" points="212,333 214,333 212,333 "/>
<polyline fill="none" stroke="#ff0000" stroke-width="1" points="212,319 214,319 212,319 "/>
<polyline fill="none" stroke="#ff0000" stroke-width="1" points="212,291 214,291 212,291 "/>
<polyline fill="none" stroke="#ff0000" stroke-width="1" points="212,277 214,277 212,277 "/>
<polyline fill="none" stroke="#ff0000" stroke-width="1" points="212,235 216,235 212,235 "/>
<polyline fill="none" stroke="#ff0000" stroke-width="1" points="212,263 214,263 212,263 "/>
<polyline fill="none" stroke="#ff0000" stroke-width="1" points="212,249 214,249 212,249 "/>
<polyline fill="none" stroke="#ff0000" stroke-width="1" points="212,221 214,221 212,221 "/>
<polyline fill="none" stroke="#ff0000" stroke-width="1" points="212,207 214,207 212,207 "/>
<polyline fill="none" stroke="#ff0000" stroke-width="1" points="212,165 216,165 212,165 "/>
<polyline fill="none" stroke="#ff0000" stroke-width="1" points="212,193 214,193 212,193 "/>
<polyline fill="none" stroke="#ff0000" stroke-width="1" points="212,179 214,179 212,179 "/>
<polyline fill="none" stroke="#ff0000" stroke-width="1" points="212,151 214,151 212,151 "/>
<polyline fill="none" stroke="#ff0000" stroke-width="1" points="212,137 214,137 212,137 "/>
<polyline fill="none" stroke="#ff0000" stroke-width="1" points="212,95 216,95 212,95 "/>
<polyline fill="none" stroke="#ff0000" stroke-width="1" points="212,123 214,123 212,123 "/>
<polyline fill="none" stroke="#ff0000" stroke-width="1" points="212,109 214,109 212,109 "/>
<polyline fill="none" stroke="#ff0000" stroke-width="1" points="212,81 214,81 212,81 "/>
<polyline fill="none" stroke="#ff0000" stroke-width="1" points="212,67 214,67 212,67 "/>
<polyline fill="none" stroke="#ff0000" stroke-width="1" points="507,54 507,57 "/>
<polyline fill="none" stroke="#ff0000" stroke-width="1" points="498,54 498,56 498,54 "/>
<polyline fill="none" stroke="#ff0000" stroke-width="1" points="488,54 488,56 488,54 "/>
<polyline fill="none" stroke="#ff0000" stroke-width="1" points="470,54 470,57 470,54 "/>
<polyline fill="none" stroke="#ff0000" stroke-width="1" points="479,54 479,56 479,54 "/>
<polyline fill="none" stroke="#ff0000" stroke-width="1" points="460,54 460,56 460,54 "/>
<polyline fill="none" stroke="#ff0000" stroke-width="1" points="451,54 451,56 451,54 "/>
<polyline fill="none" stroke="#ff0000" stroke-width="1" points="432,54 432,57 432,54 "/>
<polyline fill="none" stroke="#ff0000" stroke-width="1" points="442,54 442,56 442,54 "/>
<polyline fill="none" stroke="#ff0000" stroke-width="1" points="423,54 423,56 423,54 "/>
<polyline fill="none" stroke="#ff0000" stroke-width="1" points="414,54 414,56 414,54 "/>
<polyline fill="none" stroke="#ff0000" stroke-width="1" points="395,54 395,57 395,54 "/>
<polyline fill="none" stroke="#ff0000" stroke-width="1" points="404,54 404,56 404,54 "/>
<polyline fill="none" stroke="#ff0000" stroke-width="1" points="386,54 386,56 386,54 "/>
<polyline fill="none" stroke="#ff0000" stroke-width="1" points="376,54 376,56 376,54 "/>
<polyline fill="none" stroke="#ff0000" stroke-width="1" points="358,54 358,57 358,54 "/>
<polyline fill="none" stroke="#ff0000" stroke-width="1" points="367,54 367,56 367,54 "/>
<polyline fill="none" stroke="#ff0000" stroke-width="1" points="348,54 348,56 348,54 "/>
<polyline fill="none" stroke="#ff0000" stroke-width="1" points="339,54 339,56 339,54 "/>
<polyline fill="none" stroke="#ff0000" stroke-width="1" points="320,54 320,57 320,54 "/>
<polyline fill="none" stroke="#ff0000" stroke-width="1" points="330,54 330,56 330,54 "/>
<polyline fill="none" stroke="#ff0000" stroke-width="1" points="311,54 311,56 311,54 "/>
<polyline fill="none" stroke="#ff0000" stroke-width="1" points="302,54 302,56 302,54 "/>
<polyline fill="none" stroke="#ff0000" stroke-width="1" points="283,54 283,57 283,54 "/>
<polyline fill="none" stroke="#ff0000" stroke-width="1" points="292,54 292,56 292,54 "/>
<polyline fill="none" stroke="#ff0000" stroke-width="1" points="274,54 274,56 274,54 "/>
<polyline fill="none" stroke="#ff0000" stroke-width="1" points="264,54 264,56 264,54 "/>
<polyline fill="none" stroke="#ff0000" stroke-width="1" points="246,54 246,57 246,54 "/>
<polyline fill="none" stroke="#ff0000" stroke-width="1" points="255,54 255,56 255,54 "/>
<polyline fill="none" stroke="#ff0000" stroke-width="1" points="236,54 236,56 236,54 "/>
<polyline fill="none" stroke="#ff0000" stroke-width="1" points="227,54 227,56 227,54 "/>
<polyline fill="none" stroke="#ff0000" stroke-width="1" points="218,54 218,56 218,54 "/>
<polyline fill="none" stroke="#ff0000" stroke-width="1" points="508,445 504,445 "/>
<polyline fill="none" stroke="#ff0000" stroke-width="1" points="508,473 506,473 508,473 "/>
<polyline fill="none" stroke="#ff0000" stroke-width="1" points="508,459 506,459 508,459 "/>
<polyline fill="none" stroke="#ff0000" stroke-width="1" points="508,431 506,431 508,431 "/>
<polyline fill="none" stroke="#ff0000" stroke-width="1" points="508,417 506,417 508,417 "/>
<polyline fill="none" stroke="#ff0000" stroke-width="1" points="508,375 504,375 508,375 "/>
<polyline fill="none" stroke="#ff0000" stroke-width="1" points="508,403 506,403 508,403 "/>
<polyline fill="none" stroke="#ff0000" stroke-width="1" points="508,389 506,389 508,389 "/>
<polyline fill="none" stroke="#ff0000" stroke-width="1" points="508,361 506,361 508,361 "/>
<polyline fill="none" stroke="#ff0000" stroke-width="1" points="508,347 506,347 508,347 "/>
<polyline fill="none" stroke="#ff0000" stroke-width="1" points="508,305 504,305 508,305 "/>
<polyline fill="none" stroke="#ff0000" stroke-width="1" points="508,333 506,333 508,333 "/>
<polyline fill="none" stroke="#ff0000" stroke-width="1" points="508,319 506,319 508,319 "/>
<polyline fill="none" stroke="#ff0000" stroke-width="1" points="508,291 506,291 508,291 "/>
<polyline fill="none" stroke="#ff0000" stroke-width="1" points="508,277 506,277 508,277 "/>
<polyline fill="none" stroke="#ff0000" stroke-width="1" points="508,235 504,235 508,235 "/>
<polyline fill="none" stroke="#ff0000" stroke-width="1" points="508,263 506,263 508,263 "/>
<polyline fill="none" stroke="#ff0000" stroke-width="1" points="508,249 506,249 508,249 "/>
<polyline fill="none" stroke="#ff0000" stroke-width="1" points="508,221 506,221 508,221 "/>
<polyline fill="none" stroke="#ff0000" stroke-width="1" points="508,207 506,207 508,207 "/>
<polyline fill="none" stroke="#ff0000" stroke-width="1" points="508,165 504,165 508,165 "/>
<polyline fill="none" stroke="#ff0000" stroke-width="1" points="508,193 506,193 508,193 "/>
<polyline fill="none" stroke="#ff0000" stroke-width="1" points="508,179 506,179 508,179 "/>
<polyline fill="none" stroke="#ff0000" stroke-width="1" points="508,151 506,151 508,151 "/>
<polyline fill="none" stroke="#ff0000" stroke-width="1" points="508,137 506,137 508,137 "/>
<polyline fill="none" stroke="#ff0000" stroke-width="1" points="508,95 504,95 508,95 "/>
<polyline fill="none" stroke="#ff0000" stroke-width="1" points="508,123 506,123 508,123 "/>
<polyline fill="none" stroke="#ff0000" stroke-width="1" points="508,109 506,109 508,109 "/>
<polyline fill="none" stroke="#ff0000" stroke-width="1" points="508,81 506,81 508,81 "/>
<polyline fill="none" stroke="#ff0000" stroke-width="1" points="508,67 506,67 508,67 "/>
<polyline fill="none" stroke="#ff0000" stroke-width="1" points="212,486 233,486 254,486 275,486 297,486 318,486 339,486 360,486 381,486 402,486 423,486 445,486 466,486 487,486 508,486 508,455 508,424 508,393 508,363 508,332 508,301 508,270 508,239 508,208 508,177 508,147 508,116 508,85 508,54 487,54 466,54 445,54 423,54 402,54 381,54 360,54 339,54 318,54 297,54 275,54 254,54 233,54 212,54 212,85 212,116 212,147 212,177 212,208 212,239 212,270 212,301 212,332 212,363 212,393 212,424 212,455 212,486 "/>
<text x="283" y="488" font-family="sans-serif" font-size="14" fill="#ff0000" text-anchor="middle" dominant-baseline="hanging">351.4</text>
<text x="358" y="488" font-family="sans-serif" font-size="14" fill="#ff0000" text-anchor="middle" dominant-baseline="hanging">351.0</text>
<text x="432" y="488" font-family="sans-serif" font-size="14" fill="#ff0000" text-anchor="middle" dominant-baseline="hanging">350.6</text>
<text x="507" y="488" font-family="sans-serif" font-size="14" fill="#ff0000" text-anchor="middle" dominant-baseline="hanging">350.2</text>
<text x="209" y="445" font-family="sans-serif" font-size="14" fill="#ff0000" text-anchor="end" dominant-baseline="central">-0.5</text>
<text x="209" y="375" font-family="sans-serif" font-size="14" fill="#ff0000" text-anchor="end" dominant-baseline="central">0.0</text>
<text x="209" y="305" font-family="sans-serif" font-size="14" fill="#ff0000" text-anchor="end" dominant-baseline="central">0.5</text>
<text x="209" y="235" font-family="sans-serif" font-size="14" fill="#ff0000" text-anchor="end" dominant-baseline="central">1.0</text>
<text x="209" y="165" font-family="sans-serif" font-size="14" fill="#ff0000" text-anchor="end" dominant-baseline="central">1.5</text>
<text x="209" y="95" font-family="sans-serif" font-size="14" fill="#ff0000" text-anchor="end" dominant-baseline="central">2.0</text>
<text x="360" y="503" font-family="sans-serif" font-size="14" fill="#ff0000" text-anchor="middle" dominant-baseline="hanging">Galactic longitude</text>
<text x="166" y="270" font-family="sans-serif" font-size="14" fill="#ff0000" text-anchor="middle" dominant-baseline="alphabetic" transform="rotate(90,166,270)">Galactic latitude</text>
<text x="360" y="41" font-family="sans-serif" font-size="14" fill="#ff0000" text-anchor="middle" dominant-baseline="alphabetic">A FITS test</text>
</svg>
