<?xml version="1.0" encoding="UTF-8"?>
<svg xmlns="http://www.w3.org/2000/svg" width="720" height="540" viewBox="0 0 720 540">
<rect width="100%" height="100%" fill="black"/>
<polyline fill="none" stroke="#ff0000" stroke-width="1" points="333,389 333,389 335,389 336,389 337,389 338,389 340,389 341,389 342,389 343,389 345,389 346,389 347,389 349,389 350,389 351,389 352,389 354,389 355,389 356,389 357,389 359,389 360,389 361,389 363,389 364,389 365,389 366,389 368,389 369,389 370,389 370,388 371,388 373,388 374,388 375,388 377,388 378,388 379,388 380,388 380,387 382,387 383,387 384,387 385,387 387,387 387,387 388,386 389,386 391,386 392,386 392,386 393,385 394,385 396,385 397,385 398,385 399,385 400,384 401,384 402,384 403,384 403,383 405,383 406,383 407,383 408,383 408,382 410,382 411,382 412,382 412,381 414,381 415,381 415,381 416,380 417,380 418,380 419,379 420,379 421,379 422,379 422,378 424,378 424,378 425,378 426,378 428,378 428,377 429,377 430,377 431,376 431,376 433,376 433,375 434,375 435,375 436,374 436,374 438,374 438,373 439,373 440,373 441,372 442,372 443,372 443,371 444,371 445,370 445,370 447,370 447,369 448,369 449,369 450,368 450,368 451,367 452,367 453,367 454,367 454,366 456,366 456,366 457,365 457,365 458,364 459,364 460,364 461,363 461,363 462,362 463,362 463,361 464,361 465,361 466,360 466,360 467,359 468,359 468,358 470,358 470,358 471,357 472,357 472,356 473,356 473,356 474,355 475,355 475,354 476,354 477,353 477,353 479,353 479,352 480,352 480,351 481,351 482,350 482,350 483,349 484,349 484,348 485,348 486,347 486,347 487,346 487,346 488,346 489,345 489,345 490,344 491,344 491,343 492,343 492,342 493,341 493,341 494,340 494,340 495,339 496,339 496,338 497,338 498,337 498,337 499,336 500,336 500,335 500,335 501,334 501,334 502,333 503,333 503,332 503,331 504,331 505,330 505,330 506,329 507,329 507,328 507,327 508,327 508,326 509,326 510,325 510,324 510,324 511,324 512,323 512,323 512,322 513,321 514,321 514,320 514,319 515,319 515,318 516,318 516,317 517,316 517,316 517,315 518,314 519,314 519,313 519,313 520,312 520,311 521,311 521,310 521,309 522,309 522,308 522,307 523,307 524,306 524,305 524,305 525,304 525,303 525,302 526,302 526,302 526,301 527,300 528,300 528,299 528,298 529,298 529,297 529,296 529,295 530,295 530,294 530,293 531,292 531,292 531,291 531,290 532,290 533,289 533,288 533,287 533,287 534,286 534,285 534,284 534,283 535,283 535,282 535,281 535,281 535,280 536,279 536,279 536,278 536,277 536,276 536,275 537,274 538,274 538,273 538,272 538,271 538,270 538,270 539,269 539,268 539,267 539,266 539,265 539,264 539,263 539,262 540,262 540,261 540,260 540,259 540,259 540,258 540,257 540,256 540,255 540,254 540,253 540,252 540,251 540,250 540,249 540,248 540,247 540,246 540,245 540,244 540,243 540,242 540,241 540,240 540,239 540,238 540,238 540,237 540,236 540,235 540,234 540,233 540,232 539,232 539,231 539,230 539,229 539,228 539,227 539,226 539,225 538,225 538,224 538,223 538,222 538,221 538,220 538,219 537,219 536,218 536,217 536,216 536,216 536,215 535,215 535,214 535,213 535,212 535,211 534,211 534,210 534,209 534,208 533,207 533,207 533,206 533,205 532,205 531,204 531,203 531,202 531,202 530,201 530,200 530,199 529,199 529,198 529,197 529,196 528,196 528,195 528,194 527,194 526,194 526,193 526,192 526,191 525,191 525,190 524,189 524,189 524,188 523,187 522,187 522,186 522,185 521,185 521,184 521,184 520,183 520,182 519,182 519,181 519,180 518,180 517,179 517,178 517,178 516,177 516,176 515,176 515,175 515,174 514,174 514,173 513,173 512,173 512,172 512,171 511,171 510,170 510,170 510,169 509,168 508,168 508,167 507,167 507,166 507,165 506,165 505,164 505,164 505,163 504,162 503,162 503,162 502,161 501,161 501,160 501,159 500,159 500,158 499,158 498,157 498,157 497,156 496,156 496,155 496,154 495,154 494,153 494,153 493,152 493,152 492,151 491,151 491,151 490,150 489,150 489,149 488,149 487,148 487,148 486,147 486,147 485,146 484,146 484,145 483,145 482,144 482,144 481,143 480,143 480,142 479,142 479,141 478,141 477,140 477,140 476,140 475,139 475,139 473,139 473,138 472,138 472,137 471,137 470,136 470,136 469,135 468,135 467,135 466,134 466,134 465,133 464,133 464,132 463,132 462,132 461,131 461,131 460,130 459,130 459,130 458,129 457,129 456,129 456,128 455,128 454,127 453,127 452,127 452,126 450,126 450,126 449,125 449,125 448,124 447,124 446,124 445,123 444,123 443,123 443,122 442,122 441,122 440,121 440,121 439,120 438,120 437,120 436,119 435,119 435,119 434,119 433,119 431,119 431,118 430,118 429,118 428,117 428,117 426,117 426,116 425,116 424,116 423,115 422,115 421,115 420,115 419,114 419,114 417,114 416,114 415,113 415,113 414,113 413,112 412,112 411,112 410,112 409,111 408,111 407,111 406,111 405,111 404,110 403,110 402,110 401,110 400,109 400,109 398,109 397,109 396,109 395,108 394,108 393,108 392,108 391,108 389,108 389,108 388,107 387,107 385,107 384,107 383,107 382,107 382,106 380,106 379,106 378,106 377,106 375,106 374,106 373,106 373,105 371,105 370,105 369,105 368,105 366,105 365,105 364,105 363,105 361,105 360,105 359,105 357,105 356,105 355,105 354,105 352,105 351,105 350,105 349,105 347,105 346,105 345,105 343,105 342,105 341,105 340,105 338,105 337,105 336,105 335,105 333,105 332,105 331,105 329,105 329,106 328,106 327,106 326,106 324,106 323,106 322,106 320,106 320,107 319,107 318,107 317,107 315,107 314,107 313,108 313,108 312,108 310,108 309,108 308,108 307,108 306,109 305,109 304,109 303,109 302,109 301,110 300,110 299,110 298,110 298,111 296,111 295,111 294,111 293,111 292,112 291,112 290,112 289,112 289,113 287,113 287,113 286,114 285,114 284,114 283,114 282,115 281,115 280,115 279,115 278,116 277,116 277,116 276,117 275,117 274,117 273,118 272,118 271,118 270,118 270,119 268,119 268,119 267,119 266,119 265,120 264,120 263,120 263,121 262,121 261,122 261,122 259,122 259,123 258,123 257,123 256,124 256,124 254,124 254,125 253,125 252,126 252,126 250,126 250,127 249,127 248,127 247,128 247,128 246,129 245,129 244,129 243,130 243,130 242,130 241,131 241,131 240,132 239,132 238,132 238,133 237,133 236,134 236,134 235,135 234,135 233,135 233,136 232,136 231,137 231,137 230,138 229,138 229,139 227,139 227,139 226,140 226,140 225,140 224,141 224,141 223,142 222,142 222,143 221,143 220,144 220,144 219,145 219,145 218,146 217,146 217,147 216,147 215,148 215,148 214,149 213,149 213,150 212,150 212,151 211,151 210,151 210,152 209,152 208,153 208,153 207,154 206,154 206,155 206,156 205,156 205,157 204,157 203,158 203,158 202,159 201,159 201,160 201,161 200,161 199,162 199,162 198,162 198,163 198,164 197,164 196,165 196,165 195,166 195,167 194,167 194,168 193,168 192,169 192,170 192,170 191,171 191,171 190,172 190,173 189,173 189,173 188,174 187,174 187,175 187,176 186,176 186,177 185,178 185,178 185,179 184,180 184,180 184,181 183,182 182,182 182,183 182,184 181,184 181,185 180,185 180,186 180,187 179,187 178,188 178,189 178,189 177,190 177,191 176,191 176,192 176,193 176,194 175,194 175,194 175,195 174,196 173,196 173,197 173,198 173,199 172,199 172,200 172,201 171,202 171,202 171,203 171,204 170,205 169,205 169,206 169,207 169,207 168,208 168,209 168,210 168,211 168,211 167,212 167,213 167,214 167,215 166,215 166,216 166,216 166,217 166,218 165,219 164,219 164,220 164,221 164,222 164,223 164,224 164,225 163,225 163,226 163,227 163,228 163,229 163,230 163,231 162,231 162,232 162,233 162,234 162,235 162,236 162,237 162,238 162,238 162,239 162,240 162,241 162,242 162,243 162,244 162,245 162,246 162,247 162,248 162,249 162,250 162,251 162,252 162,253 162,254 162,255 162,256 162,257 162,258 162,259 162,259 162,260 162,261 162,262 163,262 163,263 163,264 163,265 163,266 163,267 163,268 163,269 164,270 164,270 164,271 164,272 164,273 164,274 165,274 166,275 166,276 166,277 166,278 166,279 166,279 167,280 167,281 167,281 167,282 168,283 168,283 168,284 168,285 168,286 169,287 169,287 169,288 169,289 170,290 171,290 171,291 171,292 171,292 172,293 172,294 172,295 173,295 173,296 173,297 173,298 174,298 175,299 175,300 175,300 176,301 176,302 176,302 176,303 177,303 177,304 178,305 178,305 178,306 179,307 180,307 180,308 180,309 181,309 181,310 182,311 182,311 182,312 183,313 184,313 184,314 184,314 185,315 185,316 185,316 186,317 186,318 187,318 187,319 188,319 189,320 189,321 189,321 190,322 190,323 191,323 191,324 192,324 192,324 192,325 193,326 194,326 194,327 195,327 195,328 196,329 196,329 197,330 198,330 198,331 199,331 199,332 199,333 200,333 201,334 201,334 202,335 203,335 203,336 203,336 204,337 205,337 205,338 206,338 206,339 207,339 208,340 208,340 209,341 209,342 210,342 210,343 211,343 212,344 212,344 213,345 213,345 214,346 215,346 215,346 216,347 217,347 217,348 218,348 219,349 219,349 220,350 220,350 221,351 222,351 222,352 223,352 224,353 225,353 226,353 226,354 227,354 227,355 228,355 229,356 229,356 230,356 231,357 231,357 232,358 233,358 234,358 234,359 235,359 236,360 236,360 237,361 238,361 239,361 240,362 240,362 241,363 241,363 242,364 243,364 244,364 245,365 245,365 246,366 247,366 248,366 248,367 249,367 250,367 251,367 252,368 252,368 253,369 254,369 255,369 256,370 257,370 257,370 258,371 259,371 259,372 261,372 261,372 262,373 263,373 264,373 264,374 266,374 266,374 267,375 268,375 269,375 270,376 271,376 271,376 272,377 273,377 274,377 275,378 276,378 277,378 278,378 278,378 280,378 280,379 281,379 282,379 284,379 284,380 285,380 286,380 287,381 287,381 289,381 290,381 291,382 291,382 292,382 294,382 294,383 295,383 296,383 298,383 299,383 299,384 300,384 301,384 303,384 303,385 304,385 305,385 306,385 308,385 309,385 310,386 310,386 312,386 313,386 314,386 315,387 315,387 317,387 318,387 319,387 320,387 322,387 322,388 323,388 324,388 326,388 327,388 328,388 329,388 331,388 332,388 333,389 "/>
<text x="153" y="247" font-family="sans-serif" font-size="14" fill="#ff0000" text-anchor="middle" dominant-baseline="alphabetic" transform="rotate(90,153,247)">Galactic longitude</text>
<text x="351" y="393" font-family="sans-serif" font-size="14" fill="#ff0000" text-anchor="middle" dominant-baseline="hanging">Galactic latitude</text>
<text x="351" y="81" font-family="sans-serif" font-size="14" fill="#ff0000" text-anchor="middle" dominant-baseline="alphabetic">A FITS test</text>
</svg>
