<?xml version="1.0" encoding="UTF-8"?>
<svg xmlns="http://www.w3.org/2000/svg" width="720" height="540" viewBox="0 0 720 540">
<rect width="100%" height="100%" fill="black"/>
<polyline fill="none" stroke="#ff0000" stroke-width="1" points="410,372 410,371 409,370 409,369 409,368 408,367 408,366 408,365 407,363 407,362 406,361 406,360 406,359 405,358 405,357 404,355 404,354 404,353 403,352 403,351 403,350 402,348 402,347 402,346 401,345 401,344 401,343 400,342 400,340 400,339 399,338 399,337 399,336 398,335 399,334 399,332 400,331 401,330 401,329 401,328 402,326 402,325 403,324 408,305 413,284 417,263 421,242 426,222 427,221 427,219 428,218 428,217 429,216 429,214 429,213 430,212 430,211 431,209 431,208 432,207 432,206 433,205 434,204 435,203 435,201 436,200 437,199 438,198 438,197 439,196 440,194 441,193 441,192 442,191 443,190 444,189 444,188 445,186 446,185 447,184 447,183 448,182 449,181 449,179 450,178 451,177 452,176 452,175 453,174 454,173 454,172 455,170 456,169 456,168 457,167 458,166 459,165 459,164 460,163 461,162 461,161 462,160 463,159 464,158 465,158 466,157 466,157 466,157 466,157 466,157 466,157 466,157 466,156 466,156 466,156 466,156 466,156 467,156 467,156 467,156 467,156 467,156 467,156 467,156 "/>
<polyline fill="none" stroke="#ff0000" stroke-width="1" points="599,156 599,156 599,156 599,156 600,156 600,156 600,156 600,156 600,156 601,155 601,155 601,155 601,155 601,155 601,155 602,155 602,155 602,155 602,155 602,155 603,155 603,155 605,155 608,154 610,154 612,154 614,154 616,154 619,154 621,155 623,155 625,156 627,156 629,157 631,158 634,159 636,160 638,161 641,161 643,162 645,163 648,164 648,164 648,164 645,163 643,162 641,161 638,161 636,160 634,159 631,158 629,157 627,156 625,156 623,155 621,155 619,154 616,154 614,154 612,154 610,154 608,154 605,155 603,155 603,155 602,155 602,155 602,155 602,155 602,155 601,155 601,155 601,155 601,155 601,155 601,155 600,156 600,156 600,156 600,156 600,156 599,156 599,156 599,156 599,156 "/>
<polyline fill="none" stroke="#ff0000" stroke-width="1" points="310,372 307,373 305,374 302,376 300,377 297,378 295,379 293,379 290,380 288,381 286,382 284,383 281,384 279,384 277,385 275,385 273,386 271,386 269,386 267,386 264,386 262,386 260,385 257,385 257,385 257,385 257,385 256,385 256,385 256,385 256,385 256,385 256,385 255,385 255,385 255,385 255,384 255,384 254,384 254,384 254,384 254,384 254,384 253,384 253,384 "/>
<polyline fill="none" stroke="#ff0000" stroke-width="1" points="121,384 121,384 121,384 121,384 121,384 121,384 121,384 121,384 121,384 121,384 121,384 121,384 121,383 120,383 120,383 120,383 120,383 120,383 120,383 119,382 118,382 117,381 117,380 116,379 115,378 114,377 114,376 113,375 112,374 112,373 111,372 110,371 109,370 109,368 108,367 107,366 107,365 106,364 105,363 105,362 104,361 103,359 102,358 102,357 101,356 100,355 99,354 99,352 98,351 97,350 97,349 96,348 95,347 94,346 94,344 93,343 92,342 91,341 91,340 90,339 89,337 88,336 87,335 87,334 86,333 86,332 85,331 85,329 84,328 84,327 83,326 83,324 82,323 82,322 82,321 81,319 81,318 76,298 72,280 76,298 81,318 81,319 82,321 82,322 82,323 83,324 83,326 84,327 84,328 85,329 85,331 86,332 86,333 87,334 87,335 88,336 89,337 90,339 91,340 91,341 92,342 93,343 94,344 94,346 95,347 96,348 97,349 97,350 98,351 99,352 99,354 100,355 101,356 102,357 102,358 103,359 104,361 105,362 105,363 106,364 107,365 107,366 108,367 109,368 109,370 110,371 111,372 112,373 112,374 113,375 114,376 114,377 115,378 116,379 117,380 117,381 118,382 119,382 120,383 120,383 120,383 120,383 120,383 120,383 121,383 121,384 121,384 121,384 121,384 121,384 121,384 121,384 121,384 121,384 121,384 121,384 121,384 "/>
<polyline fill="none" stroke="#ff0000" stroke-width="1" points="310,372 308,374 307,375 305,376 303,377 301,379 300,380 298,381 296,382 295,384 293,385 291,386 290,388 288,389 286,390 284,391 283,393 281,394 279,395 278,396 276,398 276,398 276,398 275,398 275,398 275,398 275,398 275,398 275,398 275,398 275,399 275,399 274,399 274,399 274,399 274,399 274,399 274,399 274,399 274,399 273,399 "/>
<polyline fill="none" stroke="#ff0000" stroke-width="1" points="101,399 101,399 101,399 101,399 100,399 100,399 100,399 100,399 100,399 100,399 100,399 100,398 99,398 99,398 99,398 99,398 99,398 99,398 99,398 99,398 97,396 95,395 94,394 92,393 90,391 89,390 87,389 85,388 84,386 82,385 80,384 79,382 77,381 75,380 74,379 72,378 74,379 75,380 77,381 79,382 80,384 82,385 84,386 85,388 87,389 89,390 90,391 92,393 94,394 95,395 97,396 99,398 99,398 99,398 99,398 99,398 99,398 99,398 99,398 100,398 100,399 100,399 100,399 100,399 100,399 100,399 100,399 101,399 101,399 101,399 101,399 "/>
<polyline fill="none" stroke="#ff0000" stroke-width="1" points="410,372 413,373 415,375 418,376 420,377 422,378 425,379 427,380 430,380 432,381 434,382 436,383 439,384 441,384 443,385 445,385 447,386 449,386 451,386 453,386 455,386 458,386 460,386 463,385 463,385 463,385 463,385 463,385 464,385 464,385 464,385 464,385 464,385 465,385 465,385 465,385 465,385 465,385 465,385 466,385 466,385 466,385 466,385 "/>
<polyline fill="none" stroke="#ff0000" stroke-width="1" points="599,385 599,384 599,384 600,384 600,384 600,384 600,384 600,384 600,384 600,384 600,384 600,384 600,384 600,384 600,384 600,384 601,384 601,384 601,384 601,384 601,384 602,383 603,382 604,381 604,380 605,379 606,378 607,377 607,376 608,375 609,374 610,373 610,372 611,371 612,370 612,369 613,368 614,367 615,365 615,364 616,363 617,362 618,361 618,360 619,359 620,357 621,356 621,355 622,354 623,353 624,352 624,350 625,349 626,348 627,347 627,346 628,345 629,343 630,342 631,341 631,340 632,339 633,338 634,337 634,335 635,334 636,333 636,332 637,331 637,330 638,328 638,327 639,326 639,325 639,323 640,322 640,321 641,320 641,318 646,299 648,288 646,299 641,318 641,320 640,321 640,322 639,323 639,325 639,326 638,327 638,328 637,330 637,331 636,332 636,333 635,334 634,335 634,337 633,338 632,339 631,340 631,341 630,342 629,343 628,345 627,346 627,347 626,348 625,349 624,350 624,352 623,353 622,354 621,355 621,356 620,357 619,359 618,360 618,361 617,362 616,363 615,364 615,365 614,367 613,368 612,369 612,370 611,371 610,372 610,373 609,374 608,375 607,376 607,377 606,378 605,379 604,380 604,381 603,382 602,383 601,384 601,384 601,384 601,384 601,384 600,384 600,384 600,384 600,384 600,384 600,384 600,384 600,384 600,384 600,384 600,384 600,384 600,384 599,384 599,384 599,385 "/>
<polyline fill="none" stroke="#ff0000" stroke-width="1" points="410,372 413,373 415,374 418,374 421,375 423,375 425,375 428,376 430,376 432,376 435,376 437,376 439,376 441,376 443,376 445,376 448,375 450,375 452,375 454,374 456,374 458,373 461,373 463,372 465,371 467,371 470,370 472,369 475,368 477,367 479,367 482,366 484,365 487,364 489,363 492,362 495,361 497,360 497,360 498,360 498,360 498,360 498,360 498,360 498,360 499,360 499,359 499,359 499,359 499,359 500,359 500,359 500,359 500,359 500,359 501,359 501,359 "/>
<polyline fill="none" stroke="#ff0000" stroke-width="1" points="565,359 565,358 565,358 565,358 565,358 565,358 565,358 565,358 565,358 565,358 565,358 565,358 565,358 565,358 565,358 565,357 565,357 565,357 565,357 565,357 565,357 564,356 564,355 564,354 564,353 564,352 564,351 564,350 564,349 564,348 564,347 564,346 564,345 564,343 564,342 564,341 564,340 564,339 564,338 564,337 564,336 564,335 565,334 566,333 566,332 567,331 568,329 569,328 570,327 570,326 571,325 581,307 588,287 596,266 603,245 611,226 622,209 633,194 644,179 648,175 644,179 633,194 622,209 611,226 603,245 596,266 588,287 581,307 571,325 570,326 570,327 569,328 568,329 567,331 566,332 566,333 565,334 564,335 564,336 564,337 564,338 564,339 564,340 564,341 564,342 564,343 564,345 564,346 564,347 564,348 564,349 564,350 564,351 564,352 564,353 564,354 564,355 564,356 565,357 565,357 565,357 565,357 565,357 565,357 565,358 565,358 565,358 565,358 565,358 565,358 565,358 565,358 565,358 565,358 565,358 565,358 565,358 565,358 565,359 "/>
<polyline fill="none" stroke="#ff0000" stroke-width="1" points="410,372 412,372 414,372 416,372 418,372 420,372 422,371 424,371 426,371 428,370 429,370 431,369 433,369 434,368 436,367 438,367 439,366 441,365 443,365 444,364 446,363 448,362 449,361 451,361 453,360 454,359 456,358 458,357 460,356 461,355 463,354 465,353 467,352 468,351 470,350 472,349 474,348 475,347 477,346 479,345 481,344 483,343 485,342 486,341 488,340 490,339 492,338 494,337 496,336 498,335 499,334 500,333 501,332 502,331 503,329 504,328 505,327 505,326 506,325 507,324 508,323 509,321 510,320 511,319 511,318 512,316 513,315 514,314 514,313 515,311 516,310 525,291 534,270 542,250 551,231 552,229 553,228 553,227 554,225 555,224 556,223 557,222 557,220 558,219 559,218 560,217 561,215 562,214 562,213 563,212 564,211 565,210 566,209 567,208 568,207 569,205 571,204 573,203 575,202 577,201 578,200 580,199 582,198 584,197 586,196 587,195 589,194 591,193 593,192 595,191 596,190 598,189 600,188 601,187 603,186 605,185 607,184 608,183 610,182 612,182 613,181 615,180 617,179 618,178 620,177 622,176 623,176 625,175 627,174 628,173 630,173 631,172 633,171 635,171 637,170 638,170 640,169 642,169 644,169 645,168 647,168 648,168 "/>
<polyline fill="none" stroke="#ff0000" stroke-width="1" points="410,372 422,361 433,346 445,331 456,314 464,295 472,275 479,254 487,234 496,216 497,214 498,213 498,212 499,211 500,210 501,209 502,208 503,207 504,205 504,204 504,203 504,202 504,201 504,200 504,199 504,198 504,197 503,196 503,195 503,194 503,193 503,192 503,191 503,189 503,188 503,187 503,186 503,185 503,185 503,185 503,185 503,185 503,185 503,185 503,185 503,185 503,185 503,185 503,185 503,184 503,184 503,184 503,184 503,184 503,184 503,184 503,184 503,184 503,184 503,184 503,184 503,184 503,184 503,183 503,183 503,183 503,183 503,183 503,183 503,183 503,183 503,183 503,183 503,183 503,183 "/>
<polyline fill="none" stroke="#ff0000" stroke-width="1" points="563,182 564,182 564,182 564,182 564,182 564,182 564,182 565,182 565,182 565,182 565,182 565,182 566,182 566,181 566,181 566,181 566,181 569,180 571,179 574,178 577,177 579,176 582,176 584,175 586,174 589,173 591,172 594,171 596,170 598,170 601,169 603,168 605,168 607,167 610,167 612,166 614,166 616,165 618,165 620,165 622,164 624,164 627,164 629,164 631,164 633,164 636,164 638,165 640,165 643,165 645,166 648,166 648,166 648,166 645,166 643,165 640,165 638,165 636,164 633,164 631,164 629,164 627,164 624,164 622,164 620,165 618,165 616,165 614,166 612,166 610,167 607,167 605,168 603,168 601,169 598,170 596,170 594,171 591,172 589,173 586,174 584,175 582,176 579,176 577,177 574,178 571,179 569,180 566,181 566,181 566,181 566,181 566,182 565,182 565,182 565,182 565,182 565,182 564,182 564,182 564,182 564,182 564,182 564,182 563,182 "/>
<polyline fill="none" stroke="#ff0000" stroke-width="1" points="115,377 114,378 112,378 111,379 110,379 109,379 108,380 107,380 106,380 105,381 104,381 103,381 102,382 101,382 100,382 99,383 98,383 98,383 97,383 96,384 95,384 94,384 93,384 92,384 91,385 90,385 89,385 88,385 87,385 86,385 85,385 84,385 83,385 "/>
<polyline fill="none" stroke="#ff0000" stroke-width="1" points="636,385 635,385 634,385 633,385 632,385 631,385 630,385 629,385 628,385 627,384 626,384 626,384 625,384 624,383 623,383 622,383 621,383 620,382 619,382 618,382 617,381 616,381 615,381 614,380 613,380 612,380 611,379 610,379 609,379 608,378 607,378 606,377 605,377 603,377 602,376 601,376 600,375 599,375 598,375 597,374 595,374 594,373 593,373 592,373 590,372 589,372 588,371 587,371 585,371 584,370 583,370 581,369 580,369 579,368 580,369 581,369 583,370 584,370 585,371 587,371 588,371 589,372 590,372 592,373 593,373 594,373 595,374 597,374 598,375 599,375 600,375 601,376 602,376 603,377 605,377 606,377 607,378 608,378 609,379 610,379 611,379 612,380 613,380 614,380 615,381 616,381 617,381 618,382 619,382 620,382 621,383 622,383 623,383 624,383 625,384 626,384 626,384 627,384 628,385 629,385 630,385 631,385 632,385 633,385 634,385 635,385 636,385 "/>
<polyline fill="none" stroke="#ff0000" stroke-width="1" points="488,367 488,367 488,366 487,366 487,365 487,365 486,365 486,364 486,364 485,363 485,363 485,363 484,362 484,362 483,361 483,361 482,361 482,360 481,360 481,359 480,359 480,359 471,353 460,348 447,344 432,340 416,337 398,335 416,337 432,340 447,344 460,348 471,353 480,359 480,359 481,359 481,360 482,360 482,361 483,361 483,361 484,362 484,362 485,363 485,363 485,363 486,364 486,364 486,365 487,365 487,365 487,366 488,366 488,367 488,367 "/>
<polyline fill="none" stroke="#ff0000" stroke-width="1" points="91,341 89,341 87,341 85,341 83,341 82,342 80,342 78,342 76,342 74,343 72,343 72,343 "/>
<polyline fill="none" stroke="#ff0000" stroke-width="1" points="648,343 622,340 594,335 568,330 543,324 520,318 498,312 476,306 454,300 433,295 411,291 433,295 454,300 476,306 498,312 520,318 543,324 568,330 594,335 622,340 648,343 "/>
<polyline fill="none" stroke="#ff0000" stroke-width="1" points="76,298 74,299 72,299 72,299 "/>
<polyline fill="none" stroke="#ff0000" stroke-width="1" points="648,299 637,297 613,293 588,287 565,280 541,273 518,265 495,258 471,252 446,246 421,242 446,246 471,252 495,258 518,265 541,273 565,280 588,287 613,293 637,297 648,299 "/>
<polyline fill="none" stroke="#ff0000" stroke-width="1" points="648,248 627,244 606,239 584,233 562,227 540,220 516,214 491,208 464,204 437,199 "/>
<polyline fill="none" stroke="#ff0000" stroke-width="1" points="648,202 645,202 629,199 615,195 602,190 592,185 584,180 583,180 583,179 582,179 582,178 582,178 581,178 581,177 580,177 580,176 580,176 579,175 579,175 579,175 578,174 578,174 578,173 577,173 577,173 577,173 577,172 577,172 577,172 577,172 577,172 577,172 577,172 577,172 577,172 577,172 577,172 577,172 577,172 "/>
<polyline fill="none" stroke="#ff0000" stroke-width="1" points="489,172 488,172 488,172 488,172 488,172 488,172 488,172 488,172 488,172 488,172 488,172 487,172 487,172 487,172 487,172 487,172 487,172 487,172 487,172 487,171 487,171 486,171 486,171 486,171 486,171 486,171 486,171 485,171 483,170 482,170 481,170 479,169 478,169 477,168 476,168 474,167 473,167 472,167 471,166 469,166 468,165 467,165 466,165 465,164 464,164 462,163 461,163 460,163 461,163 462,163 464,164 465,164 466,165 467,165 468,165 469,166 471,166 472,167 473,167 474,167 476,168 477,168 478,169 479,169 481,170 482,170 483,170 485,171 486,171 486,171 486,171 486,171 486,171 486,171 487,171 487,171 487,172 487,172 487,172 487,172 487,172 487,172 487,172 487,172 488,172 488,172 488,172 488,172 488,172 488,172 488,172 488,172 488,172 488,172 489,172 "/>
<polyline fill="none" stroke="#ff0000" stroke-width="1" points="636,297 637,295 "/>
<polyline fill="none" stroke="#ff0000" stroke-width="1" points="626,295 627,293 626,295 "/>
<polyline fill="none" stroke="#ff0000" stroke-width="1" points="617,293 617,291 617,293 "/>
<polyline fill="none" stroke="#ff0000" stroke-width="1" points="607,291 608,289 607,291 "/>
<polyline fill="none" stroke="#ff0000" stroke-width="1" points="598,289 598,287 598,289 "/>
<polyline fill="none" stroke="#ff0000" stroke-width="1" points="579,284 580,282 579,284 "/>
<polyline fill="none" stroke="#ff0000" stroke-width="1" points="570,281 571,280 570,281 "/>
<polyline fill="none" stroke="#ff0000" stroke-width="1" points="561,279 562,277 561,279 "/>
<polyline fill="none" stroke="#ff0000" stroke-width="1" points="552,276 552,274 552,276 "/>
<polyline fill="none" stroke="#ff0000" stroke-width="1" points="543,273 543,271 543,273 "/>
<polyline fill="none" stroke="#ff0000" stroke-width="1" points="525,267 525,265 525,267 "/>
<polyline fill="none" stroke="#ff0000" stroke-width="1" points="515,265 516,263 515,265 "/>
<polyline fill="none" stroke="#ff0000" stroke-width="1" points="506,262 507,260 506,262 "/>
<polyline fill="none" stroke="#ff0000" stroke-width="1" points="497,259 498,257 497,259 "/>
<polyline fill="none" stroke="#ff0000" stroke-width="1" points="488,256 489,254 488,256 "/>
<polyline fill="none" stroke="#ff0000" stroke-width="1" points="470,251 470,249 470,251 "/>
<polyline fill="none" stroke="#ff0000" stroke-width="1" points="460,249 461,247 460,249 "/>
<polyline fill="none" stroke="#ff0000" stroke-width="1" points="451,247 451,245 451,247 "/>
<polyline fill="none" stroke="#ff0000" stroke-width="1" points="441,245 442,243 441,245 "/>
<polyline fill="none" stroke="#ff0000" stroke-width="1" points="431,243 432,241 431,243 "/>
<polyline fill="none" stroke="#ff0000" stroke-width="1" points="421,372 423,373 "/>
<polyline fill="none" stroke="#ff0000" stroke-width="1" points="431,369 433,371 431,369 "/>
<polyline fill="none" stroke="#ff0000" stroke-width="1" points="440,366 442,367 440,366 "/>
<polyline fill="none" stroke="#ff0000" stroke-width="1" points="449,362 451,363 449,362 "/>
<polyline fill="none" stroke="#ff0000" stroke-width="1" points="458,357 460,358 458,357 "/>
<polyline fill="none" stroke="#ff0000" stroke-width="1" points="477,346 480,347 477,346 "/>
<polyline fill="none" stroke="#ff0000" stroke-width="1" points="487,340 490,341 487,340 "/>
<polyline fill="none" stroke="#ff0000" stroke-width="1" points="498,335 500,336 498,335 "/>
<polyline fill="none" stroke="#ff0000" stroke-width="1" points="503,329 506,330 503,329 "/>
<polyline fill="none" stroke="#ff0000" stroke-width="1" points="508,323 510,323 508,323 "/>
<polyline fill="none" stroke="#ff0000" stroke-width="1" points="516,309 519,310 516,309 "/>
<polyline fill="none" stroke="#ff0000" stroke-width="1" points="520,302 523,302 520,302 "/>
<polyline fill="none" stroke="#ff0000" stroke-width="1" points="524,294 526,295 524,294 "/>
<polyline fill="none" stroke="#ff0000" stroke-width="1" points="527,286 530,287 527,286 "/>
<polyline fill="none" stroke="#ff0000" stroke-width="1" points="530,278 533,279 530,278 "/>
<polyline fill="none" stroke="#ff0000" stroke-width="1" points="537,262 539,263 537,262 "/>
<polyline fill="none" stroke="#ff0000" stroke-width="1" points="540,254 543,255 540,254 "/>
<polyline fill="none" stroke="#ff0000" stroke-width="1" points="544,247 546,247 544,247 "/>
<polyline fill="none" stroke="#ff0000" stroke-width="1" points="547,239 550,240 547,239 "/>
<polyline fill="none" stroke="#ff0000" stroke-width="1" points="551,232 553,232 551,232 "/>
<polyline fill="none" stroke="#ff0000" stroke-width="1" points="559,218 562,218 559,218 "/>
<polyline fill="none" stroke="#ff0000" stroke-width="1" points="564,211 566,212 564,211 "/>
<polyline fill="none" stroke="#ff0000" stroke-width="1" points="569,205 572,206 569,205 "/>
<polyline fill="none" stroke="#ff0000" stroke-width="1" points="579,200 582,201 579,200 "/>
<polyline fill="none" stroke="#ff0000" stroke-width="1" points="589,194 591,195 589,194 "/>
<polyline fill="none" stroke="#ff0000" stroke-width="1" points="608,184 610,185 608,184 "/>
<polyline fill="none" stroke="#ff0000" stroke-width="1" points="617,179 619,180 617,179 "/>
<polyline fill="none" stroke="#ff0000" stroke-width="1" points="626,174 628,176 626,174 "/>
<polyline fill="none" stroke="#ff0000" stroke-width="1" points="635,171 637,172 635,171 "/>
<polyline fill="none" stroke="#ff0000" stroke-width="1" points="645,168 646,170 645,168 "/>
<polyline fill="none" stroke="#ff0000" stroke-width="1" points="421,242 417,241 413,241 409,240 404,240 400,239 396,239 391,238 387,238 383,238 378,238 374,237 370,237 365,237 361,237 "/>
<polyline fill="none" stroke="#ff0000" stroke-width="1" points="76,298 72,299 "/>
<polyline fill="none" stroke="#ff0000" stroke-width="1" points="648,299 646,299 "/>
<polyline fill="none" stroke="#ff0000" stroke-width="1" points="646,299 642,298 637,297 633,297 629,296 625,295 621,294 617,293 613,293 609,292 604,291 600,290 596,289 592,288 588,287 "/>
<polyline fill="none" stroke="#ff0000" stroke-width="1" points="588,287 584,286 580,284 576,283 573,282 569,281 565,280 561,279 557,278 553,276 549,275 545,274 541,273 537,271 534,270 "/>
<polyline fill="none" stroke="#ff0000" stroke-width="1" points="534,270 530,269 526,268 522,267 518,265 514,264 510,263 506,262 503,261 499,259 495,258 491,257 487,256 483,255 479,254 "/>
<polyline fill="none" stroke="#ff0000" stroke-width="1" points="479,254 475,253 471,252 467,251 463,250 459,249 455,248 451,247 446,246 442,245 438,244 434,244 430,243 426,242 421,242 "/>
<polyline fill="none" stroke="#ff0000" stroke-width="1" points="479,254 475,253 471,252 467,251 463,250 459,249 455,248 451,247 446,246 442,245 438,244 434,244 430,243 426,242 421,242 "/>
<polyline fill="none" stroke="#ff0000" stroke-width="1" points="410,372 415,372 420,372 424,371 428,370 432,369 436,367 440,366 444,364 448,362 452,360 456,358 460,356 464,354 468,351 "/>
<polyline fill="none" stroke="#ff0000" stroke-width="1" points="468,351 472,349 476,347 480,344 485,342 489,340 493,337 498,335 500,332 502,330 505,327 507,325 509,322 511,319 512,316 "/>
<polyline fill="none" stroke="#ff0000" stroke-width="1" points="512,316 514,313 516,310 517,307 519,304 521,300 522,297 524,294 525,291 527,287 528,284 529,280 531,277 532,274 534,270 "/>
<polyline fill="none" stroke="#ff0000" stroke-width="1" points="534,270 535,267 536,263 538,260 539,257 541,253 542,250 544,247 545,243 547,240 548,237 550,234 551,231 553,227 555,224 "/>
<polyline fill="none" stroke="#ff0000" stroke-width="1" points="555,224 557,222 558,219 560,216 562,213 565,211 567,208 569,205 573,203 578,201 582,198 586,196 590,194 595,191 599,189 "/>
<polyline fill="none" stroke="#ff0000" stroke-width="1" points="599,189 603,187 607,184 611,182 614,180 618,178 622,176 626,174 630,173 634,171 638,170 642,169 646,168 648,168 "/>
<text x="421" y="244" font-family="sans-serif" font-size="14" fill="#ff0000" text-anchor="middle" dominant-baseline="hanging" transform="rotate(-15,421,244)">180</text>
<text x="77" y="301" font-family="sans-serif" font-size="14" fill="#ff0000" text-anchor="middle" dominant-baseline="hanging" transform="rotate(10,77,301)">0</text>
<text x="645" y="301" font-family="sans-serif" font-size="14" fill="#ff0000" text-anchor="middle" dominant-baseline="hanging" transform="rotate(-10,645,301)">60</text>
<text x="587" y="289" font-family="sans-serif" font-size="14" fill="#ff0000" text-anchor="middle" dominant-baseline="hanging" transform="rotate(-20,587,289)">90</text>
<text x="532" y="273" font-family="sans-serif" font-size="14" fill="#ff0000" text-anchor="middle" dominant-baseline="hanging" transform="rotate(-25,532,273)">120</text>
<text x="478" y="256" font-family="sans-serif" font-size="14" fill="#ff0000" text-anchor="middle" dominant-baseline="hanging" transform="rotate(-20,478,256)">150</text>
<text x="410" y="369" font-family="sans-serif" font-size="14" fill="#ff0000" text-anchor="middle" dominant-baseline="alphabetic" transform="rotate(0,410,369)">-90</text>
<text x="465" y="349" font-family="sans-serif" font-size="14" fill="#ff0000" text-anchor="middle" dominant-baseline="alphabetic" transform="rotate(35,465,349)">-60</text>
<text x="509" y="315" font-family="sans-serif" font-size="14" fill="#ff0000" text-anchor="middle" dominant-baseline="alphabetic" transform="rotate(65,509,315)">-30</text>
<text x="551" y="223" font-family="sans-serif" font-size="14" fill="#ff0000" text-anchor="middle" dominant-baseline="alphabetic" transform="rotate(65,551,223)">30</text>
<text x="596" y="187" font-family="sans-serif" font-size="14" fill="#ff0000" text-anchor="middle" dominant-baseline="alphabetic" transform="rotate(35,596,187)">60</text>
<text x="360" y="137" font-family="sans-serif" font-size="14" fill="#ff0000" text-anchor="middle" dominant-baseline="alphabetic">A FITS test</text>
</svg>
