<?xml version="1.0" encoding="UTF-8"?>
<svg xmlns="http://www.w3.org/2000/svg" width="720" height="540" viewBox="0 0 720 540">
<rect width="100%" height="100%" fill="black"/>
<polyline fill="none" stroke="#ff0000" stroke-width="1" points="72,486 72,445 72,399 72,352 72,306 72,260 72,213 72,167 72,121 72,75 72,54 "/>
<polyline fill="none" stroke="#ff0000" stroke-width="1" points="216,486 216,445 216,399 216,352 216,306 216,260 216,213 216,167 216,121 216,75 216,54 "/>
<polyline fill="none" stroke="#ff0000" stroke-width="1" points="360,486 360,445 360,399 360,352 360,306 360,260 360,213 360,167 360,121 360,75 360,54 "/>
<polyline fill="none" stroke="#ff0000" stroke-width="1" points="504,486 504,445 504,399 504,352 504,306 504,260 504,213 504,167 504,121 504,75 504,54 "/>
<polyline fill="none" stroke="#ff0000" stroke-width="1" points="648,486 648,445 648,399 648,352 648,306 648,260 648,213 648,167 648,121 648,75 648,54 "/>
<polyline fill="none" stroke="#ff0000" stroke-width="1" points="72,414 103,414 195,414 288,414 381,414 473,414 566,414 648,414 "/>
<polyline fill="none" stroke="#ff0000" stroke-width="1" points="72,342 103,342 195,342 288,342 381,342 473,342 566,342 648,342 "/>
<polyline fill="none" stroke="#ff0000" stroke-width="1" points="72,270 103,270 195,270 288,270 381,270 473,270 566,270 648,270 "/>
<polyline fill="none" stroke="#ff0000" stroke-width="1" points="72,198 103,198 195,198 288,198 381,198 473,198 566,198 648,198 "/>
<polyline fill="none" stroke="#ff0000" stroke-width="1" points="72,126 103,126 195,126 288,126 381,126 473,126 566,126 648,126 "/>
<polyline fill="none" stroke="#ff0000" stroke-width="1" points="96,270 96,273 "/>
<polyline fill="none" stroke="#ff0000" stroke-width="1" points="120,270 120,273 120,270 "/>
<polyline fill="none" stroke="#ff0000" stroke-width="1" points="144,270 144,273 144,270 "/>
<polyline fill="none" stroke="#ff0000" stroke-width="1" points="168,270 168,273 168,270 "/>
<polyline fill="none" stroke="#ff0000" stroke-width="1" points="192,270 192,273 192,270 "/>
<polyline fill="none" stroke="#ff0000" stroke-width="1" points="240,270 240,273 240,270 "/>
<polyline fill="none" stroke="#ff0000" stroke-width="1" points="264,270 264,273 264,270 "/>
<polyline fill="none" stroke="#ff0000" stroke-width="1" points="288,270 288,273 288,270 "/>
<polyline fill="none" stroke="#ff0000" stroke-width="1" points="312,270 312,273 312,270 "/>
<polyline fill="none" stroke="#ff0000" stroke-width="1" points="336,270 336,273 336,270 "/>
<polyline fill="none" stroke="#ff0000" stroke-width="1" points="384,270 384,273 384,270 "/>
<polyline fill="none" stroke="#ff0000" stroke-width="1" points="408,270 408,273 408,270 "/>
<polyline fill="none" stroke="#ff0000" stroke-width="1" points="432,270 432,273 432,270 "/>
<polyline fill="none" stroke="#ff0000" stroke-width="1" points="456,270 456,273 456,270 "/>
<polyline fill="none" stroke="#ff0000" stroke-width="1" points="480,270 480,273 480,270 "/>
<polyline fill="none" stroke="#ff0000" stroke-width="1" points="528,270 528,273 528,270 "/>
<polyline fill="none" stroke="#ff0000" stroke-width="1" points="552,270 552,273 552,270 "/>
<polyline fill="none" stroke="#ff0000" stroke-width="1" points="576,270 576,273 576,270 "/>
<polyline fill="none" stroke="#ff0000" stroke-width="1" points="600,270 600,273 600,270 "/>
<polyline fill="none" stroke="#ff0000" stroke-width="1" points="624,270 624,273 624,270 "/>
<polyline fill="none" stroke="#ff0000" stroke-width="1" points="360,472 364,472 "/>
<polyline fill="none" stroke="#ff0000" stroke-width="1" points="360,457 364,457 360,457 "/>
<polyline fill="none" stroke="#ff0000" stroke-width="1" points="360,443 364,443 360,443 "/>
<polyline fill="none" stroke="#ff0000" stroke-width="1" points="360,428 364,428 360,428 "/>
<polyline fill="none" stroke="#ff0000" stroke-width="1" points="360,400 364,400 360,400 "/>
<polyline fill="none" stroke="#ff0000" stroke-width="1" points="360,385 364,385 360,385 "/>
<polyline fill="none" stroke="#ff0000" stroke-width="1" points="360,371 364,371 360,371 "/>
<polyline fill="none" stroke="#ff0000" stroke-width="1" points="360,356 364,356 360,356 "/>
<polyline fill="none" stroke="#ff0000" stroke-width="1" points="360,328 364,328 360,328 "/>
<polyline fill="none" stroke="#ff0000" stroke-width="1" points="360,313 364,313 360,313 "/>
<polyline fill="none" stroke="#ff0000" stroke-width="1" points="360,299 364,299 360,299 "/>
<polyline fill="none" stroke="#ff0000" stroke-width="1" points="360,284 364,284 360,284 "/>
<polyline fill="none" stroke="#ff0000" stroke-width="1" points="360,256 364,256 360,256 "/>
<polyline fill="none" stroke="#ff0000" stroke-width="1" points="360,241 364,241 360,241 "/>
<polyline fill="none" stroke="#ff0000" stroke-width="1" points="360,227 364,227 360,227 "/>
<polyline fill="none" stroke="#ff0000" stroke-width="1" points="360,212 364,212 360,212 "/>
<polyline fill="none" stroke="#ff0000" stroke-width="1" points="360,184 364,184 360,184 "/>
<polyline fill="none" stroke="#ff0000" stroke-width="1" points="360,169 364,169 360,169 "/>
<polyline fill="none" stroke="#ff0000" stroke-width="1" points="360,155 364,155 360,155 "/>
<polyline fill="none" stroke="#ff0000" stroke-width="1" points="360,140 364,140 360,140 "/>
<polyline fill="none" stroke="#ff0000" stroke-width="1" points="360,112 364,112 360,112 "/>
<polyline fill="none" stroke="#ff0000" stroke-width="1" points="360,97 364,97 360,97 "/>
<polyline fill="none" stroke="#ff0000" stroke-width="1" points="360,83 364,83 360,83 "/>
<polyline fill="none" stroke="#ff0000" stroke-width="1" points="360,68 364,68 360,68 "/>
<polyline fill="none" stroke="#ff0000" stroke-width="1" points="72,270 82,270 93,270 103,270 113,270 123,270 134,270 144,270 154,270 165,270 175,270 185,270 195,270 206,270 216,270 "/>
<polyline fill="none" stroke="#ff0000" stroke-width="1" points="216,270 226,270 237,270 247,270 257,270 267,270 278,270 288,270 298,270 309,270 319,270 329,270 339,270 350,270 360,270 "/>
<polyline fill="none" stroke="#ff0000" stroke-width="1" points="360,270 370,270 381,270 391,270 401,270 411,270 422,270 432,270 442,270 453,270 463,270 473,270 483,270 494,270 504,270 "/>
<polyline fill="none" stroke="#ff0000" stroke-width="1" points="504,270 514,270 525,270 535,270 545,270 555,270 566,270 576,270 586,270 597,270 607,270 617,270 627,270 638,270 648,270 "/>
<polyline fill="none" stroke="#ff0000" stroke-width="1" points="648,270 648,270 "/>
<polyline fill="none" stroke="#ff0000" stroke-width="1" points="360,486 360,481 360,476 360,471 360,465 360,460 360,455 360,450 360,445 360,440 360,435 360,429 360,424 360,419 360,414 "/>
<polyline fill="none" stroke="#ff0000" stroke-width="1" points="360,414 360,409 360,404 360,399 360,393 360,388 360,383 360,378 360,373 360,368 360,363 360,357 360,352 360,347 360,342 "/>
<polyline fill="none" stroke="#ff0000" stroke-width="1" points="360,342 360,337 360,332 360,327 360,321 360,316 360,311 360,306 360,301 360,296 360,291 360,285 360,280 360,275 360,270 "/>
<polyline fill="none" stroke="#ff0000" stroke-width="1" points="360,270 360,265 360,260 360,255 360,249 360,244 360,239 360,234 360,229 360,224 360,219 360,213 360,208 360,203 360,198 "/>
<polyline fill="none" stroke="#ff0000" stroke-width="1" points="360,198 360,193 360,188 360,183 360,177 360,172 360,167 360,162 360,157 360,152 360,147 360,141 360,136 360,131 360,126 "/>
<polyline fill="none" stroke="#ff0000" stroke-width="1" points="360,126 360,121 360,116 360,111 360,105 360,100 360,95 360,90 360,85 360,80 360,75 360,69 360,64 360,59 360,54 "/>
<polyline fill="none" stroke="#ff0000" stroke-width="1" points="360,54 360,54 "/>
<polyline fill="none" stroke="#ff0000" stroke-width="1" points="360,54 360,54 "/>
<text x="72" y="266" font-family="sans-serif" font-size="14" fill="#ff0000" text-anchor="middle" dominant-baseline="alphabetic">23:59:00</text>
<text x="216" y="266" font-family="sans-serif" font-size="14" fill="#ff0000" text-anchor="middle" dominant-baseline="alphabetic">30</text>
<text x="360" y="266" font-family="sans-serif" font-size="14" fill="#ff0000" text-anchor="middle" dominant-baseline="alphabetic">0:00:00</text>
<text x="504" y="266" font-family="sans-serif" font-size="14" fill="#ff0000" text-anchor="middle" dominant-baseline="alphabetic">30</text>
<text x="648" y="266" font-family="sans-serif" font-size="14" fill="#ff0000" text-anchor="middle" dominant-baseline="alphabetic">01:00</text>
<text x="354" y="486" font-family="sans-serif" font-size="14" fill="#ff0000" text-anchor="middle" dominant-baseline="alphabetic" transform="rotate(90,354,486)">15</text>
<text x="354" y="414" font-family="sans-serif" font-size="14" fill="#ff0000" text-anchor="middle" dominant-baseline="alphabetic" transform="rotate(90,354,414)">-0:10</text>
<text x="354" y="342" font-family="sans-serif" font-size="14" fill="#ff0000" text-anchor="middle" dominant-baseline="alphabetic" transform="rotate(90,354,342)">05</text>
<text x="354" y="198" font-family="sans-serif" font-size="14" fill="#ff0000" text-anchor="middle" dominant-baseline="alphabetic" transform="rotate(90,354,198)">05</text>
<text x="354" y="126" font-family="sans-serif" font-size="14" fill="#ff0000" text-anchor="middle" dominant-baseline="alphabetic" transform="rotate(90,354,126)">10</text>
<text x="354" y="54" font-family="sans-serif" font-size="14" fill="#ff0000" text-anchor="middle" dominant-baseline="alphabetic" transform="rotate(90,354,54)">15</text>
<text x="360" y="23" font-family="sans-serif" font-size="14" fill="#ff0000" text-anchor="middle" dominant-baseline="alphabetic">A FITS test</text>
</svg>
