<?xml version="1.0" encoding="UTF-8"?>
<svg xmlns="http://www.w3.org/2000/svg" width="720" height="540" viewBox="0 0 720 540">
<rect width="100%" height="100%" fill="black"/>
<polyline fill="none" stroke="#ff0000" stroke-width="1" points="72,260 73,263 "/>
<polyline fill="none" stroke="#ff0000" stroke-width="1" points="72,170 73,167 72,170 "/>
<polyline fill="none" stroke="#ff0000" stroke-width="1" points="72,282 73,285 72,282 "/>
<polyline fill="none" stroke="#ff0000" stroke-width="1" points="72,149 73,146 72,149 "/>
<polyline fill="none" stroke="#ff0000" stroke-width="1" points="72,325 76,331 72,325 "/>
<polyline fill="none" stroke="#ff0000" stroke-width="1" points="72,105 76,100 72,105 "/>
<polyline fill="none" stroke="#ff0000" stroke-width="1" points="72,298 74,301 72,298 "/>
<polyline fill="none" stroke="#ff0000" stroke-width="1" points="72,132 73,129 72,132 "/>
<polyline fill="none" stroke="#ff0000" stroke-width="1" points="72,312 74,315 72,312 "/>
<polyline fill="none" stroke="#ff0000" stroke-width="1" points="72,118 73,115 72,118 "/>
<polyline fill="none" stroke="#ff0000" stroke-width="1" points="72,336 74,339 72,336 "/>
<polyline fill="none" stroke="#ff0000" stroke-width="1" points="72,94 74,91 72,94 "/>
<polyline fill="none" stroke="#ff0000" stroke-width="1" points="72,347 74,350 72,347 "/>
<polyline fill="none" stroke="#ff0000" stroke-width="1" points="72,83 74,81 72,83 "/>
<polyline fill="none" stroke="#ff0000" stroke-width="1" points="72,376 77,381 72,376 "/>
<polyline fill="none" stroke="#ff0000" stroke-width="1" points="72,54 72,54 72,54 "/>
<polyline fill="none" stroke="#ff0000" stroke-width="1" points="72,357 74,360 72,357 "/>
<polyline fill="none" stroke="#ff0000" stroke-width="1" points="72,73 74,71 72,73 "/>
<polyline fill="none" stroke="#ff0000" stroke-width="1" points="72,367 74,369 72,367 "/>
<polyline fill="none" stroke="#ff0000" stroke-width="1" points="72,64 74,61 72,64 "/>
<polyline fill="none" stroke="#ff0000" stroke-width="1" points="72,385 75,387 72,385 "/>
<polyline fill="none" stroke="#ff0000" stroke-width="1" points="72,394 75,396 72,394 "/>
<polyline fill="none" stroke="#ff0000" stroke-width="1" points="72,418 78,423 72,418 "/>
<polyline fill="none" stroke="#ff0000" stroke-width="1" points="72,402 75,404 72,402 "/>
<polyline fill="none" stroke="#ff0000" stroke-width="1" points="72,410 75,412 72,410 "/>
<polyline fill="none" stroke="#ff0000" stroke-width="1" points="72,426 75,428 72,426 "/>
<polyline fill="none" stroke="#ff0000" stroke-width="1" points="72,434 75,436 72,434 "/>
<polyline fill="none" stroke="#ff0000" stroke-width="1" points="72,456 79,460 72,456 "/>
<polyline fill="none" stroke="#ff0000" stroke-width="1" points="72,441 75,443 72,441 "/>
<polyline fill="none" stroke="#ff0000" stroke-width="1" points="72,449 75,451 72,449 "/>
<polyline fill="none" stroke="#ff0000" stroke-width="1" points="72,463 75,465 72,463 "/>
<polyline fill="none" stroke="#ff0000" stroke-width="1" points="72,470 75,472 72,470 "/>
<polyline fill="none" stroke="#ff0000" stroke-width="1" points="72,477 75,479 72,477 "/>
<polyline fill="none" stroke="#ff0000" stroke-width="1" points="72,484 75,486 72,484 "/>
<polyline fill="none" stroke="#ff0000" stroke-width="1" points="196,486 199,480 "/>
<polyline fill="none" stroke="#ff0000" stroke-width="1" points="98,486 101,484 98,486 "/>
<polyline fill="none" stroke="#ff0000" stroke-width="1" points="150,486 152,483 150,486 "/>
<polyline fill="none" stroke="#ff0000" stroke-width="1" points="238,486 239,483 238,486 "/>
<polyline fill="none" stroke="#ff0000" stroke-width="1" points="277,486 278,483 277,486 "/>
<polyline fill="none" stroke="#ff0000" stroke-width="1" points="387,486 386,480 387,486 "/>
<polyline fill="none" stroke="#ff0000" stroke-width="1" points="314,486 315,483 314,486 "/>
<polyline fill="none" stroke="#ff0000" stroke-width="1" points="351,486 351,483 351,486 "/>
<polyline fill="none" stroke="#ff0000" stroke-width="1" points="423,486 423,483 423,486 "/>
<polyline fill="none" stroke="#ff0000" stroke-width="1" points="461,486 460,483 461,486 "/>
<polyline fill="none" stroke="#ff0000" stroke-width="1" points="593,486 588,481 593,486 "/>
<polyline fill="none" stroke="#ff0000" stroke-width="1" points="501,486 500,483 501,486 "/>
<polyline fill="none" stroke="#ff0000" stroke-width="1" points="545,486 543,483 545,486 "/>
<polyline fill="none" stroke="#ff0000" stroke-width="1" points="648,486 645,484 648,486 "/>
<polyline fill="none" stroke="#ff0000" stroke-width="1" points="648,234 648,240 "/>
<polyline fill="none" stroke="#ff0000" stroke-width="1" points="648,197 647,190 648,197 "/>
<polyline fill="none" stroke="#ff0000" stroke-width="1" points="648,267 647,270 648,267 "/>
<polyline fill="none" stroke="#ff0000" stroke-width="1" points="648,163 647,160 648,163 "/>
<polyline fill="none" stroke="#ff0000" stroke-width="1" points="648,287 647,290 648,287 "/>
<polyline fill="none" stroke="#ff0000" stroke-width="1" points="648,144 647,141 648,144 "/>
<polyline fill="none" stroke="#ff0000" stroke-width="1" points="648,328 644,334 648,328 "/>
<polyline fill="none" stroke="#ff0000" stroke-width="1" points="648,102 644,97 648,102 "/>
<polyline fill="none" stroke="#ff0000" stroke-width="1" points="648,302 647,305 648,302 "/>
<polyline fill="none" stroke="#ff0000" stroke-width="1" points="648,128 646,125 648,128 "/>
<polyline fill="none" stroke="#ff0000" stroke-width="1" points="648,316 646,319 648,316 "/>
<polyline fill="none" stroke="#ff0000" stroke-width="1" points="648,114 646,112 648,114 "/>
<polyline fill="none" stroke="#ff0000" stroke-width="1" points="648,339 646,342 648,339 "/>
<polyline fill="none" stroke="#ff0000" stroke-width="1" points="648,91 646,89 648,91 "/>
<polyline fill="none" stroke="#ff0000" stroke-width="1" points="648,350 646,352 648,350 "/>
<polyline fill="none" stroke="#ff0000" stroke-width="1" points="648,81 646,78 648,81 "/>
<polyline fill="none" stroke="#ff0000" stroke-width="1" points="648,378 643,384 648,378 "/>
<polyline fill="none" stroke="#ff0000" stroke-width="1" points="648,360 646,362 648,360 "/>
<polyline fill="none" stroke="#ff0000" stroke-width="1" points="648,71 646,68 648,71 "/>
<polyline fill="none" stroke="#ff0000" stroke-width="1" points="648,369 646,372 648,369 "/>
<polyline fill="none" stroke="#ff0000" stroke-width="1" points="648,61 645,59 648,61 "/>
<polyline fill="none" stroke="#ff0000" stroke-width="1" points="648,387 646,390 648,387 "/>
<polyline fill="none" stroke="#ff0000" stroke-width="1" points="648,396 646,398 648,396 "/>
<polyline fill="none" stroke="#ff0000" stroke-width="1" points="648,420 642,425 648,420 "/>
<polyline fill="none" stroke="#ff0000" stroke-width="1" points="648,404 645,406 648,404 "/>
<polyline fill="none" stroke="#ff0000" stroke-width="1" points="648,412 645,414 648,412 "/>
<polyline fill="none" stroke="#ff0000" stroke-width="1" points="648,428 645,430 648,428 "/>
<polyline fill="none" stroke="#ff0000" stroke-width="1" points="648,435 645,437 648,435 "/>
<polyline fill="none" stroke="#ff0000" stroke-width="1" points="648,457 642,462 648,457 "/>
<polyline fill="none" stroke="#ff0000" stroke-width="1" points="648,443 645,445 648,443 "/>
<polyline fill="none" stroke="#ff0000" stroke-width="1" points="648,450 645,452 648,450 "/>
<polyline fill="none" stroke="#ff0000" stroke-width="1" points="648,465 645,467 648,465 "/>
<polyline fill="none" stroke="#ff0000" stroke-width="1" points="648,472 645,474 648,472 "/>
<polyline fill="none" stroke="#ff0000" stroke-width="1" points="648,479 645,481 648,479 "/>
<polyline fill="none" stroke="#ff0000" stroke-width="1" points="648,486 647,486 648,486 "/>
<polyline fill="none" stroke="#ff0000" stroke-width="1" points="616,54 613,56 "/>
<polyline fill="none" stroke="#ff0000" stroke-width="1" points="499,54 494,59 499,54 "/>
<polyline fill="none" stroke="#ff0000" stroke-width="1" points="570,54 567,56 570,54 "/>
<polyline fill="none" stroke="#ff0000" stroke-width="1" points="532,54 529,56 532,54 "/>
<polyline fill="none" stroke="#ff0000" stroke-width="1" points="470,54 469,57 470,54 "/>
<polyline fill="none" stroke="#ff0000" stroke-width="1" points="445,54 443,57 445,54 "/>
<polyline fill="none" stroke="#ff0000" stroke-width="1" points="376,54 376,60 376,54 "/>
<polyline fill="none" stroke="#ff0000" stroke-width="1" points="421,54 420,57 421,54 "/>
<polyline fill="none" stroke="#ff0000" stroke-width="1" points="398,54 397,57 398,54 "/>
<polyline fill="none" stroke="#ff0000" stroke-width="1" points="355,54 355,57 355,54 "/>
<polyline fill="none" stroke="#ff0000" stroke-width="1" points="333,54 334,57 333,54 "/>
<polyline fill="none" stroke="#ff0000" stroke-width="1" points="263,54 266,60 263,54 "/>
<polyline fill="none" stroke="#ff0000" stroke-width="1" points="311,54 312,57 311,54 "/>
<polyline fill="none" stroke="#ff0000" stroke-width="1" points="288,54 289,57 288,54 "/>
<polyline fill="none" stroke="#ff0000" stroke-width="1" points="235,54 237,57 235,54 "/>
<polyline fill="none" stroke="#ff0000" stroke-width="1" points="205,54 207,56 205,54 "/>
<polyline fill="none" stroke="#ff0000" stroke-width="1" points="73,54 80,58 73,54 "/>
<polyline fill="none" stroke="#ff0000" stroke-width="1" points="169,54 172,56 169,54 "/>
<polyline fill="none" stroke="#ff0000" stroke-width="1" points="126,54 129,56 126,54 "/>
<polyline fill="none" stroke="#ff0000" stroke-width="1" points="72,486 113,486 154,486 195,486 237,486 278,486 319,486 360,486 401,486 442,486 483,486 525,486 566,486 607,486 648,486 648,455 648,424 648,393 648,363 648,332 648,301 648,270 648,239 648,208 648,177 648,147 648,116 648,85 648,54 607,54 566,54 525,54 483,54 442,54 401,54 360,54 319,54 278,54 237,54 195,54 154,54 113,54 72,54 72,85 72,116 72,147 72,177 72,208 72,239 72,270 72,301 72,332 72,363 72,393 72,424 72,455 72,486 "/>
<text x="66" y="456" font-family="sans-serif" font-size="14" fill="#ff0000" text-anchor="end" dominant-baseline="central">600.0</text>
<text x="66" y="418" font-family="sans-serif" font-size="14" fill="#ff0000" text-anchor="end" dominant-baseline="central">550.0</text>
<text x="66" y="376" font-family="sans-serif" font-size="14" fill="#ff0000" text-anchor="end" dominant-baseline="central">500.0</text>
<text x="66" y="325" font-family="sans-serif" font-size="14" fill="#ff0000" text-anchor="end" dominant-baseline="central">450.0</text>
<text x="66" y="106" font-family="sans-serif" font-size="14" fill="#ff0000" text-anchor="end" dominant-baseline="central">450.0</text>
<text x="66" y="54" font-family="sans-serif" font-size="14" fill="#ff0000" text-anchor="end" dominant-baseline="central">500.0</text>
<text x="196" y="490" font-family="sans-serif" font-size="14" fill="#ff0000" text-anchor="middle" dominant-baseline="hanging">-2.0</text>
<text x="387" y="490" font-family="sans-serif" font-size="14" fill="#ff0000" text-anchor="middle" dominant-baseline="hanging">-1.5</text>
<text x="593" y="490" font-family="sans-serif" font-size="14" fill="#ff0000" text-anchor="middle" dominant-baseline="hanging">-1.0</text>
<text x="12" y="270" font-family="sans-serif" font-size="14" fill="#ff0000" text-anchor="middle" dominant-baseline="alphabetic" transform="rotate(90,12,270)">Pixel coordinate 1 (pixel)</text>
<text x="360" y="508" font-family="sans-serif" font-size="14" fill="#ff0000" text-anchor="middle" dominant-baseline="hanging">Pixel coordinate 2 (pixel)</text>
<text x="360" y="25" font-family="sans-serif" font-size="14" fill="#ff0000" text-anchor="middle" dominant-baseline="alphabetic">A FITS test</text>
</svg>
