<?xml version="1.0" encoding="UTF-8"?>
<svg xmlns="http://www.w3.org/2000/svg" width="720" height="540" viewBox="0 0 720 540">
<rect width="100%" height="100%" fill="black"/>
<polyline fill="none" stroke="#ff0000" stroke-width="1" points="606,451 609,452 "/>
<polyline fill="none" stroke="#ff0000" stroke-width="1" points="614,432 618,433 614,432 "/>
<polyline fill="none" stroke="#ff0000" stroke-width="1" points="619,412 623,413 619,412 "/>
<polyline fill="none" stroke="#ff0000" stroke-width="1" points="621,392 629,392 621,392 "/>
<polyline fill="none" stroke="#ff0000" stroke-width="1" points="619,372 623,372 619,372 "/>
<polyline fill="none" stroke="#ff0000" stroke-width="1" points="614,352 617,351 614,352 "/>
<polyline fill="none" stroke="#ff0000" stroke-width="1" points="605,333 608,332 605,333 "/>
<polyline fill="none" stroke="#ff0000" stroke-width="1" points="593,315 599,312 593,315 "/>
<polyline fill="none" stroke="#ff0000" stroke-width="1" points="578,298 581,297 578,298 "/>
<polyline fill="none" stroke="#ff0000" stroke-width="1" points="560,283 562,281 560,283 "/>
<polyline fill="none" stroke="#ff0000" stroke-width="1" points="540,270 542,268 540,270 "/>
<polyline fill="none" stroke="#ff0000" stroke-width="1" points="517,259 521,254 517,259 "/>
<polyline fill="none" stroke="#ff0000" stroke-width="1" points="493,250 494,248 493,250 "/>
<polyline fill="none" stroke="#ff0000" stroke-width="1" points="467,244 468,241 467,244 "/>
<polyline fill="none" stroke="#ff0000" stroke-width="1" points="441,240 441,237 441,240 "/>
<polyline fill="none" stroke="#ff0000" stroke-width="1" points="414,239 414,233 414,239 "/>
<polyline fill="none" stroke="#ff0000" stroke-width="1" points="387,240 387,237 387,240 "/>
<polyline fill="none" stroke="#ff0000" stroke-width="1" points="361,244 360,241 361,244 "/>
<polyline fill="none" stroke="#ff0000" stroke-width="1" points="335,251 334,248 335,251 "/>
<polyline fill="none" stroke="#ff0000" stroke-width="1" points="311,260 307,255 311,260 "/>
<polyline fill="none" stroke="#ff0000" stroke-width="1" points="289,271 287,269 289,271 "/>
<polyline fill="none" stroke="#ff0000" stroke-width="1" points="269,284 266,283 269,284 "/>
<polyline fill="none" stroke="#ff0000" stroke-width="1" points="251,300 248,298 251,300 "/>
<polyline fill="none" stroke="#ff0000" stroke-width="1" points="236,316 230,314 236,316 "/>
<polyline fill="none" stroke="#ff0000" stroke-width="1" points="224,335 221,334 224,335 "/>
<polyline fill="none" stroke="#ff0000" stroke-width="1" points="216,354 212,353 216,354 "/>
<polyline fill="none" stroke="#ff0000" stroke-width="1" points="211,374 207,373 211,374 "/>
<polyline fill="none" stroke="#ff0000" stroke-width="1" points="209,394 201,394 209,394 "/>
<polyline fill="none" stroke="#ff0000" stroke-width="1" points="211,414 207,414 211,414 "/>
<polyline fill="none" stroke="#ff0000" stroke-width="1" points="216,434 213,434 216,434 "/>
<polyline fill="none" stroke="#ff0000" stroke-width="1" points="225,453 222,454 225,453 "/>
<polyline fill="none" stroke="#ff0000" stroke-width="1" points="415,380 418,380 "/>
<polyline fill="none" stroke="#ff0000" stroke-width="1" points="415,367 418,367 415,367 "/>
<polyline fill="none" stroke="#ff0000" stroke-width="1" points="415,354 418,354 415,354 "/>
<polyline fill="none" stroke="#ff0000" stroke-width="1" points="415,341 422,341 415,341 "/>
<polyline fill="none" stroke="#ff0000" stroke-width="1" points="415,329 418,328 415,329 "/>
<polyline fill="none" stroke="#ff0000" stroke-width="1" points="414,316 418,316 414,316 "/>
<polyline fill="none" stroke="#ff0000" stroke-width="1" points="414,303 418,303 414,303 "/>
<polyline fill="none" stroke="#ff0000" stroke-width="1" points="414,290 422,290 414,290 "/>
<polyline fill="none" stroke="#ff0000" stroke-width="1" points="414,277 418,277 414,277 "/>
<polyline fill="none" stroke="#ff0000" stroke-width="1" points="414,264 418,264 414,264 "/>
<polyline fill="none" stroke="#ff0000" stroke-width="1" points="414,251 418,251 414,251 "/>
<polyline fill="none" stroke="#ff0000" stroke-width="1" points="414,239 421,238 414,239 "/>
<polyline fill="none" stroke="#ff0000" stroke-width="1" points="414,226 417,226 414,226 "/>
<polyline fill="none" stroke="#ff0000" stroke-width="1" points="414,213 417,213 414,213 "/>
<polyline fill="none" stroke="#ff0000" stroke-width="1" points="414,200 417,200 414,200 "/>
<polyline fill="none" stroke="#ff0000" stroke-width="1" points="414,187 421,187 414,187 "/>
<polyline fill="none" stroke="#ff0000" stroke-width="1" points="414,174 417,174 414,174 "/>
<polyline fill="none" stroke="#ff0000" stroke-width="1" points="413,161 417,161 413,161 "/>
<polyline fill="none" stroke="#ff0000" stroke-width="1" points="413,148 417,148 413,148 "/>
<polyline fill="none" stroke="#ff0000" stroke-width="1" points="413,136 421,135 413,136 "/>
<polyline fill="none" stroke="#ff0000" stroke-width="1" points="413,123 417,123 413,123 "/>
<polyline fill="none" stroke="#ff0000" stroke-width="1" points="413,110 417,110 413,110 "/>
<polyline fill="none" stroke="#ff0000" stroke-width="1" points="413,97 417,97 413,97 "/>
<polyline fill="none" stroke="#ff0000" stroke-width="1" points="413,84 420,84 413,84 "/>
<polyline fill="none" stroke="#ff0000" stroke-width="1" points="602,457 604,454 607,449 610,443 612,438 614,432 616,426 618,421 619,415 620,409 621,404 621,398 621,392 "/>
<polyline fill="none" stroke="#ff0000" stroke-width="1" points="621,392 621,386 620,381 620,375 619,369 617,363 616,358 614,352 612,347 609,341 606,336 603,330 600,325 597,320 593,315 "/>
<polyline fill="none" stroke="#ff0000" stroke-width="1" points="593,315 589,310 585,305 580,301 575,296 571,292 565,287 560,283 554,279 549,275 543,272 537,268 530,265 524,262 517,259 "/>
<polyline fill="none" stroke="#ff0000" stroke-width="1" points="517,259 510,256 503,253 496,251 489,249 482,247 475,245 467,244 460,242 452,241 445,240 437,239 429,239 422,239 414,239 "/>
<polyline fill="none" stroke="#ff0000" stroke-width="1" points="414,239 406,239 399,239 391,240 383,240 376,241 368,243 361,244 353,246 346,247 339,250 332,252 325,254 318,257 311,260 "/>
<polyline fill="none" stroke="#ff0000" stroke-width="1" points="311,260 305,263 298,266 292,269 286,273 280,276 274,280 269,284 263,289 258,293 253,297 249,302 244,307 240,312 236,316 "/>
<polyline fill="none" stroke="#ff0000" stroke-width="1" points="236,316 232,322 229,327 226,332 223,337 220,343 218,348 216,354 214,359 212,365 211,371 210,377 209,382 209,388 209,394 "/>
<polyline fill="none" stroke="#ff0000" stroke-width="1" points="209,394 209,400 210,405 210,411 211,417 213,423 214,428 216,434 218,439 221,445 224,450 227,455 228,457 "/>
<polyline fill="none" stroke="#ff0000" stroke-width="1" points="415,393 415,389 415,386 415,382 415,378 415,375 415,371 415,367 415,364 415,360 415,356 415,353 415,349 415,345 415,341 "/>
<polyline fill="none" stroke="#ff0000" stroke-width="1" points="415,341 415,338 415,334 415,330 415,327 415,323 415,319 414,316 414,312 414,308 414,305 414,301 414,297 414,294 414,290 "/>
<polyline fill="none" stroke="#ff0000" stroke-width="1" points="414,290 414,286 414,283 414,279 414,275 414,272 414,268 414,264 414,261 414,257 414,253 414,250 414,246 414,242 414,239 "/>
<polyline fill="none" stroke="#ff0000" stroke-width="1" points="414,239 414,235 414,231 414,228 414,224 414,220 414,216 414,213 414,209 414,205 414,202 414,198 414,194 414,191 414,187 "/>
<polyline fill="none" stroke="#ff0000" stroke-width="1" points="414,187 414,183 414,180 414,176 414,172 414,169 414,165 413,161 413,158 413,154 413,150 413,147 413,143 413,139 413,136 "/>
<polyline fill="none" stroke="#ff0000" stroke-width="1" points="413,136 413,132 413,128 413,125 413,121 413,117 413,114 413,110 413,106 413,103 413,99 413,95 413,91 413,88 413,84 "/>
<polyline fill="none" stroke="#ff0000" stroke-width="1" points="413,84 413,83 "/>
<polyline fill="none" stroke="#ff0000" stroke-width="1" points="72,457 113,457 154,457 195,457 237,457 278,457 319,457 360,457 401,457 442,457 483,457 525,457 566,457 607,457 648,457 648,430 648,404 648,377 648,350 648,323 648,297 648,270 648,243 648,217 648,190 648,163 648,136 648,110 648,83 607,83 566,83 525,83 483,83 442,83 401,83 360,83 319,83 278,83 237,83 195,83 154,83 113,83 72,83 72,110 72,136 72,163 72,190 72,217 72,243 72,270 72,297 72,323 72,350 72,377 72,404 72,430 72,457 "/>
<text x="616" y="392" font-family="sans-serif" font-size="14" fill="#ff0000" text-anchor="middle" dominant-baseline="alphabetic" transform="rotate(90,616,392)">18</text>
<text x="589" y="317" font-family="sans-serif" font-size="14" fill="#ff0000" text-anchor="middle" dominant-baseline="hanging" transform="rotate(-60,589,317)">20</text>
<text x="515" y="262" font-family="sans-serif" font-size="14" fill="#ff0000" text-anchor="middle" dominant-baseline="hanging" transform="rotate(-30,515,262)">22</text>
<text x="414" y="242" font-family="sans-serif" font-size="14" fill="#ff0000" text-anchor="middle" dominant-baseline="hanging" transform="rotate(0,414,242)">0</text>
<text x="314" y="263" font-family="sans-serif" font-size="14" fill="#ff0000" text-anchor="middle" dominant-baseline="hanging" transform="rotate(30,314,263)">2</text>
<text x="240" y="318" font-family="sans-serif" font-size="14" fill="#ff0000" text-anchor="middle" dominant-baseline="hanging" transform="rotate(60,240,318)">4</text>
<text x="214" y="394" font-family="sans-serif" font-size="14" fill="#ff0000" text-anchor="middle" dominant-baseline="alphabetic" transform="rotate(-90,214,394)">6</text>
<text x="410" y="393" font-family="sans-serif" font-size="14" fill="#ff0000" text-anchor="middle" dominant-baseline="alphabetic" transform="rotate(90,410,393)">-90:00</text>
<text x="410" y="342" font-family="sans-serif" font-size="14" fill="#ff0000" text-anchor="middle" dominant-baseline="alphabetic" transform="rotate(90,410,342)">58</text>
<text x="409" y="290" font-family="sans-serif" font-size="14" fill="#ff0000" text-anchor="middle" dominant-baseline="alphabetic" transform="rotate(90,409,290)">56</text>
<text x="409" y="187" font-family="sans-serif" font-size="14" fill="#ff0000" text-anchor="middle" dominant-baseline="alphabetic" transform="rotate(90,409,187)">52</text>
<text x="408" y="136" font-family="sans-serif" font-size="14" fill="#ff0000" text-anchor="middle" dominant-baseline="alphabetic" transform="rotate(90,408,136)">-89:50</text>
<text x="408" y="84" font-family="sans-serif" font-size="14" fill="#ff0000" text-anchor="middle" dominant-baseline="alphabetic" transform="rotate(90,408,84)">48</text>
<text x="360" y="56" font-family="sans-serif" font-size="14" fill="#ff0000" text-anchor="middle" dominant-baseline="alphabetic">A FITS test</text>
</svg>
