<?xml version="1.0" encoding="UTF-8"?>
<svg xmlns="http://www.w3.org/2000/svg" width="720" height="540" viewBox="0 0 720 540">
<rect width="100%" height="100%" fill="black"/>
<polyline fill="none" stroke="#ff0000" stroke-width="1" points="76,486 76,483 "/>
<polyline fill="none" stroke="#ff0000" stroke-width="1" points="85,486 85,483 85,486 "/>
<polyline fill="none" stroke="#ff0000" stroke-width="1" points="110,486 110,480 110,486 "/>
<polyline fill="none" stroke="#ff0000" stroke-width="1" points="91,486 91,483 91,486 "/>
<polyline fill="none" stroke="#ff0000" stroke-width="1" points="97,486 97,483 97,486 "/>
<polyline fill="none" stroke="#ff0000" stroke-width="1" points="102,486 102,483 102,486 "/>
<polyline fill="none" stroke="#ff0000" stroke-width="1" points="106,486 106,483 106,486 "/>
<polyline fill="none" stroke="#ff0000" stroke-width="1" points="187,486 187,483 187,486 "/>
<polyline fill="none" stroke="#ff0000" stroke-width="1" points="208,486 208,483 208,486 "/>
<polyline fill="none" stroke="#ff0000" stroke-width="1" points="220,486 220,483 220,486 "/>
<polyline fill="none" stroke="#ff0000" stroke-width="1" points="229,486 229,483 229,486 "/>
<polyline fill="none" stroke="#ff0000" stroke-width="1" points="254,486 254,480 254,486 "/>
<polyline fill="none" stroke="#ff0000" stroke-width="1" points="235,486 235,483 235,486 "/>
<polyline fill="none" stroke="#ff0000" stroke-width="1" points="241,486 241,483 241,486 "/>
<polyline fill="none" stroke="#ff0000" stroke-width="1" points="246,486 246,483 246,486 "/>
<polyline fill="none" stroke="#ff0000" stroke-width="1" points="250,486 250,483 250,486 "/>
<polyline fill="none" stroke="#ff0000" stroke-width="1" points="331,486 331,483 331,486 "/>
<polyline fill="none" stroke="#ff0000" stroke-width="1" points="352,486 352,483 352,486 "/>
<polyline fill="none" stroke="#ff0000" stroke-width="1" points="364,486 364,483 364,486 "/>
<polyline fill="none" stroke="#ff0000" stroke-width="1" points="373,486 373,483 373,486 "/>
<polyline fill="none" stroke="#ff0000" stroke-width="1" points="398,486 398,480 398,486 "/>
<polyline fill="none" stroke="#ff0000" stroke-width="1" points="379,486 379,483 379,486 "/>
<polyline fill="none" stroke="#ff0000" stroke-width="1" points="385,486 385,483 385,486 "/>
<polyline fill="none" stroke="#ff0000" stroke-width="1" points="390,486 390,483 390,486 "/>
<polyline fill="none" stroke="#ff0000" stroke-width="1" points="394,486 394,483 394,486 "/>
<polyline fill="none" stroke="#ff0000" stroke-width="1" points="475,486 475,483 475,486 "/>
<polyline fill="none" stroke="#ff0000" stroke-width="1" points="496,486 496,483 496,486 "/>
<polyline fill="none" stroke="#ff0000" stroke-width="1" points="508,486 508,483 508,486 "/>
<polyline fill="none" stroke="#ff0000" stroke-width="1" points="517,486 517,483 517,486 "/>
<polyline fill="none" stroke="#ff0000" stroke-width="1" points="542,486 542,480 542,486 "/>
<polyline fill="none" stroke="#ff0000" stroke-width="1" points="523,486 523,483 523,486 "/>
<polyline fill="none" stroke="#ff0000" stroke-width="1" points="529,486 529,483 529,486 "/>
<polyline fill="none" stroke="#ff0000" stroke-width="1" points="534,486 534,483 534,486 "/>
<polyline fill="none" stroke="#ff0000" stroke-width="1" points="538,486 538,483 538,486 "/>
<polyline fill="none" stroke="#ff0000" stroke-width="1" points="619,486 619,483 619,486 "/>
<polyline fill="none" stroke="#ff0000" stroke-width="1" points="620,486 620,483 620,486 "/>
<polyline fill="none" stroke="#ff0000" stroke-width="1" points="640,486 640,483 640,486 "/>
<polyline fill="none" stroke="#ff0000" stroke-width="1" points="640,486 640,483 640,486 "/>
<polyline fill="none" stroke="#ff0000" stroke-width="1" points="72,461 76,461 "/>
<polyline fill="none" stroke="#ff0000" stroke-width="1" points="72,437 76,437 72,437 "/>
<polyline fill="none" stroke="#ff0000" stroke-width="1" points="72,373 81,373 72,373 "/>
<polyline fill="none" stroke="#ff0000" stroke-width="1" points="72,414 76,414 72,414 "/>
<polyline fill="none" stroke="#ff0000" stroke-width="1" points="72,393 76,393 72,393 "/>
<polyline fill="none" stroke="#ff0000" stroke-width="1" points="72,354 76,354 72,354 "/>
<polyline fill="none" stroke="#ff0000" stroke-width="1" points="72,335 76,335 72,335 "/>
<polyline fill="none" stroke="#ff0000" stroke-width="1" points="72,285 81,285 72,285 "/>
<polyline fill="none" stroke="#ff0000" stroke-width="1" points="72,318 76,318 72,318 "/>
<polyline fill="none" stroke="#ff0000" stroke-width="1" points="72,301 76,301 72,301 "/>
<polyline fill="none" stroke="#ff0000" stroke-width="1" points="72,270 76,270 72,270 "/>
<polyline fill="none" stroke="#ff0000" stroke-width="1" points="72,255 76,255 72,255 "/>
<polyline fill="none" stroke="#ff0000" stroke-width="1" points="72,213 81,213 72,213 "/>
<polyline fill="none" stroke="#ff0000" stroke-width="1" points="72,241 76,241 72,241 "/>
<polyline fill="none" stroke="#ff0000" stroke-width="1" points="72,227 76,227 72,227 "/>
<polyline fill="none" stroke="#ff0000" stroke-width="1" points="72,201 76,201 72,201 "/>
<polyline fill="none" stroke="#ff0000" stroke-width="1" points="72,188 76,188 72,188 "/>
<polyline fill="none" stroke="#ff0000" stroke-width="1" points="72,153 81,153 72,153 "/>
<polyline fill="none" stroke="#ff0000" stroke-width="1" points="72,176 76,176 72,176 "/>
<polyline fill="none" stroke="#ff0000" stroke-width="1" points="72,164 76,164 72,164 "/>
<polyline fill="none" stroke="#ff0000" stroke-width="1" points="72,142 76,142 72,142 "/>
<polyline fill="none" stroke="#ff0000" stroke-width="1" points="72,131 76,131 72,131 "/>
<polyline fill="none" stroke="#ff0000" stroke-width="1" points="72,100 81,100 72,100 "/>
<polyline fill="none" stroke="#ff0000" stroke-width="1" points="72,120 76,120 72,120 "/>
<polyline fill="none" stroke="#ff0000" stroke-width="1" points="72,110 76,110 72,110 "/>
<polyline fill="none" stroke="#ff0000" stroke-width="1" points="72,91 76,91 72,91 "/>
<polyline fill="none" stroke="#ff0000" stroke-width="1" points="72,81 76,81 72,81 "/>
<polyline fill="none" stroke="#ff0000" stroke-width="1" points="72,54 81,54 72,54 "/>
<polyline fill="none" stroke="#ff0000" stroke-width="1" points="72,72 76,72 72,72 "/>
<polyline fill="none" stroke="#ff0000" stroke-width="1" points="72,63 76,63 72,63 "/>
<polyline fill="none" stroke="#ff0000" stroke-width="1" points="76,54 76,57 "/>
<polyline fill="none" stroke="#ff0000" stroke-width="1" points="85,54 85,57 85,54 "/>
<polyline fill="none" stroke="#ff0000" stroke-width="1" points="110,54 110,60 110,54 "/>
<polyline fill="none" stroke="#ff0000" stroke-width="1" points="91,54 91,57 91,54 "/>
<polyline fill="none" stroke="#ff0000" stroke-width="1" points="97,54 97,57 97,54 "/>
<polyline fill="none" stroke="#ff0000" stroke-width="1" points="102,54 102,57 102,54 "/>
<polyline fill="none" stroke="#ff0000" stroke-width="1" points="106,54 106,57 106,54 "/>
<polyline fill="none" stroke="#ff0000" stroke-width="1" points="187,54 187,57 187,54 "/>
<polyline fill="none" stroke="#ff0000" stroke-width="1" points="208,54 208,57 208,54 "/>
<polyline fill="none" stroke="#ff0000" stroke-width="1" points="220,54 220,57 220,54 "/>
<polyline fill="none" stroke="#ff0000" stroke-width="1" points="229,54 229,57 229,54 "/>
<polyline fill="none" stroke="#ff0000" stroke-width="1" points="254,54 254,60 254,54 "/>
<polyline fill="none" stroke="#ff0000" stroke-width="1" points="235,54 235,57 235,54 "/>
<polyline fill="none" stroke="#ff0000" stroke-width="1" points="241,54 241,57 241,54 "/>
<polyline fill="none" stroke="#ff0000" stroke-width="1" points="246,54 246,57 246,54 "/>
<polyline fill="none" stroke="#ff0000" stroke-width="1" points="250,54 250,57 250,54 "/>
<polyline fill="none" stroke="#ff0000" stroke-width="1" points="331,54 331,57 331,54 "/>
<polyline fill="none" stroke="#ff0000" stroke-width="1" points="352,54 352,57 352,54 "/>
<polyline fill="none" stroke="#ff0000" stroke-width="1" points="364,54 364,57 364,54 "/>
<polyline fill="none" stroke="#ff0000" stroke-width="1" points="373,54 373,57 373,54 "/>
<polyline fill="none" stroke="#ff0000" stroke-width="1" points="398,54 398,60 398,54 "/>
<polyline fill="none" stroke="#ff0000" stroke-width="1" points="379,54 379,57 379,54 "/>
<polyline fill="none" stroke="#ff0000" stroke-width="1" points="385,54 385,57 385,54 "/>
<polyline fill="none" stroke="#ff0000" stroke-width="1" points="390,54 390,57 390,54 "/>
<polyline fill="none" stroke="#ff0000" stroke-width="1" points="394,54 394,57 394,54 "/>
<polyline fill="none" stroke="#ff0000" stroke-width="1" points="475,54 475,57 475,54 "/>
<polyline fill="none" stroke="#ff0000" stroke-width="1" points="496,54 496,57 496,54 "/>
<polyline fill="none" stroke="#ff0000" stroke-width="1" points="508,54 508,57 508,54 "/>
<polyline fill="none" stroke="#ff0000" stroke-width="1" points="517,54 517,57 517,54 "/>
<polyline fill="none" stroke="#ff0000" stroke-width="1" points="542,54 542,60 542,54 "/>
<polyline fill="none" stroke="#ff0000" stroke-width="1" points="523,54 523,57 523,54 "/>
<polyline fill="none" stroke="#ff0000" stroke-width="1" points="529,54 529,57 529,54 "/>
<polyline fill="none" stroke="#ff0000" stroke-width="1" points="534,54 534,57 534,54 "/>
<polyline fill="none" stroke="#ff0000" stroke-width="1" points="538,54 538,57 538,54 "/>
<polyline fill="none" stroke="#ff0000" stroke-width="1" points="619,54 619,57 619,54 "/>
<polyline fill="none" stroke="#ff0000" stroke-width="1" points="620,54 620,57 620,54 "/>
<polyline fill="none" stroke="#ff0000" stroke-width="1" points="640,54 640,57 640,54 "/>
<polyline fill="none" stroke="#ff0000" stroke-width="1" points="640,54 640,57 640,54 "/>
<polyline fill="none" stroke="#ff0000" stroke-width="1" points="648,461 644,461 "/>
<polyline fill="none" stroke="#ff0000" stroke-width="1" points="648,437 644,437 648,437 "/>
<polyline fill="none" stroke="#ff0000" stroke-width="1" points="648,373 639,373 648,373 "/>
<polyline fill="none" stroke="#ff0000" stroke-width="1" points="648,414 644,414 648,414 "/>
<polyline fill="none" stroke="#ff0000" stroke-width="1" points="648,393 644,393 648,393 "/>
<polyline fill="none" stroke="#ff0000" stroke-width="1" points="648,354 644,354 648,354 "/>
<polyline fill="none" stroke="#ff0000" stroke-width="1" points="648,335 644,335 648,335 "/>
<polyline fill="none" stroke="#ff0000" stroke-width="1" points="648,285 639,285 648,285 "/>
<polyline fill="none" stroke="#ff0000" stroke-width="1" points="648,318 644,318 648,318 "/>
<polyline fill="none" stroke="#ff0000" stroke-width="1" points="648,301 644,301 648,301 "/>
<polyline fill="none" stroke="#ff0000" stroke-width="1" points="648,270 644,270 648,270 "/>
<polyline fill="none" stroke="#ff0000" stroke-width="1" points="648,255 644,255 648,255 "/>
<polyline fill="none" stroke="#ff0000" stroke-width="1" points="648,213 639,213 648,213 "/>
<polyline fill="none" stroke="#ff0000" stroke-width="1" points="648,241 644,241 648,241 "/>
<polyline fill="none" stroke="#ff0000" stroke-width="1" points="648,227 644,227 648,227 "/>
<polyline fill="none" stroke="#ff0000" stroke-width="1" points="648,201 644,201 648,201 "/>
<polyline fill="none" stroke="#ff0000" stroke-width="1" points="648,188 644,188 648,188 "/>
<polyline fill="none" stroke="#ff0000" stroke-width="1" points="648,153 639,153 648,153 "/>
<polyline fill="none" stroke="#ff0000" stroke-width="1" points="648,176 644,176 648,176 "/>
<polyline fill="none" stroke="#ff0000" stroke-width="1" points="648,164 644,164 648,164 "/>
<polyline fill="none" stroke="#ff0000" stroke-width="1" points="648,142 644,142 648,142 "/>
<polyline fill="none" stroke="#ff0000" stroke-width="1" points="648,131 644,131 648,131 "/>
<polyline fill="none" stroke="#ff0000" stroke-width="1" points="648,100 639,100 648,100 "/>
<polyline fill="none" stroke="#ff0000" stroke-width="1" points="648,120 644,120 648,120 "/>
<polyline fill="none" stroke="#ff0000" stroke-width="1" points="648,110 644,110 648,110 "/>
<polyline fill="none" stroke="#ff0000" stroke-width="1" points="648,91 644,91 648,91 "/>
<polyline fill="none" stroke="#ff0000" stroke-width="1" points="648,81 644,81 648,81 "/>
<polyline fill="none" stroke="#ff0000" stroke-width="1" points="648,54 639,54 648,54 "/>
<polyline fill="none" stroke="#ff0000" stroke-width="1" points="648,72 644,72 648,72 "/>
<polyline fill="none" stroke="#ff0000" stroke-width="1" points="648,63 644,63 648,63 "/>
<polyline fill="none" stroke="#ff0000" stroke-width="1" points="72,486 113,486 154,486 195,486 237,486 278,486 319,486 360,486 401,486 442,486 483,486 525,486 566,486 607,486 648,486 648,455 648,424 648,393 648,363 648,332 648,301 648,270 648,239 648,208 648,177 648,147 648,116 648,85 648,54 607,54 566,54 525,54 483,54 442,54 401,54 360,54 319,54 278,54 237,54 195,54 154,54 113,54 72,54 72,85 72,116 72,147 72,177 72,208 72,239 72,270 72,301 72,332 72,363 72,393 72,424 72,455 72,486 "/>
<text x="106" y="492" font-family="sans-serif" font-size="14" fill="#ff0000" text-anchor="middle" dominant-baseline="hanging">10</text>
<text x="120" y="490" font-family="sans-serif" font-size="10" fill="#ff0000" text-anchor="middle" dominant-baseline="hanging">6</text>
<text x="250" y="492" font-family="sans-serif" font-size="14" fill="#ff0000" text-anchor="middle" dominant-baseline="hanging">10</text>
<text x="264" y="490" font-family="sans-serif" font-size="10" fill="#ff0000" text-anchor="middle" dominant-baseline="hanging">8</text>
<text x="391" y="492" font-family="sans-serif" font-size="14" fill="#ff0000" text-anchor="middle" dominant-baseline="hanging">10</text>
<text x="408" y="490" font-family="sans-serif" font-size="10" fill="#ff0000" text-anchor="middle" dominant-baseline="hanging">10</text>
<text x="535" y="492" font-family="sans-serif" font-size="14" fill="#ff0000" text-anchor="middle" dominant-baseline="hanging">10</text>
<text x="552" y="490" font-family="sans-serif" font-size="10" fill="#ff0000" text-anchor="middle" dominant-baseline="hanging">12</text>
<text x="66" y="486" font-family="sans-serif" font-size="14" fill="#ff0000" text-anchor="end" dominant-baseline="central">3</text>
<text x="66" y="373" font-family="sans-serif" font-size="14" fill="#ff0000" text-anchor="end" dominant-baseline="central">4</text>
<text x="66" y="285" font-family="sans-serif" font-size="14" fill="#ff0000" text-anchor="end" dominant-baseline="central">5</text>
<text x="66" y="213" font-family="sans-serif" font-size="14" fill="#ff0000" text-anchor="end" dominant-baseline="central">6</text>
<text x="66" y="153" font-family="sans-serif" font-size="14" fill="#ff0000" text-anchor="end" dominant-baseline="central">7</text>
<text x="66" y="100" font-family="sans-serif" font-size="14" fill="#ff0000" text-anchor="end" dominant-baseline="central">8</text>
<text x="66" y="54" font-family="sans-serif" font-size="14" fill="#ff0000" text-anchor="end" dominant-baseline="central">9</text>
<text x="360" y="510" font-family="sans-serif" font-size="14" fill="#ff0000" text-anchor="middle" dominant-baseline="hanging">Frequency (GHz)</text>
<text x="46" y="322" font-family="sans-serif" font-size="14" fill="#ff0000" text-anchor="middle" dominant-baseline="alphabetic" transform="rotate(90,46,322)">Axis 2 (10</text>
<text x="39" y="283" font-family="sans-serif" font-size="7" fill="#ff0000" text-anchor="middle" dominant-baseline="alphabetic" transform="rotate(90,39,283)">-26</text>
<text x="46" y="267" font-family="sans-serif" font-size="14" fill="#ff0000" text-anchor="middle" dominant-baseline="alphabetic" transform="rotate(90,46,267)">W/m</text>
<text x="39" y="254" font-family="sans-serif" font-size="7" fill="#ff0000" text-anchor="middle" dominant-baseline="alphabetic" transform="rotate(90,39,254)">2</text>
<text x="46" y="218" font-family="sans-serif" font-size="14" fill="#ff0000" text-anchor="middle" dominant-baseline="alphabetic" transform="rotate(90,46,218)">/Angstrom)</text>
<text x="360" y="25" font-family="sans-serif" font-size="14" fill="#ff0000" text-anchor="middle" dominant-baseline="alphabetic">A FITS test</text>
</svg>
