<?xml version="1.0" encoding="UTF-8"?>
<svg xmlns="http://www.w3.org/2000/svg" width="720" height="540" viewBox="0 0 720 540">
<rect width="100%" height="100%" fill="black"/>
<polyline fill="none" stroke="#ff0000" stroke-width="1" points="143,337 143,331 "/>
<polyline fill="none" stroke="#ff0000" stroke-width="1" points="93,337 93,335 93,337 "/>
<polyline fill="none" stroke="#ff0000" stroke-width="1" points="193,337 193,335 193,337 "/>
<polyline fill="none" stroke="#ff0000" stroke-width="1" points="292,337 292,331 292,337 "/>
<polyline fill="none" stroke="#ff0000" stroke-width="1" points="243,337 243,335 243,337 "/>
<polyline fill="none" stroke="#ff0000" stroke-width="1" points="342,337 342,335 342,337 "/>
<polyline fill="none" stroke="#ff0000" stroke-width="1" points="442,337 442,331 442,337 "/>
<polyline fill="none" stroke="#ff0000" stroke-width="1" points="392,337 392,335 392,337 "/>
<polyline fill="none" stroke="#ff0000" stroke-width="1" points="492,337 492,335 492,337 "/>
<polyline fill="none" stroke="#ff0000" stroke-width="1" points="592,337 592,331 592,337 "/>
<polyline fill="none" stroke="#ff0000" stroke-width="1" points="542,337 542,335 542,337 "/>
<polyline fill="none" stroke="#ff0000" stroke-width="1" points="642,337 642,335 642,337 "/>
<polyline fill="none" stroke="#ff0000" stroke-width="1" points="72,328 76,328 "/>
<polyline fill="none" stroke="#ff0000" stroke-width="1" points="72,319 76,319 72,319 "/>
<polyline fill="none" stroke="#ff0000" stroke-width="1" points="72,292 81,292 72,292 "/>
<polyline fill="none" stroke="#ff0000" stroke-width="1" points="72,310 76,310 72,310 "/>
<polyline fill="none" stroke="#ff0000" stroke-width="1" points="72,301 76,301 72,301 "/>
<polyline fill="none" stroke="#ff0000" stroke-width="1" points="72,283 76,283 72,283 "/>
<polyline fill="none" stroke="#ff0000" stroke-width="1" points="72,274 76,274 72,274 "/>
<polyline fill="none" stroke="#ff0000" stroke-width="1" points="72,248 81,248 72,248 "/>
<polyline fill="none" stroke="#ff0000" stroke-width="1" points="72,266 76,266 72,266 "/>
<polyline fill="none" stroke="#ff0000" stroke-width="1" points="72,257 76,257 72,257 "/>
<polyline fill="none" stroke="#ff0000" stroke-width="1" points="72,239 76,239 72,239 "/>
<polyline fill="none" stroke="#ff0000" stroke-width="1" points="72,230 76,230 72,230 "/>
<polyline fill="none" stroke="#ff0000" stroke-width="1" points="72,203 81,203 72,203 "/>
<polyline fill="none" stroke="#ff0000" stroke-width="1" points="72,221 76,221 72,221 "/>
<polyline fill="none" stroke="#ff0000" stroke-width="1" points="72,212 76,212 72,212 "/>
<polyline fill="none" stroke="#ff0000" stroke-width="1" points="143,203 143,209 "/>
<polyline fill="none" stroke="#ff0000" stroke-width="1" points="93,203 93,205 93,203 "/>
<polyline fill="none" stroke="#ff0000" stroke-width="1" points="193,203 193,205 193,203 "/>
<polyline fill="none" stroke="#ff0000" stroke-width="1" points="292,203 292,209 292,203 "/>
<polyline fill="none" stroke="#ff0000" stroke-width="1" points="243,203 243,205 243,203 "/>
<polyline fill="none" stroke="#ff0000" stroke-width="1" points="342,203 342,205 342,203 "/>
<polyline fill="none" stroke="#ff0000" stroke-width="1" points="442,203 442,209 442,203 "/>
<polyline fill="none" stroke="#ff0000" stroke-width="1" points="392,203 392,205 392,203 "/>
<polyline fill="none" stroke="#ff0000" stroke-width="1" points="492,203 492,205 492,203 "/>
<polyline fill="none" stroke="#ff0000" stroke-width="1" points="592,203 592,209 592,203 "/>
<polyline fill="none" stroke="#ff0000" stroke-width="1" points="542,203 542,205 542,203 "/>
<polyline fill="none" stroke="#ff0000" stroke-width="1" points="642,203 642,205 642,203 "/>
<polyline fill="none" stroke="#ff0000" stroke-width="1" points="648,328 644,328 "/>
<polyline fill="none" stroke="#ff0000" stroke-width="1" points="648,319 644,319 648,319 "/>
<polyline fill="none" stroke="#ff0000" stroke-width="1" points="648,292 639,292 648,292 "/>
<polyline fill="none" stroke="#ff0000" stroke-width="1" points="648,310 644,310 648,310 "/>
<polyline fill="none" stroke="#ff0000" stroke-width="1" points="648,301 644,301 648,301 "/>
<polyline fill="none" stroke="#ff0000" stroke-width="1" points="648,283 644,283 648,283 "/>
<polyline fill="none" stroke="#ff0000" stroke-width="1" points="648,274 644,274 648,274 "/>
<polyline fill="none" stroke="#ff0000" stroke-width="1" points="648,248 639,248 648,248 "/>
<polyline fill="none" stroke="#ff0000" stroke-width="1" points="648,266 644,266 648,266 "/>
<polyline fill="none" stroke="#ff0000" stroke-width="1" points="648,257 644,257 648,257 "/>
<polyline fill="none" stroke="#ff0000" stroke-width="1" points="648,239 644,239 648,239 "/>
<polyline fill="none" stroke="#ff0000" stroke-width="1" points="648,230 644,230 648,230 "/>
<polyline fill="none" stroke="#ff0000" stroke-width="1" points="648,203 639,203 648,203 "/>
<polyline fill="none" stroke="#ff0000" stroke-width="1" points="648,221 644,221 648,221 "/>
<polyline fill="none" stroke="#ff0000" stroke-width="1" points="648,212 644,212 648,212 "/>
<polyline fill="none" stroke="#ff0000" stroke-width="1" points="72,337 113,337 154,337 195,337 237,337 278,337 319,337 360,337 401,337 442,337 483,337 525,337 566,337 607,337 648,337 648,328 648,318 648,308 648,299 648,289 648,280 648,270 648,260 648,251 648,241 648,232 648,222 648,212 648,203 607,203 566,203 525,203 483,203 442,203 401,203 360,203 319,203 278,203 237,203 195,203 154,203 113,203 72,203 72,212 72,222 72,232 72,241 72,251 72,260 72,270 72,280 72,289 72,299 72,308 72,318 72,328 72,337 "/>
<text x="143" y="344" font-family="sans-serif" font-size="13" fill="#ff0000" text-anchor="middle" dominant-baseline="hanging">2015-04-16</text>
<text x="149" y="354" font-family="sans-serif" font-size="13" fill="#ff0000" text-anchor="middle" dominant-baseline="hanging">18:00:00</text>
<text x="260" y="344" font-family="sans-serif" font-size="13" fill="#ff0000" text-anchor="middle" dominant-baseline="hanging">        </text>
<text x="325" y="361" font-family="sans-serif" font-size="13" fill="#ff0000" text-anchor="middle" dominant-baseline="hanging">00:00:00</text>
<text x="410" y="344" font-family="sans-serif" font-size="13" fill="#ff0000" text-anchor="middle" dominant-baseline="hanging">        </text>
<text x="475" y="361" font-family="sans-serif" font-size="13" fill="#ff0000" text-anchor="middle" dominant-baseline="hanging">06:00:00</text>
<text x="577" y="344" font-family="sans-serif" font-size="13" fill="#ff0000" text-anchor="middle" dominant-baseline="hanging">   17</text>
<text x="595" y="354" font-family="sans-serif" font-size="13" fill="#ff0000" text-anchor="middle" dominant-baseline="hanging">12:00:00</text>
<text x="63" y="337" font-family="sans-serif" font-size="13" fill="#ff0000" text-anchor="end" dominant-baseline="central">3</text>
<text x="63" y="292" font-family="sans-serif" font-size="13" fill="#ff0000" text-anchor="end" dominant-baseline="central">3.1</text>
<text x="63" y="248" font-family="sans-serif" font-size="13" fill="#ff0000" text-anchor="end" dominant-baseline="central">3.2</text>
<text x="63" y="203" font-family="sans-serif" font-size="13" fill="#ff0000" text-anchor="end" dominant-baseline="central">3.3</text>
<text x="360" y="386" font-family="sans-serif" font-size="13" fill="#ff0000" text-anchor="middle" dominant-baseline="hanging">Date/Time (d)</text>
<text x="17" y="270" font-family="sans-serif" font-size="13" fill="#ff0000" text-anchor="middle" dominant-baseline="alphabetic" transform="rotate(90,17,270)">Data up-loaded (GB)</text>
<text x="360" y="189" font-family="sans-serif" font-size="13" fill="#ff0000" text-anchor="middle" dominant-baseline="alphabetic">A FITS test</text>
</svg>
