<?xml version="1.0" encoding="UTF-8"?>
<svg xmlns="http://www.w3.org/2000/svg" width="720" height="540" viewBox="0 0 720 540">
<rect width="100%" height="100%" fill="black"/>
<polyline fill="none" stroke="#ff0000" stroke-width="1" points="504,479 476,479 445,479 414,479 382,479 351,479 320,479 288,479 257,479 225,479 216,479 "/>
<polyline fill="none" stroke="#ff0000" stroke-width="1" points="504,417 475,417 444,417 413,417 381,417 350,417 319,417 287,417 256,417 225,417 216,417 "/>
<polyline fill="none" stroke="#ff0000" stroke-width="1" points="504,354 474,355 443,355 412,355 381,355 349,355 318,355 286,355 255,355 224,356 216,356 "/>
<polyline fill="none" stroke="#ff0000" stroke-width="1" points="504,292 473,293 442,293 411,293 379,293 348,293 317,293 285,293 254,294 222,294 216,294 "/>
<polyline fill="none" stroke="#ff0000" stroke-width="1" points="504,230 503,230 472,230 441,231 409,231 378,231 347,231 315,231 284,231 252,232 221,232 216,232 "/>
<polyline fill="none" stroke="#ff0000" stroke-width="1" points="504,168 502,168 470,168 439,168 408,169 376,169 345,169 314,169 282,169 251,170 219,170 216,170 "/>
<polyline fill="none" stroke="#ff0000" stroke-width="1" points="504,106 500,106 469,106 437,106 406,106 375,107 343,107 312,107 280,107 249,108 217,108 216,108 "/>
<polyline fill="none" stroke="#ff0000" stroke-width="1" points="482,486 482,470 481,421 480,372 479,324 479,275 477,226 476,177 475,128 474,79 473,54 "/>
<polyline fill="none" stroke="#ff0000" stroke-width="1" points="442,486 442,470 441,421 441,372 440,324 439,275 438,226 436,177 435,128 434,79 433,54 "/>
<polyline fill="none" stroke="#ff0000" stroke-width="1" points="402,486 402,470 401,421 401,373 400,324 399,275 398,226 397,178 395,129 394,80 393,54 "/>
<polyline fill="none" stroke="#ff0000" stroke-width="1" points="362,486 362,470 362,421 361,373 360,324 359,275 358,227 357,178 355,129 354,80 353,54 "/>
<polyline fill="none" stroke="#ff0000" stroke-width="1" points="322,486 322,470 322,422 321,373 320,324 319,276 318,227 317,178 315,129 314,80 313,54 "/>
<polyline fill="none" stroke="#ff0000" stroke-width="1" points="283,486 282,470 282,422 281,373 280,324 279,276 278,227 277,178 275,130 274,81 273,54 "/>
<polyline fill="none" stroke="#ff0000" stroke-width="1" points="243,486 242,470 242,422 241,373 240,325 239,276 238,227 237,179 235,130 234,81 233,54 "/>
<polyline fill="none" stroke="#ff0000" stroke-width="1" points="216,469 218,469 "/>
<polyline fill="none" stroke="#ff0000" stroke-width="1" points="216,459 218,459 216,459 "/>
<polyline fill="none" stroke="#ff0000" stroke-width="1" points="216,448 218,448 216,448 "/>
<polyline fill="none" stroke="#ff0000" stroke-width="1" points="216,438 218,438 216,438 "/>
<polyline fill="none" stroke="#ff0000" stroke-width="1" points="216,428 218,428 216,428 "/>
<polyline fill="none" stroke="#ff0000" stroke-width="1" points="216,407 218,407 216,407 "/>
<polyline fill="none" stroke="#ff0000" stroke-width="1" points="216,397 218,397 216,397 "/>
<polyline fill="none" stroke="#ff0000" stroke-width="1" points="216,387 218,387 216,387 "/>
<polyline fill="none" stroke="#ff0000" stroke-width="1" points="216,376 218,376 216,376 "/>
<polyline fill="none" stroke="#ff0000" stroke-width="1" points="216,366 218,366 216,366 "/>
<polyline fill="none" stroke="#ff0000" stroke-width="1" points="216,345 218,345 216,345 "/>
<polyline fill="none" stroke="#ff0000" stroke-width="1" points="216,335 218,335 216,335 "/>
<polyline fill="none" stroke="#ff0000" stroke-width="1" points="216,325 218,325 216,325 "/>
<polyline fill="none" stroke="#ff0000" stroke-width="1" points="216,314 218,314 216,314 "/>
<polyline fill="none" stroke="#ff0000" stroke-width="1" points="216,304 218,304 216,304 "/>
<polyline fill="none" stroke="#ff0000" stroke-width="1" points="216,283 218,283 216,283 "/>
<polyline fill="none" stroke="#ff0000" stroke-width="1" points="216,273 218,273 216,273 "/>
<polyline fill="none" stroke="#ff0000" stroke-width="1" points="216,263 218,263 216,263 "/>
<polyline fill="none" stroke="#ff0000" stroke-width="1" points="216,252 218,252 216,252 "/>
<polyline fill="none" stroke="#ff0000" stroke-width="1" points="216,242 218,242 216,242 "/>
<polyline fill="none" stroke="#ff0000" stroke-width="1" points="216,222 218,222 216,222 "/>
<polyline fill="none" stroke="#ff0000" stroke-width="1" points="216,211 218,211 216,211 "/>
<polyline fill="none" stroke="#ff0000" stroke-width="1" points="216,201 218,201 216,201 "/>
<polyline fill="none" stroke="#ff0000" stroke-width="1" points="216,191 218,191 216,191 "/>
<polyline fill="none" stroke="#ff0000" stroke-width="1" points="216,180 218,180 216,180 "/>
<polyline fill="none" stroke="#ff0000" stroke-width="1" points="216,159 218,159 216,159 "/>
<polyline fill="none" stroke="#ff0000" stroke-width="1" points="216,149 218,149 216,149 "/>
<polyline fill="none" stroke="#ff0000" stroke-width="1" points="216,139 218,139 216,139 "/>
<polyline fill="none" stroke="#ff0000" stroke-width="1" points="216,128 218,128 216,128 "/>
<polyline fill="none" stroke="#ff0000" stroke-width="1" points="216,118 218,118 216,118 "/>
<polyline fill="none" stroke="#ff0000" stroke-width="1" points="216,97 218,97 216,97 "/>
<polyline fill="none" stroke="#ff0000" stroke-width="1" points="216,87 218,87 216,87 "/>
<polyline fill="none" stroke="#ff0000" stroke-width="1" points="216,77 218,77 216,77 "/>
<polyline fill="none" stroke="#ff0000" stroke-width="1" points="216,66 218,66 216,66 "/>
<polyline fill="none" stroke="#ff0000" stroke-width="1" points="216,56 218,56 216,56 "/>
<polyline fill="none" stroke="#ff0000" stroke-width="1" points="502,486 502,484 "/>
<polyline fill="none" stroke="#ff0000" stroke-width="1" points="492,486 492,484 492,486 "/>
<polyline fill="none" stroke="#ff0000" stroke-width="1" points="472,486 472,484 472,486 "/>
<polyline fill="none" stroke="#ff0000" stroke-width="1" points="462,486 462,484 462,486 "/>
<polyline fill="none" stroke="#ff0000" stroke-width="1" points="452,486 452,484 452,486 "/>
<polyline fill="none" stroke="#ff0000" stroke-width="1" points="432,486 432,484 432,486 "/>
<polyline fill="none" stroke="#ff0000" stroke-width="1" points="422,486 422,484 422,486 "/>
<polyline fill="none" stroke="#ff0000" stroke-width="1" points="412,486 412,484 412,486 "/>
<polyline fill="none" stroke="#ff0000" stroke-width="1" points="392,486 392,484 392,486 "/>
<polyline fill="none" stroke="#ff0000" stroke-width="1" points="382,486 382,484 382,486 "/>
<polyline fill="none" stroke="#ff0000" stroke-width="1" points="372,486 372,484 372,486 "/>
<polyline fill="none" stroke="#ff0000" stroke-width="1" points="352,486 352,484 352,486 "/>
<polyline fill="none" stroke="#ff0000" stroke-width="1" points="342,486 342,484 342,486 "/>
<polyline fill="none" stroke="#ff0000" stroke-width="1" points="332,486 332,484 332,486 "/>
<polyline fill="none" stroke="#ff0000" stroke-width="1" points="313,486 312,484 313,486 "/>
<polyline fill="none" stroke="#ff0000" stroke-width="1" points="303,486 303,484 303,486 "/>
<polyline fill="none" stroke="#ff0000" stroke-width="1" points="293,486 293,484 293,486 "/>
<polyline fill="none" stroke="#ff0000" stroke-width="1" points="273,486 273,484 273,486 "/>
<polyline fill="none" stroke="#ff0000" stroke-width="1" points="263,486 263,484 263,486 "/>
<polyline fill="none" stroke="#ff0000" stroke-width="1" points="253,486 253,484 253,486 "/>
<polyline fill="none" stroke="#ff0000" stroke-width="1" points="233,486 233,484 233,486 "/>
<polyline fill="none" stroke="#ff0000" stroke-width="1" points="223,486 223,484 223,486 "/>
<polyline fill="none" stroke="#ff0000" stroke-width="1" points="504,468 502,468 "/>
<polyline fill="none" stroke="#ff0000" stroke-width="1" points="504,458 502,458 504,458 "/>
<polyline fill="none" stroke="#ff0000" stroke-width="1" points="504,448 502,448 504,448 "/>
<polyline fill="none" stroke="#ff0000" stroke-width="1" points="504,437 502,437 504,437 "/>
<polyline fill="none" stroke="#ff0000" stroke-width="1" points="504,427 502,427 504,427 "/>
<polyline fill="none" stroke="#ff0000" stroke-width="1" points="504,406 502,406 504,406 "/>
<polyline fill="none" stroke="#ff0000" stroke-width="1" points="504,396 502,396 504,396 "/>
<polyline fill="none" stroke="#ff0000" stroke-width="1" points="504,386 502,386 504,386 "/>
<polyline fill="none" stroke="#ff0000" stroke-width="1" points="504,375 502,375 504,375 "/>
<polyline fill="none" stroke="#ff0000" stroke-width="1" points="504,365 502,365 504,365 "/>
<polyline fill="none" stroke="#ff0000" stroke-width="1" points="504,344 502,344 504,344 "/>
<polyline fill="none" stroke="#ff0000" stroke-width="1" points="504,334 502,334 504,334 "/>
<polyline fill="none" stroke="#ff0000" stroke-width="1" points="504,323 502,323 504,323 "/>
<polyline fill="none" stroke="#ff0000" stroke-width="1" points="504,313 502,313 504,313 "/>
<polyline fill="none" stroke="#ff0000" stroke-width="1" points="504,303 502,303 504,303 "/>
<polyline fill="none" stroke="#ff0000" stroke-width="1" points="504,282 502,282 504,282 "/>
<polyline fill="none" stroke="#ff0000" stroke-width="1" points="504,272 502,272 504,272 "/>
<polyline fill="none" stroke="#ff0000" stroke-width="1" points="504,261 502,261 504,261 "/>
<polyline fill="none" stroke="#ff0000" stroke-width="1" points="504,251 502,251 504,251 "/>
<polyline fill="none" stroke="#ff0000" stroke-width="1" points="504,241 502,241 504,241 "/>
<polyline fill="none" stroke="#ff0000" stroke-width="1" points="504,220 502,220 504,220 "/>
<polyline fill="none" stroke="#ff0000" stroke-width="1" points="504,209 502,209 504,209 "/>
<polyline fill="none" stroke="#ff0000" stroke-width="1" points="504,199 502,199 504,199 "/>
<polyline fill="none" stroke="#ff0000" stroke-width="1" points="504,189 502,189 504,189 "/>
<polyline fill="none" stroke="#ff0000" stroke-width="1" points="504,178 502,178 504,178 "/>
<polyline fill="none" stroke="#ff0000" stroke-width="1" points="504,158 502,158 504,158 "/>
<polyline fill="none" stroke="#ff0000" stroke-width="1" points="504,147 502,147 504,147 "/>
<polyline fill="none" stroke="#ff0000" stroke-width="1" points="504,137 502,137 504,137 "/>
<polyline fill="none" stroke="#ff0000" stroke-width="1" points="504,126 502,126 504,126 "/>
<polyline fill="none" stroke="#ff0000" stroke-width="1" points="504,116 502,116 504,116 "/>
<polyline fill="none" stroke="#ff0000" stroke-width="1" points="504,95 502,95 504,95 "/>
<polyline fill="none" stroke="#ff0000" stroke-width="1" points="504,85 502,85 504,85 "/>
<polyline fill="none" stroke="#ff0000" stroke-width="1" points="504,74 502,74 504,74 "/>
<polyline fill="none" stroke="#ff0000" stroke-width="1" points="504,64 502,64 504,64 "/>
<polyline fill="none" stroke="#ff0000" stroke-width="1" points="503,54 503,56 "/>
<polyline fill="none" stroke="#ff0000" stroke-width="1" points="493,54 493,56 493,54 "/>
<polyline fill="none" stroke="#ff0000" stroke-width="1" points="483,54 483,56 483,54 "/>
<polyline fill="none" stroke="#ff0000" stroke-width="1" points="463,54 463,56 463,54 "/>
<polyline fill="none" stroke="#ff0000" stroke-width="1" points="453,54 453,56 453,54 "/>
<polyline fill="none" stroke="#ff0000" stroke-width="1" points="443,54 443,56 443,54 "/>
<polyline fill="none" stroke="#ff0000" stroke-width="1" points="423,54 423,56 423,54 "/>
<polyline fill="none" stroke="#ff0000" stroke-width="1" points="413,54 413,56 413,54 "/>
<polyline fill="none" stroke="#ff0000" stroke-width="1" points="403,54 403,56 403,54 "/>
<polyline fill="none" stroke="#ff0000" stroke-width="1" points="383,54 383,56 383,54 "/>
<polyline fill="none" stroke="#ff0000" stroke-width="1" points="373,54 373,56 373,54 "/>
<polyline fill="none" stroke="#ff0000" stroke-width="1" points="363,54 363,56 363,54 "/>
<polyline fill="none" stroke="#ff0000" stroke-width="1" points="343,54 343,56 343,54 "/>
<polyline fill="none" stroke="#ff0000" stroke-width="1" points="333,54 333,56 333,54 "/>
<polyline fill="none" stroke="#ff0000" stroke-width="1" points="323,54 323,56 323,54 "/>
<polyline fill="none" stroke="#ff0000" stroke-width="1" points="303,54 303,56 303,54 "/>
<polyline fill="none" stroke="#ff0000" stroke-width="1" points="293,54 293,56 293,54 "/>
<polyline fill="none" stroke="#ff0000" stroke-width="1" points="283,54 283,56 283,54 "/>
<polyline fill="none" stroke="#ff0000" stroke-width="1" points="263,54 263,56 263,54 "/>
<polyline fill="none" stroke="#ff0000" stroke-width="1" points="253,54 253,56 253,54 "/>
<polyline fill="none" stroke="#ff0000" stroke-width="1" points="243,54 243,56 243,54 "/>
<polyline fill="none" stroke="#ff0000" stroke-width="1" points="223,54 223,56 223,54 "/>
<text x="213" y="479" font-family="sans-serif" font-size="14" fill="#ff0000" text-anchor="end" dominant-baseline="central">20:30</text>
<text x="213" y="417" font-family="sans-serif" font-size="14" fill="#ff0000" text-anchor="end" dominant-baseline="central">21:00</text>
<text x="213" y="356" font-family="sans-serif" font-size="14" fill="#ff0000" text-anchor="end" dominant-baseline="central">30</text>
<text x="213" y="294" font-family="sans-serif" font-size="14" fill="#ff0000" text-anchor="end" dominant-baseline="central">7:22:00</text>
<text x="213" y="232" font-family="sans-serif" font-size="14" fill="#ff0000" text-anchor="end" dominant-baseline="central">30</text>
<text x="213" y="170" font-family="sans-serif" font-size="14" fill="#ff0000" text-anchor="end" dominant-baseline="central">23:00</text>
<text x="213" y="108" font-family="sans-serif" font-size="14" fill="#ff0000" text-anchor="end" dominant-baseline="central">30</text>
<text x="243" y="488" font-family="sans-serif" font-size="14" fill="#ff0000" text-anchor="middle" dominant-baseline="hanging">28</text>
<text x="283" y="488" font-family="sans-serif" font-size="14" fill="#ff0000" text-anchor="middle" dominant-baseline="hanging">26</text>
<text x="322" y="488" font-family="sans-serif" font-size="14" fill="#ff0000" text-anchor="middle" dominant-baseline="hanging">24</text>
<text x="362" y="488" font-family="sans-serif" font-size="14" fill="#ff0000" text-anchor="middle" dominant-baseline="hanging">22</text>
<text x="402" y="488" font-family="sans-serif" font-size="14" fill="#ff0000" text-anchor="middle" dominant-baseline="hanging">56:20</text>
<text x="442" y="488" font-family="sans-serif" font-size="14" fill="#ff0000" text-anchor="middle" dominant-baseline="hanging">18</text>
<text x="482" y="488" font-family="sans-serif" font-size="14" fill="#ff0000" text-anchor="middle" dominant-baseline="hanging">16</text>
<text x="118" y="270" font-family="sans-serif" font-size="14" fill="#ff0000" text-anchor="middle" dominant-baseline="alphabetic" transform="rotate(90,118,270)">Right ascension</text>
<text x="360" y="523" font-family="sans-serif" font-size="14" fill="#ff0000" text-anchor="middle" dominant-baseline="hanging">Declination</text>
<text x="360" y="41" font-family="sans-serif" font-size="14" fill="#ff0000" text-anchor="middle" dominant-baseline="alphabetic">A FITS test</text>
</svg>
