<?xml version="1.0" encoding="UTF-8"?>
<svg xmlns="http://www.w3.org/2000/svg" width="720" height="540" viewBox="0 0 720 540">
<rect width="100%" height="100%" fill="black"/>
<polyline fill="none" stroke="#ff0000" stroke-width="1" points="432,270 439,275 447,281 457,289 458,289 458,290 459,291 460,291 461,292 462,293 463,294 464,294 465,295 466,296 467,297 469,298 470,299 471,300 472,301 474,302 475,303 475,303 475,303 475,303 476,303 476,303 476,303 476,303 "/>
<polyline fill="none" stroke="#ff0000" stroke-width="1" points="123,303 123,303 123,303 124,303 124,303 125,303 125,303 125,303 125,303 125,303 125,303 125,303 126,303 126,303 126,303 127,303 129,303 129,303 129,303 129,303 129,303 129,303 129,303 129,303 129,303 130,303 130,303 130,303 130,303 130,303 130,303 130,303 131,303 131,303 131,303 131,303 131,303 131,303 132,303 132,303 132,303 132,303 132,303 132,303 132,303 132,303 133,303 133,303 133,303 133,303 134,303 134,303 134,303 135,303 136,303 138,303 139,303 140,303 141,303 142,303 144,303 145,303 146,303 147,303 167,303 181,303 187,303 188,303 194,303 195,303 197,303 198,303 199,303 201,303 202,303 203,303 205,303 205,303 205,303 205,303 205,303 205,303 205,303 206,303 206,303 206,303 206,303 206,303 206,303 207,303 207,303 207,303 207,303 207,303 207,303 207,303 207,303 208,303 208,303 208,303 208,303 209,303 209,303 209,303 209,303 209,303 209,303 209,303 210,303 210,303 210,303 210,303 210,303 210,303 210,303 212,303 213,302 215,301 216,300 217,299 218,298 219,297 221,296 222,295 223,294 224,294 225,293 226,292 227,291 228,291 228,290 229,289 230,289 240,281 248,275 255,270 248,275 240,281 230,289 229,289 228,290 228,291 227,291 226,292 225,293 224,294 223,294 222,295 221,296 219,297 218,298 217,299 216,300 215,301 213,302 212,303 210,303 210,303 210,303 210,303 210,303 210,303 210,303 209,303 209,303 209,303 209,303 209,303 209,303 209,303 208,303 208,303 208,303 208,303 207,303 207,303 207,303 207,303 207,303 207,303 207,303 207,303 206,303 206,303 206,303 206,303 206,303 206,303 205,303 205,303 205,303 205,303 205,303 205,303 205,303 203,303 202,303 201,303 199,303 198,303 197,303 195,303 194,303 188,303 187,303 181,303 167,303 147,303 146,303 145,303 144,303 142,303 141,303 140,303 139,303 138,303 136,303 135,303 134,303 134,303 134,303 133,303 133,303 133,303 133,303 132,303 132,303 132,303 132,303 132,303 132,303 132,303 132,303 131,303 131,303 131,303 131,303 131,303 131,303 130,303 130,303 130,303 130,303 130,303 130,303 130,303 129,303 129,303 129,303 129,303 129,303 129,303 129,303 129,303 129,303 127,303 126,303 126,303 126,303 125,303 125,303 125,303 125,303 125,303 125,303 125,303 124,303 124,303 123,303 123,303 123,303 "/>
<polyline fill="none" stroke="#ff0000" stroke-width="1" points="432,270 442,270 453,270 454,270 455,270 456,270 457,270 458,270 459,270 460,270 461,270 462,270 463,270 464,270 465,270 466,270 467,270 468,270 470,270 471,270 472,270 473,270 "/>
<polyline fill="none" stroke="#ff0000" stroke-width="1" points="124,270 125,270 126,270 128,270 129,270 130,270 131,270 132,270 134,270 135,270 136,270 137,270 138,270 139,270 140,270 141,270 142,270 143,270 144,270 144,270 145,270 157,270 167,270 177,270 188,270 202,270 220,270 234,270 245,270 255,270 245,270 234,270 220,270 202,270 188,270 177,270 167,270 157,270 145,270 144,270 144,270 143,270 142,270 141,270 140,270 139,270 138,270 137,270 136,270 135,270 134,270 132,270 131,270 130,270 129,270 128,270 126,270 125,270 124,270 "/>
<polyline fill="none" stroke="#ff0000" stroke-width="1" points="432,270 439,265 447,259 457,251 458,251 458,250 459,250 460,249 461,248 462,247 463,247 464,246 465,245 466,244 467,243 469,243 470,242 471,241 472,240 474,239 475,238 476,237 476,235 476,234 476,233 476,232 476,231 476,230 476,229 476,228 476,227 476,226 476,215 476,204 476,193 476,192 476,192 476,191 476,190 476,189 476,188 "/>
<polyline fill="none" stroke="#ff0000" stroke-width="1" points="476,181 476,180 476,179 476,178 476,178 476,178 476,178 476,178 476,177 476,177 476,177 476,176 476,176 476,176 476,176 476,176 476,175 476,175 476,175 476,175 476,175 476,174 476,174 476,174 476,174 476,174 476,174 476,174 476,173 476,173 476,173 476,173 476,173 476,172 476,172 476,172 476,172 476,171 476,171 476,171 476,171 476,171 476,171 476,171 476,171 476,171 476,172 476,172 476,172 476,172 476,173 476,173 476,173 476,173 476,173 476,174 476,174 476,174 476,174 476,174 476,174 476,174 476,175 476,175 476,175 476,175 476,175 476,176 476,176 476,176 476,176 476,176 476,177 476,177 476,177 476,178 476,178 476,178 476,178 476,178 476,179 476,180 476,181 "/>
<polyline fill="none" stroke="#ff0000" stroke-width="1" points="211,237 211,237 211,237 211,237 211,237 211,237 212,238 212,238 212,238 212,238 212,238 212,238 212,238 212,238 212,238 213,238 213,238 213,238 213,238 213,239 213,239 213,239 215,240 216,241 217,242 218,243 219,243 221,244 222,245 223,246 224,247 225,247 226,248 227,249 228,250 228,250 229,251 230,251 240,259 248,265 255,270 248,265 240,259 230,251 229,251 228,250 228,250 227,249 226,248 225,247 224,247 223,246 222,245 221,244 219,243 218,243 217,242 216,241 215,240 213,239 213,239 213,239 213,238 213,238 213,238 213,238 212,238 212,238 212,238 212,238 212,238 212,238 212,238 212,238 212,238 211,237 211,237 211,237 211,237 211,237 211,237 "/>
<polyline fill="none" stroke="#ff0000" stroke-width="1" points="432,270 432,263 432,254 432,244 432,230 432,220 432,211 432,204 432,196 432,188 432,187 432,187 432,186 432,185 432,184 432,184 432,183 432,182 432,181 432,181 432,180 432,179 432,178 432,177 432,176 432,176 432,175 432,174 432,173 432,172 "/>
<polyline fill="none" stroke="#ff0000" stroke-width="1" points="255,239 255,240 255,241 255,242 255,243 255,244 255,245 255,245 255,246 255,247 255,248 255,249 255,249 255,250 255,251 255,251 255,252 255,253 255,254 255,254 255,263 255,270 255,263 255,254 255,254 255,253 255,252 255,251 255,251 255,250 255,249 255,249 255,248 255,247 255,246 255,245 255,245 255,244 255,243 255,242 255,241 255,240 255,239 "/>
<polyline fill="none" stroke="#ff0000" stroke-width="1" points="432,270 425,265 417,259 407,251 406,251 405,250 404,250 403,249 403,248 402,247 401,247 400,246 399,245 397,244 396,243 395,243 394,242 393,241 391,240 390,239 389,238 388,237 388,235 388,234 388,233 388,232 388,231 388,230 388,229 388,228 388,227 388,226 388,215 388,204 388,193 388,192 388,192 388,191 388,190 388,189 388,188 "/>
<polyline fill="none" stroke="#ff0000" stroke-width="1" points="388,181 388,180 388,179 388,178 388,178 388,178 388,178 388,178 388,177 388,177 388,177 388,176 388,176 388,176 388,176 388,176 388,175 388,175 388,175 388,175 388,175 388,174 388,174 388,174 388,174 388,174 388,174 388,174 388,173 388,173 388,173 388,173 388,173 388,172 388,172 388,172 388,172 388,171 388,171 388,171 388,171 388,171 388,171 388,171 388,171 388,171 388,172 388,172 388,172 388,172 388,173 388,173 388,173 388,173 388,173 388,174 388,174 388,174 388,174 388,174 388,174 388,174 388,175 388,175 388,175 388,175 388,175 388,176 388,176 388,176 388,176 388,176 388,177 388,177 388,177 388,178 388,178 388,178 388,178 388,178 388,179 388,180 388,181 "/>
<polyline fill="none" stroke="#ff0000" stroke-width="1" points="299,237 299,237 299,237 299,237 299,237 299,237 298,238 298,238 298,238 298,238 298,238 298,238 298,238 298,238 298,238 298,238 297,238 297,238 297,238 297,239 297,239 297,239 296,240 294,241 293,242 292,243 291,243 289,244 288,245 287,246 286,247 285,247 284,248 283,249 283,250 282,250 281,251 280,251 270,259 262,265 255,270 262,265 270,259 280,251 281,251 282,250 283,250 283,249 284,248 285,247 286,247 287,246 288,245 289,244 291,243 292,243 293,242 294,241 296,240 297,239 297,239 297,239 297,238 297,238 297,238 298,238 298,238 298,238 298,238 298,238 298,238 298,238 298,238 298,238 298,238 299,237 299,237 299,237 299,237 299,237 299,237 "/>
<polyline fill="none" stroke="#ff0000" stroke-width="1" points="432,270 422,270 411,270 397,270 379,270 365,270 354,270 343,270 333,270 322,270 308,270 290,270 276,270 265,270 255,270 "/>
<polyline fill="none" stroke="#ff0000" stroke-width="1" points="432,270 425,275 417,281 407,289 406,289 405,290 404,291 403,291 403,292 402,293 401,294 400,294 399,295 397,296 396,297 395,298 394,299 393,300 391,301 390,302 389,303 388,304 386,303 384,303 383,303 381,303 380,303 388,310 377,303 376,303 375,303 374,303 358,303 343,303 329,303 323,303 322,303 316,303 315,303 313,303 312,303 311,303 310,303 308,303 307,303 306,303 305,303 305,303 305,303 305,303 305,303 305,303 304,303 304,303 304,303 304,303 304,303 304,303 303,303 303,303 303,303 303,303 303,303 303,303 303,303 303,303 302,303 302,303 302,303 302,303 301,303 301,303 301,303 301,303 301,303 301,303 301,303 300,303 300,303 300,303 300,303 300,303 300,303 300,303 298,303 297,302 296,301 294,300 293,299 292,298 291,297 289,296 288,295 287,294 286,294 285,293 284,292 283,291 283,291 282,290 281,289 280,289 270,281 262,275 255,270 "/>
<polyline fill="none" stroke="#ff0000" stroke-width="1" points="432,270 432,278 432,286 432,297 432,310 432,320 432,329 432,336 432,344 432,352 432,353 432,354 432,354 432,355 432,356 432,357 432,357 432,358 432,359 432,360 432,360 432,361 432,362 432,363 432,364 432,365 432,366 432,367 432,368 432,369 "/>
<polyline fill="none" stroke="#ff0000" stroke-width="1" points="255,301 255,300 255,299 255,298 255,297 255,297 255,296 255,295 255,294 255,293 255,292 255,292 255,291 255,290 255,290 255,289 255,288 255,287 255,287 255,286 255,278 255,270 255,278 255,286 255,287 255,287 255,288 255,289 255,290 255,290 255,291 255,292 255,292 255,293 255,294 255,295 255,296 255,297 255,297 255,298 255,299 255,300 255,301 "/>
<polyline fill="none" stroke="#ff0000" stroke-width="1" points="432,289 433,289 434,289 435,289 436,289 436,289 437,289 438,289 439,288 440,288 441,288 442,288 443,288 443,287 444,287 445,287 446,286 447,286 447,285 448,285 449,285 449,284 450,284 451,283 451,283 452,282 452,281 453,281 453,280 454,280 454,279 455,279 455,278 456,277 456,277 456,276 456,275 457,275 457,274 457,273 457,273 457,272 457,271 457,271 457,270 457,269 457,268 457,268 457,267 457,266 457,266 456,265 456,264 456,264 456,263 455,262 455,262 454,261 454,261 454,260 453,259 453,259 452,258 451,258 451,257 450,257 449,256 449,256 448,255 447,255 447,255 446,254 445,254 444,253 443,253 443,253 442,253 441,252 440,252 439,252 438,252 437,251 437,251 436,251 435,251 434,251 433,251 432,251 431,251 430,251 429,251 428,251 427,251 426,251 426,252 425,252 424,252 423,252 422,252 421,253 420,253 420,253 419,254 418,254 417,254 417,255 416,255 415,256 414,256 414,257 413,257 412,258 412,258 411,259 411,259 410,260 410,260 409,261 409,262 409,262 408,263 408,264 408,264 407,265 407,266 407,266 407,267 407,268 406,268 406,269 406,270 406,270 406,271 406,272 407,272 407,273 407,274 407,274 407,275 407,276 408,276 408,277 408,278 409,278 409,279 410,280 410,280 411,281 411,281 412,282 412,282 413,283 414,283 414,284 415,284 416,285 416,285 417,286 418,286 419,286 419,287 420,287 421,287 422,288 423,288 424,288 424,288 425,289 426,289 427,289 428,289 429,289 430,289 431,289 432,289 433,289 434,289 434,289 435,289 436,289 437,289 438,289 439,289 440,288 441,288 442,288 442,288 443,287 444,287 445,287 446,286 446,286 447,285 448,285 449,285 449,284 450,284 "/>
<polyline fill="none" stroke="#ff0000" stroke-width="1" points="432,317 433,317 435,317 437,317 438,317 440,317 442,317 443,317 445,316 447,316 449,316 450,316 452,315 454,315 456,315 458,314 461,314 463,313 465,312 468,312 471,311 471,311 471,311 471,311 472,311 472,311 472,311 472,311 472,310 473,310 473,310 473,310 473,310 473,310 474,310 474,310 474,310 474,310 475,310 475,310 475,310 475,310 475,310 476,310 "/>
<polyline fill="none" stroke="#ff0000" stroke-width="1" points="131,303 131,303 131,303 131,303 131,302 131,302 131,302 131,302 131,302 131,302 132,301 132,301 132,301 132,301 132,301 132,301 132,300 133,298 134,296 135,294 136,293 136,291 137,289 138,288 138,286 139,285 139,283 139,282 140,281 140,279 140,278 141,277 141,276 141,274 141,273 141,272 141,271 141,270 141,268 141,267 141,266 141,265 141,264 140,262 140,261 140,260 140,258 139,257 139,256 138,254 138,253 137,251 137,249 136,248 135,246 134,244 133,242 132,240 132,240 132,240 132,240 132,239 132,239 132,239 132,239 131,239 131,239 131,238 131,238 131,238 131,238 131,238 131,238 131,237 131,237 131,237 131,238 131,238 131,238 131,238 131,238 131,238 131,239 131,239 132,239 132,239 132,239 132,239 132,240 132,240 132,240 132,240 133,242 134,244 135,246 136,248 137,249 137,251 138,253 138,254 139,256 139,257 140,258 140,260 140,261 140,262 141,264 141,265 141,266 141,267 141,268 141,270 141,271 141,272 141,273 141,274 141,276 141,277 140,278 140,279 140,281 139,282 139,283 139,285 138,286 138,288 137,289 136,291 136,293 135,294 134,296 133,298 132,300 132,301 132,301 132,301 132,301 132,301 132,301 131,302 131,302 131,302 131,302 131,302 131,302 131,303 131,303 131,303 131,303 "/>
<polyline fill="none" stroke="#ff0000" stroke-width="1" points="476,231 476,231 475,231 475,231 475,231 475,230 474,230 474,230 474,230 474,230 474,230 473,230 473,230 473,230 473,230 473,230 472,230 472,230 472,230 472,230 471,230 471,229 471,229 468,229 466,228 463,227 461,227 459,226 457,226 454,225 453,225 451,225 449,224 447,224 445,224 443,224 442,223 440,223 438,223 437,223 435,223 434,223 432,223 430,223 429,223 427,223 426,223 424,223 422,223 421,224 419,224 417,224 415,224 414,225 412,225 410,225 408,226 406,226 403,227 401,227 399,228 396,228 393,229 390,230 379,237 378,240 377,242 376,244 375,246 374,247 374,249 373,251 372,252 372,254 371,255 371,257 371,258 370,259 370,261 370,262 370,263 369,265 369,266 369,267 369,268 369,269 369,271 369,272 369,273 369,274 369,275 369,277 370,278 370,279 370,280 370,282 371,283 371,284 372,286 372,287 373,289 373,291 374,292 375,294 376,296 377,298 378,300 379,302 389,310 392,311 395,312 398,312 400,313 403,313 405,314 407,314 409,315 411,315 413,316 415,316 417,316 418,316 420,317 422,317 423,317 425,317 427,317 428,317 430,317 432,317 433,317 435,317 436,317 438,317 440,317 441,317 443,317 445,317 446,316 448,316 450,316 452,315 454,315 456,315 458,314 460,314 462,313 465,313 467,312 470,311 473,310 476,309 473,310 470,311 467,312 465,313 462,313 460,314 458,314 456,315 454,315 452,315 450,316 448,316 446,316 445,317 443,317 441,317 440,317 438,317 436,317 435,317 433,317 432,317 430,317 428,317 427,317 425,317 423,317 422,317 420,317 418,316 417,316 415,316 413,316 411,315 409,315 407,314 405,314 403,313 400,313 398,312 395,312 392,311 389,310 379,302 378,300 377,298 376,296 375,294 374,292 373,291 373,289 372,287 372,286 371,284 371,283 370,282 370,280 370,279 370,278 369,277 369,275 369,274 369,273 369,272 369,271 369,269 369,268 369,267 369,266 369,265 370,263 370,262 370,261 370,259 371,258 371,257 371,255 372,254 372,252 373,251 374,249 374,247 375,246 376,244 377,242 378,240 379,237 390,230 393,229 396,228 399,228 401,227 403,227 406,226 408,226 410,225 412,225 414,225 415,224 417,224 419,224 421,224 422,223 424,223 426,223 427,223 429,223 430,223 432,223 434,223 435,223 437,223 438,223 440,223 442,223 443,224 445,224 447,224 449,224 451,225 453,225 454,225 457,226 459,226 461,227 463,227 466,228 468,229 471,229 471,229 471,230 472,230 472,230 472,230 472,230 473,230 473,230 473,230 473,230 473,230 474,230 474,230 474,230 474,230 474,230 475,230 475,231 475,231 475,231 476,231 476,231 "/>
<polyline fill="none" stroke="#ff0000" stroke-width="1" points="432,336 433,336 435,336 437,336 438,336 440,336 442,336 443,336 445,336 447,336 449,336 450,336 452,336 454,336 456,336 458,336 461,336 463,336 465,336 468,336 471,336 471,336 471,336 471,336 472,336 472,336 472,336 472,336 472,336 473,336 473,336 473,336 473,336 473,336 474,336 474,336 474,336 474,336 475,336 475,336 475,336 475,336 475,336 476,336 "/>
<polyline fill="none" stroke="#ff0000" stroke-width="1" points="167,303 167,303 167,303 167,303 167,302 167,302 167,302 167,302 167,302 167,302 167,301 167,301 167,301 167,301 167,301 167,301 167,300 167,298 167,296 167,294 167,293 167,291 167,289 167,288 167,286 167,285 167,283 167,282 167,281 167,279 167,278 167,277 167,276 167,274 167,273 167,272 167,271 167,270 167,268 167,267 167,266 167,265 167,264 167,262 167,261 167,260 167,258 167,257 167,256 167,254 167,253 167,251 167,249 167,248 167,246 167,244 167,242 167,240 167,240 167,240 167,240 167,239 167,239 167,239 167,239 167,239 167,239 167,238 167,238 167,238 167,238 167,238 167,238 167,237 167,237 167,237 167,238 167,238 167,238 167,238 167,238 167,238 167,239 167,239 167,239 167,239 167,239 167,239 167,240 167,240 167,240 167,240 167,242 167,244 167,246 167,248 167,249 167,251 167,253 167,254 167,256 167,257 167,258 167,260 167,261 167,262 167,264 167,265 167,266 167,267 167,268 167,270 167,271 167,272 167,273 167,274 167,276 167,277 167,278 167,279 167,281 167,282 167,283 167,285 167,286 167,288 167,289 167,291 167,293 167,294 167,296 167,298 167,300 167,301 167,301 167,301 167,301 167,301 167,301 167,302 167,302 167,302 167,302 167,302 167,302 167,303 167,303 167,303 167,303 "/>
<polyline fill="none" stroke="#ff0000" stroke-width="1" points="476,204 476,204 475,204 475,204 475,204 475,204 474,204 474,204 474,204 474,204 474,204 473,204 473,204 473,204 473,204 473,204 472,204 472,204 472,204 472,204 471,204 471,204 471,204 468,204 466,204 463,204 461,204 459,204 457,204 454,204 453,204 451,204 449,204 447,204 445,204 443,204 442,204 440,204 438,204 437,204 435,204 434,204 432,204 430,204 429,204 427,204 426,204 424,204 422,204 421,204 419,204 417,204 415,204 414,204 412,204 410,204 408,204 406,204 403,204 401,204 399,204 396,204 393,204 393,204 393,204 393,204 392,204 392,204 392,204 392,204 392,204 391,204 391,204 391,204 391,204 391,204 390,204 390,204 390,204 390,204 390,204 389,204 389,204 389,204 389,204 388,204 388,204 388,204 388,204 388,204 389,204 389,204 389,204 389,204 390,204 390,204 390,204 390,204 390,204 391,204 391,204 391,204 391,204 391,204 392,204 392,204 392,204 392,204 392,204 393,204 393,204 393,204 393,204 396,204 399,204 401,204 403,204 406,204 408,204 410,204 412,204 414,204 415,204 417,204 419,204 421,204 422,204 424,204 426,204 427,204 429,204 430,204 432,204 434,204 435,204 437,204 438,204 440,204 442,204 443,204 445,204 447,204 449,204 451,204 453,204 454,204 457,204 459,204 461,204 463,204 466,204 468,204 471,204 471,204 471,204 472,204 472,204 472,204 472,204 473,204 473,204 473,204 473,204 473,204 474,204 474,204 474,204 474,204 474,204 475,204 475,204 475,204 475,204 476,204 476,204 "/>
<polyline fill="none" stroke="#ff0000" stroke-width="1" points="343,237 343,237 343,238 343,238 343,238 343,238 343,238 343,238 343,239 343,239 343,239 343,239 343,239 343,239 343,240 343,242 343,244 343,246 343,247 343,249 343,251 343,252 343,254 343,255 343,257 343,258 343,259 343,261 343,262 343,263 343,265 343,266 343,267 343,268 343,269 343,271 343,272 343,273 343,274 343,275 343,277 343,278 343,279 343,280 343,282 343,283 343,284 343,286 343,287 343,289 343,291 343,292 343,294 343,296 343,298 343,300 343,300 343,300 343,300 343,301 343,301 343,301 343,301 343,301 343,301 343,302 343,302 343,302 343,302 343,302 343,302 343,303 343,303 343,303 343,303 343,303 343,303 343,303 343,302 343,302 343,302 343,302 343,302 343,302 343,301 343,301 343,301 343,301 343,301 343,301 343,300 343,300 343,300 343,300 343,298 343,296 343,294 343,292 343,291 343,289 343,287 343,286 343,284 343,283 343,282 343,280 343,279 343,278 343,277 343,275 343,274 343,273 343,272 343,271 343,269 343,268 343,267 343,266 343,265 343,263 343,262 343,261 343,259 343,258 343,257 343,255 343,254 343,252 343,251 343,249 343,247 343,246 343,244 343,242 343,240 343,239 343,239 343,239 343,239 343,239 343,239 343,238 343,238 343,238 343,238 343,238 343,238 343,237 343,237 "/>
<polyline fill="none" stroke="#ff0000" stroke-width="1" points="388,336 388,336 389,336 389,336 389,336 389,336 389,336 390,336 390,336 390,336 390,336 390,336 391,336 391,336 391,336 391,336 392,336 392,336 392,336 392,336 392,336 395,336 398,336 400,336 403,336 405,336 407,336 409,336 411,336 413,336 415,336 417,336 418,336 420,336 422,336 445,336 476,336 445,336 422,336 420,336 418,336 417,336 415,336 413,336 411,336 409,336 407,336 405,336 403,336 400,336 398,336 395,336 392,336 392,336 392,336 392,336 392,336 391,336 391,336 391,336 391,336 390,336 390,336 390,336 390,336 390,336 389,336 389,336 389,336 389,336 389,336 388,336 388,336 "/>
<polyline fill="none" stroke="#ff0000" stroke-width="1" points="432,356 433,356 435,356 437,356 438,356 440,356 442,356 443,356 445,356 447,357 449,357 450,357 452,358 454,358 456,358 458,359 461,359 463,360 465,360 468,361 471,362 471,362 471,362 471,362 472,362 472,362 472,362 472,362 472,362 473,362 473,363 473,363 473,363 473,363 474,363 474,363 474,363 474,363 475,363 475,363 475,363 475,363 475,363 476,363 "/>
<polyline fill="none" stroke="#ff0000" stroke-width="1" points="203,303 203,303 202,303 202,303 202,302 202,302 202,302 202,302 202,302 202,302 202,301 202,301 202,301 201,301 201,301 201,301 201,300 200,298 199,296 198,294 197,293 197,291 196,289 196,288 195,286 195,285 194,283 194,282 193,281 193,279 193,278 193,277 192,276 192,274 192,273 192,272 192,271 192,270 192,268 192,267 192,266 192,265 193,264 193,262 193,261 193,260 194,258 194,257 194,256 195,254 195,253 196,251 197,249 197,248 198,246 199,244 200,242 201,240 201,240 201,240 201,240 201,239 201,239 202,239 202,239 202,239 202,239 202,238 202,238 202,238 202,238 202,238 202,238 202,237 203,237 202,237 202,238 202,238 202,238 202,238 202,238 202,238 202,239 202,239 202,239 202,239 201,239 201,239 201,240 201,240 201,240 201,240 200,242 199,244 198,246 197,248 197,249 196,251 195,253 195,254 194,256 194,257 194,258 193,260 193,261 193,262 193,264 192,265 192,266 192,267 192,268 192,270 192,271 192,272 192,273 192,274 192,276 193,277 193,278 193,279 193,281 194,282 194,283 195,285 195,286 196,288 196,289 197,291 197,293 198,294 199,296 200,298 201,300 201,301 201,301 201,301 202,301 202,301 202,301 202,302 202,302 202,302 202,302 202,302 202,302 202,303 202,303 203,303 203,303 "/>
<polyline fill="none" stroke="#ff0000" stroke-width="1" points="476,177 476,177 475,177 475,177 475,177 475,177 474,177 474,177 474,177 474,177 474,178 473,178 473,178 473,178 473,178 473,178 472,178 472,178 472,178 472,178 471,178 471,178 471,178 468,179 466,180 463,180 461,181 459,181 457,182 454,182 453,183 451,183 449,183 447,184 445,184 443,184 442,184 440,184 438,184 437,185 435,185 434,185 432,185 430,185 429,185 427,185 426,184 424,184 422,184 421,184 419,184 417,184 415,183 414,183 412,183 410,182 408,182 406,182 403,181 401,180 399,180 396,179 393,178 393,178 393,178 393,178 392,178 392,178 392,178 392,178 392,178 391,178 391,178 391,178 391,178 391,178 390,178 390,178 390,177 390,177 390,177 389,177 389,177 389,177 389,177 388,177 388,177 388,177 388,177 388,177 389,177 389,177 389,177 389,177 390,177 390,177 390,177 390,178 390,178 391,178 391,178 391,178 391,178 391,178 392,178 392,178 392,178 392,178 392,178 393,178 393,178 393,178 393,178 396,179 399,180 401,180 403,181 406,182 408,182 410,182 412,183 414,183 415,183 417,184 419,184 421,184 422,184 424,184 426,184 427,185 429,185 430,185 432,185 434,185 435,185 437,185 438,184 440,184 442,184 443,184 445,184 447,184 449,183 451,183 453,183 454,182 457,182 459,181 461,181 463,180 466,180 468,179 471,178 471,178 471,178 472,178 472,178 472,178 472,178 473,178 473,178 473,178 473,178 473,178 474,178 474,177 474,177 474,177 474,177 475,177 475,177 475,177 475,177 476,177 476,177 "/>
<polyline fill="none" stroke="#ff0000" stroke-width="1" points="307,237 308,237 308,238 308,238 308,238 308,238 308,238 308,238 308,239 308,239 308,239 308,239 309,239 309,239 309,240 310,242 311,244 312,246 312,247 313,249 314,251 314,252 315,254 315,255 316,257 316,258 317,259 317,261 317,262 317,263 318,265 318,266 318,267 318,268 318,269 318,271 318,272 318,273 318,274 318,275 317,277 317,278 317,279 317,280 316,282 316,283 316,284 315,286 315,287 314,289 313,291 313,292 312,294 311,296 310,298 309,300 309,300 309,300 309,300 309,301 309,301 309,301 309,301 308,301 308,301 308,302 308,302 308,302 308,302 308,302 308,302 308,303 308,303 308,303 307,303 308,303 308,303 308,303 308,302 308,302 308,302 308,302 308,302 308,302 308,301 308,301 309,301 309,301 309,301 309,301 309,300 309,300 309,300 309,300 310,298 311,296 312,294 313,292 313,291 314,289 315,287 315,286 316,284 316,283 316,282 317,280 317,279 317,278 317,277 318,275 318,274 318,273 318,272 318,271 318,269 318,268 318,267 318,266 318,265 317,263 317,262 317,261 317,259 316,258 316,257 315,255 315,254 314,252 314,251 313,249 312,247 312,246 311,244 310,242 309,240 309,239 309,239 308,239 308,239 308,239 308,239 308,238 308,238 308,238 308,238 308,238 308,238 308,237 307,237 "/>
<polyline fill="none" stroke="#ff0000" stroke-width="1" points="388,363 388,363 389,363 389,363 389,363 389,363 389,363 390,363 390,363 390,363 390,363 390,363 391,363 391,363 391,362 391,362 392,362 392,362 392,362 392,362 392,362 395,361 398,361 400,360 403,359 405,359 407,358 409,358 411,358 413,357 415,357 417,357 418,356 420,356 422,356 423,356 425,356 427,356 428,356 430,356 432,356 433,356 435,356 436,356 438,356 440,356 441,356 443,356 445,356 446,357 448,357 450,357 452,357 454,358 456,358 458,359 460,359 462,360 465,360 467,361 470,362 473,363 476,364 473,363 470,362 467,361 465,360 462,360 460,359 458,359 456,358 454,358 452,357 450,357 448,357 446,357 445,356 443,356 441,356 440,356 438,356 436,356 435,356 433,356 432,356 430,356 428,356 427,356 425,356 423,356 422,356 420,356 418,356 417,357 415,357 413,357 411,358 409,358 407,358 405,359 403,359 400,360 398,361 395,361 392,362 392,362 392,362 392,362 392,362 391,362 391,362 391,363 391,363 390,363 390,363 390,363 390,363 390,363 389,363 389,363 389,363 389,363 389,363 388,363 388,363 "/>
<polyline fill="none" stroke="#ff0000" stroke-width="1" points="255,289 254,289 253,289 252,289 251,289 250,289 250,289 249,289 248,288 247,288 246,288 245,288 244,288 243,287 243,287 242,287 241,286 240,286 240,285 239,285 238,285 237,284 237,284 236,283 236,283 235,282 234,281 234,281 233,280 233,280 232,279 232,279 232,278 231,277 231,277 231,276 230,275 230,275 230,274 230,273 230,273 230,272 230,271 230,271 230,270 230,269 230,268 230,268 230,267 230,266 230,266 230,265 231,264 231,264 231,263 232,262 232,262 232,261 233,261 233,260 234,259 234,259 235,258 236,258 236,257 237,257 237,256 238,256 239,255 240,255 240,255 241,254 242,254 243,253 243,253 244,253 245,253 246,252 247,252 248,252 249,252 249,251 250,251 251,251 252,251 253,251 254,251 255,251 256,251 257,251 258,251 259,251 260,251 260,251 261,252 262,252 263,252 264,252 265,252 266,253 266,253 267,253 268,254 269,254 270,254 270,255 271,255 272,256 272,256 273,257 274,257 274,258 275,258 276,259 276,259 277,260 277,260 278,261 278,262 278,262 279,263 279,264 279,264 280,265 280,266 280,266 280,267 280,268 280,268 281,269 281,270 281,270 281,271 280,272 280,272 280,273 280,274 280,274 280,275 279,276 279,276 279,277 278,278 278,278 278,279 277,280 277,280 276,281 276,281 275,282 275,282 274,283 273,283 273,284 272,284 271,285 271,285 270,286 269,286 268,286 268,287 267,287 266,287 265,288 264,288 263,288 262,288 262,289 261,289 260,289 259,289 258,289 257,289 256,289 255,289 254,289 253,289 252,289 252,289 251,289 250,289 249,289 248,289 247,288 246,288 245,288 245,288 244,287 243,287 242,287 241,286 241,286 240,285 239,285 238,285 238,284 237,284 "/>
<polyline fill="none" stroke="#ff0000" stroke-width="1" points="438,336 438,339 438,336 "/>
<polyline fill="none" stroke="#ff0000" stroke-width="1" points="444,336 444,339 444,336 444,339 "/>
<polyline fill="none" stroke="#ff0000" stroke-width="1" points="450,336 450,339 450,336 450,339 "/>
<polyline fill="none" stroke="#ff0000" stroke-width="1" points="457,336 457,339 457,336 457,339 "/>
<polyline fill="none" stroke="#ff0000" stroke-width="1" points="466,336 466,339 466,336 466,339 "/>
<polyline fill="none" stroke="#ff0000" stroke-width="1" points="167,296 171,296 167,296 "/>
<polyline fill="none" stroke="#ff0000" stroke-width="1" points="167,289 171,289 167,289 "/>
<polyline fill="none" stroke="#ff0000" stroke-width="1" points="167,284 171,284 167,284 "/>
<polyline fill="none" stroke="#ff0000" stroke-width="1" points="167,279 171,279 167,279 "/>
<polyline fill="none" stroke="#ff0000" stroke-width="1" points="167,275 171,275 167,275 "/>
<polyline fill="none" stroke="#ff0000" stroke-width="1" points="167,266 171,266 167,266 "/>
<polyline fill="none" stroke="#ff0000" stroke-width="1" points="167,261 171,261 167,261 "/>
<polyline fill="none" stroke="#ff0000" stroke-width="1" points="167,256 171,256 167,256 "/>
<polyline fill="none" stroke="#ff0000" stroke-width="1" points="167,251 171,251 167,251 "/>
<polyline fill="none" stroke="#ff0000" stroke-width="1" points="167,245 171,245 167,245 "/>
<polyline fill="none" stroke="#ff0000" stroke-width="1" points="466,204 466,201 466,204 "/>
<polyline fill="none" stroke="#ff0000" stroke-width="1" points="457,204 457,201 457,204 "/>
<polyline fill="none" stroke="#ff0000" stroke-width="1" points="450,204 450,201 450,204 "/>
<polyline fill="none" stroke="#ff0000" stroke-width="1" points="444,204 444,201 444,204 "/>
<polyline fill="none" stroke="#ff0000" stroke-width="1" points="438,204 438,201 438,204 "/>
<polyline fill="none" stroke="#ff0000" stroke-width="1" points="426,204 426,201 426,204 "/>
<polyline fill="none" stroke="#ff0000" stroke-width="1" points="420,204 420,201 420,204 "/>
<polyline fill="none" stroke="#ff0000" stroke-width="1" points="414,204 414,201 414,204 "/>
<polyline fill="none" stroke="#ff0000" stroke-width="1" points="406,204 406,201 406,204 "/>
<polyline fill="none" stroke="#ff0000" stroke-width="1" points="398,204 398,201 398,204 "/>
<polyline fill="none" stroke="#ff0000" stroke-width="1" points="343,245 339,245 343,245 "/>
<polyline fill="none" stroke="#ff0000" stroke-width="1" points="343,251 339,251 343,251 "/>
<polyline fill="none" stroke="#ff0000" stroke-width="1" points="343,256 339,256 343,256 "/>
<polyline fill="none" stroke="#ff0000" stroke-width="1" points="343,261 339,261 343,261 "/>
<polyline fill="none" stroke="#ff0000" stroke-width="1" points="343,266 339,266 343,266 "/>
<polyline fill="none" stroke="#ff0000" stroke-width="1" points="343,275 339,275 343,275 "/>
<polyline fill="none" stroke="#ff0000" stroke-width="1" points="343,279 339,279 343,279 "/>
<polyline fill="none" stroke="#ff0000" stroke-width="1" points="343,284 339,284 343,284 "/>
<polyline fill="none" stroke="#ff0000" stroke-width="1" points="343,289 339,289 343,289 "/>
<polyline fill="none" stroke="#ff0000" stroke-width="1" points="343,296 339,296 343,296 "/>
<polyline fill="none" stroke="#ff0000" stroke-width="1" points="398,336 398,339 398,336 "/>
<polyline fill="none" stroke="#ff0000" stroke-width="1" points="406,336 406,339 406,336 "/>
<polyline fill="none" stroke="#ff0000" stroke-width="1" points="414,336 414,339 414,336 "/>
<polyline fill="none" stroke="#ff0000" stroke-width="1" points="420,336 420,339 420,336 "/>
<polyline fill="none" stroke="#ff0000" stroke-width="1" points="426,336 426,339 426,336 "/>
<polyline fill="none" stroke="#ff0000" stroke-width="1" points="432,267 436,267 "/>
<polyline fill="none" stroke="#ff0000" stroke-width="1" points="432,264 436,264 432,264 "/>
<polyline fill="none" stroke="#ff0000" stroke-width="1" points="432,261 436,261 432,261 "/>
<polyline fill="none" stroke="#ff0000" stroke-width="1" points="432,258 436,258 432,258 "/>
<polyline fill="none" stroke="#ff0000" stroke-width="1" points="432,255 436,254 432,255 "/>
<polyline fill="none" stroke="#ff0000" stroke-width="1" points="432,247 436,247 432,247 "/>
<polyline fill="none" stroke="#ff0000" stroke-width="1" points="432,242 436,242 432,242 "/>
<polyline fill="none" stroke="#ff0000" stroke-width="1" points="432,237 436,237 432,237 "/>
<polyline fill="none" stroke="#ff0000" stroke-width="1" points="432,232 436,231 432,232 "/>
<polyline fill="none" stroke="#ff0000" stroke-width="1" points="432,227 436,227 432,227 "/>
<polyline fill="none" stroke="#ff0000" stroke-width="1" points="432,219 436,219 432,219 "/>
<polyline fill="none" stroke="#ff0000" stroke-width="1" points="432,216 436,216 432,216 "/>
<polyline fill="none" stroke="#ff0000" stroke-width="1" points="432,213 436,213 432,213 "/>
<polyline fill="none" stroke="#ff0000" stroke-width="1" points="432,210 436,210 432,210 "/>
<polyline fill="none" stroke="#ff0000" stroke-width="1" points="432,207 436,207 432,207 "/>
<polyline fill="none" stroke="#ff0000" stroke-width="1" points="432,201 436,201 432,201 "/>
<polyline fill="none" stroke="#ff0000" stroke-width="1" points="432,198 436,198 432,198 "/>
<polyline fill="none" stroke="#ff0000" stroke-width="1" points="432,195 436,195 432,195 "/>
<polyline fill="none" stroke="#ff0000" stroke-width="1" points="432,192 436,192 432,192 "/>
<polyline fill="none" stroke="#ff0000" stroke-width="1" points="432,188 436,188 432,188 "/>
<polyline fill="none" stroke="#ff0000" stroke-width="1" points="432,181 436,181 432,181 "/>
<polyline fill="none" stroke="#ff0000" stroke-width="1" points="432,176 436,176 432,176 "/>
<polyline fill="none" stroke="#ff0000" stroke-width="1" points="432,171 435,169 432,171 "/>
<polyline fill="none" stroke="#ff0000" stroke-width="1" points="255,242 251,242 255,242 "/>
<polyline fill="none" stroke="#ff0000" stroke-width="1" points="255,247 251,247 255,247 "/>
<polyline fill="none" stroke="#ff0000" stroke-width="1" points="255,255 251,254 255,255 "/>
<polyline fill="none" stroke="#ff0000" stroke-width="1" points="255,258 251,258 255,258 "/>
<polyline fill="none" stroke="#ff0000" stroke-width="1" points="255,261 251,261 255,261 "/>
<polyline fill="none" stroke="#ff0000" stroke-width="1" points="255,264 251,264 255,264 "/>
<polyline fill="none" stroke="#ff0000" stroke-width="1" points="255,267 251,267 255,267 "/>
<polyline fill="none" stroke="#ff0000" stroke-width="1" points="475,336 475,336 475,336 474,336 474,336 474,336 473,336 473,336 473,336 472,336 472,336 472,336 471,336 471,336 471,336 470,336 470,336 470,336 470,336 469,336 469,336 469,336 468,336 468,336 468,336 467,336 467,336 463,336 460,336 456,336 453,336 450,336 447,336 445,336 442,336 439,336 437,336 434,336 432,336 "/>
<polyline fill="none" stroke="#ff0000" stroke-width="1" points="167,303 167,300 167,297 167,294 167,291 167,288 167,286 167,284 167,282 167,280 167,278 167,276 167,274 167,272 167,270 "/>
<polyline fill="none" stroke="#ff0000" stroke-width="1" points="167,270 167,268 167,266 167,265 167,263 167,261 167,259 167,256 167,254 167,252 167,249 167,247 167,244 167,243 167,243 167,243 167,243 167,243 167,242 167,242 167,242 167,242 167,241 167,241 167,241 167,241 167,241 167,240 167,240 167,240 167,240 167,239 167,239 167,239 167,239 167,238 167,238 167,238 167,238 167,237 167,237 "/>
<polyline fill="none" stroke="#ff0000" stroke-width="1" points="476,204 471,204 467,204 463,204 460,204 456,204 453,204 450,204 447,204 445,204 442,204 439,204 437,204 434,204 432,204 "/>
<polyline fill="none" stroke="#ff0000" stroke-width="1" points="432,204 429,204 427,204 424,204 422,204 419,204 416,204 414,204 411,204 407,204 404,204 400,204 397,204 392,204 388,204 "/>
<polyline fill="none" stroke="#ff0000" stroke-width="1" points="343,238 343,238 343,238 343,238 343,239 343,239 343,239 343,239 343,240 343,240 343,240 343,240 343,241 343,241 343,241 343,241 343,241 343,242 343,242 343,242 343,242 343,243 343,243 343,243 343,243 343,243 343,244 343,247 343,249 343,252 343,254 343,256 343,259 343,261 343,263 343,265 343,266 343,268 343,270 "/>
<polyline fill="none" stroke="#ff0000" stroke-width="1" points="343,270 343,272 343,274 343,276 343,278 343,280 343,282 343,284 343,286 343,288 343,291 343,294 343,297 343,300 343,303 "/>
<polyline fill="none" stroke="#ff0000" stroke-width="1" points="388,336 389,336 389,336 389,336 390,336 390,336 390,336 391,336 391,336 391,336 392,336 392,336 392,336 393,336 393,336 393,336 394,336 394,336 394,336 395,336 395,336 395,336 395,336 396,336 396,336 396,336 397,336 400,336 404,336 407,336 411,336 414,336 416,336 419,336 422,336 424,336 427,336 429,336 432,336 "/>
<polyline fill="none" stroke="#ff0000" stroke-width="1" points="432,336 434,336 437,336 439,336 442,336 445,336 447,336 450,336 453,336 456,336 460,336 463,336 467,336 471,336 476,336 "/>
<polyline fill="none" stroke="#ff0000" stroke-width="1" points="432,336 434,336 437,336 439,336 442,336 445,336 447,336 450,336 453,336 456,336 460,336 463,336 467,336 471,336 476,336 "/>
<polyline fill="none" stroke="#ff0000" stroke-width="1" points="432,270 432,269 432,268 432,266 432,265 432,264 432,263 432,261 432,260 432,259 432,257 432,256 432,254 432,253 432,251 "/>
<polyline fill="none" stroke="#ff0000" stroke-width="1" points="432,251 432,249 432,248 432,246 432,244 432,242 432,239 432,237 432,235 432,232 432,230 432,228 432,226 432,225 432,223 "/>
<polyline fill="none" stroke="#ff0000" stroke-width="1" points="432,223 432,221 432,220 432,218 432,217 432,215 432,214 432,213 432,211 432,210 432,209 432,208 432,206 432,205 432,204 "/>
<polyline fill="none" stroke="#ff0000" stroke-width="1" points="432,204 432,203 432,201 432,200 432,199 432,198 432,196 432,195 432,194 432,192 432,191 432,189 432,188 432,186 432,185 "/>
<polyline fill="none" stroke="#ff0000" stroke-width="1" points="432,185 432,183 432,181 432,179 432,177 432,175 432,173 432,173 432,173 432,173 432,172 432,172 432,172 432,172 432,172 432,172 432,171 432,171 432,171 432,171 432,171 "/>
<polyline fill="none" stroke="#ff0000" stroke-width="1" points="255,237 255,238 255,238 255,238 255,238 255,238 255,238 255,239 255,239 255,239 255,239 255,239 255,239 255,240 255,240 255,240 255,240 255,240 255,240 255,241 255,241 255,241 255,241 255,241 255,241 255,241 255,242 255,244 255,246 255,248 255,249 255,251 255,249 255,248 255,246 255,244 255,242 255,241 255,241 255,241 255,241 255,241 255,241 255,241 255,240 255,240 255,240 255,240 255,240 255,240 255,239 255,239 255,239 255,239 255,239 255,239 255,238 255,238 255,238 255,238 255,238 255,238 255,237 "/>
<polyline fill="none" stroke="#ff0000" stroke-width="1" points="255,251 255,253 255,254 255,256 255,257 255,259 255,260 255,261 255,263 255,264 255,265 255,266 255,268 255,269 255,270 "/>
<polyline fill="none" stroke="#ff0000" stroke-width="1" points="648,303 648,303 648,303 648,303 648,302 648,302 648,302 648,302 648,302 648,302 648,301 648,301 648,301 648,301 648,301 648,270 648,239 "/>
<polyline fill="none" stroke="#ff0000" stroke-width="1" points="387,369 388,370 389,370 391,370 392,370 393,370 394,370 396,370 397,370 398,370 400,370 401,370 402,370 403,370 405,370 406,370 407,370 408,370 410,370 411,370 412,370 414,370 415,370 416,370 417,370 419,370 420,370 421,370 422,370 424,370 425,370 426,370 428,370 429,370 430,370 431,370 433,370 434,370 435,370 436,370 438,370 439,370 440,370 442,370 443,370 444,370 445,370 447,370 448,370 449,370 450,370 452,370 453,370 454,370 456,370 457,370 458,370 459,370 461,370 462,370 463,370 464,370 466,370 467,370 468,370 470,370 471,370 472,370 473,370 475,370 476,370 477,369 477,368 477,367 477,367 477,366 477,365 477,364 477,363 477,362 477,361 477,360 477,359 477,358 477,357 477,356 477,355 477,354 477,353 477,352 477,351 477,350 477,349 477,348 477,347 477,346 477,346 477,345 477,344 477,343 477,342 477,341 477,340 477,339 477,338 477,337 477,336 477,335 477,334 477,333 477,332 477,331 477,330 477,329 477,328 477,327 477,326 477,325 477,324 477,324 477,323 477,322 477,321 477,320 477,319 477,318 477,317 477,316 477,315 477,314 477,313 477,312 477,311 477,310 477,309 477,308 477,307 477,306 477,305 477,304 477,303 477,303 479,303 480,303 481,303 482,303 484,303 485,303 486,303 487,303 489,303 490,303 491,303 493,303 494,303 495,303 496,303 498,303 499,303 500,303 501,303 503,303 504,303 505,303 507,303 508,303 509,303 510,303 512,303 513,303 514,303 515,303 517,303 518,303 519,303 521,303 522,303 523,303 524,303 526,303 527,303 528,303 529,303 531,303 532,303 533,303 535,303 536,303 537,303 538,303 540,303 541,303 542,303 544,303 545,303 546,303 547,303 549,303 550,303 551,303 552,303 554,303 555,303 556,303 558,303 559,303 560,303 561,303 563,303 564,303 565,303 566,303 568,303 569,303 570,303 572,303 573,303 574,303 575,303 577,303 578,303 579,303 580,303 582,303 583,303 584,303 586,303 587,303 588,303 589,303 591,303 592,303 593,303 594,303 596,303 597,303 598,303 600,303 601,303 602,303 603,303 605,303 606,303 607,303 608,303 610,303 611,303 612,303 614,303 615,303 616,303 617,303 619,303 620,303 621,303 623,303 624,303 625,303 626,303 628,303 629,303 630,303 631,303 633,303 634,303 635,303 637,303 638,303 639,303 640,303 642,303 643,303 644,303 645,303 647,303 648,303 "/>
<polyline fill="none" stroke="#ff0000" stroke-width="1" points="387,369 388,370 389,370 391,370 392,370 393,370 394,370 396,370 397,370 398,370 400,370 401,370 402,370 403,370 405,370 406,370 407,370 408,370 410,370 411,370 412,370 414,370 415,370 416,370 417,370 419,370 420,370 421,370 422,370 424,370 425,370 426,370 428,370 429,370 430,370 431,370 433,370 434,370 435,370 436,370 438,370 439,370 440,370 442,370 443,370 444,370 445,370 447,370 448,370 449,370 450,370 452,370 453,370 454,370 456,370 457,370 458,370 459,370 461,370 462,370 463,370 464,370 466,370 467,370 468,370 470,370 471,370 472,370 473,370 475,370 476,370 477,369 476,370 475,370 473,370 472,370 471,370 470,370 468,370 467,370 466,370 464,370 463,370 462,370 461,370 459,370 458,370 457,370 456,370 454,370 453,370 452,370 450,370 449,370 448,370 447,370 445,370 444,370 443,370 442,370 440,370 439,370 438,370 436,370 435,370 434,370 433,370 431,370 430,370 429,370 428,370 426,370 425,370 424,370 422,370 421,370 420,370 419,370 417,370 416,370 415,370 414,370 412,370 411,370 410,370 408,370 407,370 406,370 405,370 403,370 402,370 401,370 400,370 398,370 397,370 396,370 394,370 393,370 392,370 391,370 389,370 388,370 387,369 387,368 387,367 387,367 387,366 387,365 387,364 387,363 387,362 387,361 387,360 387,359 387,358 387,357 387,356 387,355 387,354 387,353 387,352 387,351 387,350 387,349 387,348 387,347 387,346 387,346 387,345 387,344 387,343 387,342 387,341 387,340 387,339 387,338 387,337 387,336 387,335 387,334 387,333 387,332 387,331 387,330 387,329 387,328 387,327 387,326 387,325 387,324 387,324 387,323 387,322 387,321 387,320 387,319 387,318 387,317 387,316 387,315 387,314 387,313 387,312 387,311 387,310 387,309 387,308 387,307 387,306 387,305 387,304 387,303 387,303 385,303 384,303 383,303 382,303 380,303 379,303 378,303 377,303 375,303 374,303 373,303 371,303 370,303 369,303 368,303 366,303 365,303 364,303 363,303 361,303 360,303 359,303 357,303 356,303 355,303 354,303 352,303 351,303 350,303 349,303 347,303 346,303 345,303 343,303 342,303 341,303 340,303 338,303 337,303 336,303 335,303 333,303 332,303 331,303 329,303 328,303 327,303 326,303 324,303 323,303 322,303 320,303 319,303 318,303 317,303 315,303 314,303 313,303 312,303 310,303 309,303 308,303 306,303 305,303 304,303 303,303 301,303 300,303 299,303 298,303 296,303 295,303 294,303 292,303 291,303 290,303 289,303 287,303 286,303 285,303 284,303 282,303 281,303 280,303 278,303 277,303 276,303 275,303 273,303 272,303 271,303 270,303 268,303 267,303 266,303 264,303 263,303 262,303 261,303 259,303 258,303 257,303 256,303 254,303 253,303 252,303 250,303 249,303 248,303 247,303 245,303 244,303 243,303 241,303 240,303 239,303 238,303 236,303 235,303 234,303 233,303 231,303 230,303 229,303 227,303 226,303 225,303 224,303 222,303 221,303 220,303 219,303 217,303 216,303 215,303 213,303 212,303 211,303 210,303 208,303 207,303 206,303 205,303 203,303 202,303 201,303 199,303 198,303 197,303 196,303 194,303 193,303 192,303 191,303 189,303 188,303 187,303 185,303 184,303 183,303 182,303 180,303 179,303 178,303 176,303 175,303 174,303 173,303 171,303 170,303 169,303 168,303 166,303 165,303 164,303 162,303 161,303 160,303 159,303 157,303 156,303 155,303 154,303 152,303 151,303 150,303 148,303 147,303 146,303 145,303 143,303 142,303 141,303 140,303 138,303 137,303 136,303 134,303 133,303 132,303 131,303 129,303 128,303 127,303 126,303 124,303 123,303 122,302 122,302 122,301 122,300 122,299 122,298 122,297 122,296 122,295 122,294 122,293 122,292 122,291 122,290 122,289 122,288 122,287 122,286 122,285 122,284 122,283 122,282 122,281 122,281 122,280 122,279 122,278 122,277 122,276 122,275 122,274 122,273 122,272 122,271 122,270 122,269 122,268 122,267 122,266 122,265 122,264 122,263 122,262 122,261 122,260 122,259 122,259 122,258 122,257 122,256 122,255 122,254 122,253 122,252 122,251 122,250 122,249 122,248 122,247 122,246 122,245 122,244 122,243 122,242 122,241 122,240 122,239 122,238 122,238 123,237 124,237 126,237 127,237 128,237 129,237 131,237 132,237 133,237 134,237 136,237 137,237 138,237 140,237 141,237 142,237 143,237 145,237 146,237 147,237 148,237 150,237 151,237 152,237 154,237 155,237 156,237 157,237 159,237 160,237 161,237 162,237 164,237 165,237 166,237 168,237 169,237 170,237 171,237 173,237 174,237 175,237 176,237 178,237 179,237 180,237 182,237 183,237 184,237 185,237 187,237 188,237 189,237 191,237 192,237 193,237 194,237 196,237 197,237 198,237 199,237 201,237 202,237 203,237 205,237 206,237 207,237 208,237 210,237 211,237 212,237 213,237 215,237 216,237 217,237 219,237 220,237 221,237 222,237 224,237 225,237 226,237 227,237 229,237 230,237 231,237 233,237 234,237 235,237 236,237 238,237 239,237 240,237 241,237 243,237 244,237 245,237 247,237 248,237 249,237 250,237 252,237 253,237 254,237 256,237 257,237 258,237 259,237 261,237 262,237 263,237 264,237 266,237 267,237 268,237 270,237 271,237 272,237 273,237 275,237 276,237 277,237 278,237 280,237 281,237 282,237 284,237 285,237 286,237 287,237 289,237 290,237 291,237 292,237 294,237 295,237 296,237 298,237 299,237 300,237 301,237 303,237 304,237 305,237 306,237 308,237 309,237 310,237 312,237 313,237 314,237 315,237 317,237 318,237 319,237 320,237 322,237 323,237 324,237 326,237 327,237 328,237 329,237 331,237 332,237 333,237 335,237 336,237 337,237 338,237 340,237 341,237 342,237 343,237 345,237 346,237 347,237 349,237 350,237 351,237 352,237 354,237 355,237 356,237 357,237 359,237 360,237 361,237 363,237 364,237 365,237 366,237 368,237 369,237 370,237 371,237 373,237 374,237 375,237 377,237 378,237 379,237 380,237 382,237 383,237 384,237 385,237 387,237 387,237 387,236 387,235 387,234 387,233 387,232 387,231 387,230 387,229 387,228 387,227 387,226 387,225 387,224 387,223 387,222 387,221 387,220 387,219 387,218 387,217 387,216 387,216 387,215 387,214 387,213 387,212 387,211 387,210 387,209 387,208 387,207 387,206 387,205 387,204 387,203 387,202 387,201 387,200 387,199 387,198 387,197 387,196 387,195 387,194 387,194 387,193 387,192 387,191 387,190 387,189 387,188 387,187 387,186 387,185 387,184 387,183 387,182 387,181 387,180 387,179 387,178 387,177 387,176 387,175 387,174 387,173 387,173 387,172 388,171 389,171 391,171 392,171 393,171 394,171 396,171 397,171 398,171 400,171 401,171 402,171 403,171 405,171 406,171 407,171 408,171 410,171 411,171 412,171 414,171 415,171 416,171 417,171 419,171 420,171 421,171 422,171 424,171 425,171 426,171 428,171 429,171 430,171 431,171 433,171 434,171 435,171 436,171 438,171 439,171 440,171 442,171 443,171 444,171 445,171 447,171 448,171 449,171 450,171 452,171 453,171 454,171 456,171 457,171 458,171 459,171 461,171 462,171 463,171 464,171 466,171 467,171 468,171 470,171 471,171 472,171 473,171 475,171 476,171 477,172 477,173 477,173 477,174 477,175 477,176 477,177 477,178 477,179 477,180 477,181 477,182 477,183 477,184 477,185 477,186 477,187 477,188 477,189 477,190 477,191 477,192 477,193 477,194 477,194 477,195 477,196 477,197 477,198 477,199 477,200 477,201 477,202 477,203 477,204 477,205 477,206 477,207 477,208 477,209 477,210 477,211 477,212 477,213 477,214 477,215 477,216 477,216 477,217 477,218 477,219 477,220 477,221 477,222 477,223 477,224 477,225 477,226 477,227 477,228 477,229 477,230 477,231 477,232 477,233 477,234 477,235 477,236 477,237 477,237 479,237 480,237 481,237 482,237 484,237 485,237 486,237 487,237 489,237 490,237 491,237 493,237 494,237 495,237 496,237 498,237 499,237 500,237 501,237 503,237 504,237 505,237 507,237 508,237 509,237 510,237 512,237 513,237 514,237 515,237 517,237 518,237 519,237 521,237 522,237 523,237 524,237 526,237 527,237 528,237 529,237 531,237 532,237 533,237 535,237 536,237 537,237 538,237 540,237 541,237 542,237 544,237 545,237 546,237 547,237 549,237 550,237 551,237 552,237 554,237 555,237 556,237 558,237 559,237 560,237 561,237 563,237 564,237 565,237 566,237 568,237 569,237 570,237 572,237 573,237 574,237 575,237 577,237 578,237 579,237 580,237 582,237 583,237 584,237 586,237 587,237 588,237 589,237 591,237 592,237 593,237 594,237 596,237 597,237 598,237 600,237 601,237 602,237 603,237 605,237 606,237 607,237 608,237 610,237 611,237 612,237 614,237 615,237 616,237 617,237 619,237 620,237 621,237 623,237 624,237 625,237 626,237 628,237 629,237 630,237 631,237 633,237 634,237 635,237 637,237 638,237 639,237 640,237 642,237 643,237 644,237 645,237 647,237 648,237 "/>
<text x="161" y="303" font-family="sans-serif" font-size="14" fill="#ff0000" text-anchor="middle" dominant-baseline="alphabetic" transform="rotate(90,161,303)">15</text>
<text x="161" y="270" font-family="sans-serif" font-size="14" fill="#ff0000" text-anchor="middle" dominant-baseline="alphabetic" transform="rotate(90,161,270)">18</text>
<text x="476" y="208" font-family="sans-serif" font-size="14" fill="#ff0000" text-anchor="middle" dominant-baseline="hanging">21</text>
<text x="432" y="208" font-family="sans-serif" font-size="14" fill="#ff0000" text-anchor="middle" dominant-baseline="hanging">0</text>
<text x="388" y="208" font-family="sans-serif" font-size="14" fill="#ff0000" text-anchor="middle" dominant-baseline="hanging">3</text>
<text x="349" y="270" font-family="sans-serif" font-size="14" fill="#ff0000" text-anchor="middle" dominant-baseline="alphabetic" transform="rotate(-90,349,270)">6</text>
<text x="349" y="303" font-family="sans-serif" font-size="14" fill="#ff0000" text-anchor="middle" dominant-baseline="alphabetic" transform="rotate(-90,349,303)">9</text>
<text x="432" y="332" font-family="sans-serif" font-size="14" fill="#ff0000" text-anchor="middle" dominant-baseline="alphabetic">12</text>
<text x="426" y="270" font-family="sans-serif" font-size="14" fill="#ff0000" text-anchor="middle" dominant-baseline="alphabetic" transform="rotate(90,426,270)">-90</text>
<text x="426" y="185" font-family="sans-serif" font-size="14" fill="#ff0000" text-anchor="middle" dominant-baseline="alphabetic" transform="rotate(90,426,185)">30</text>
<text x="261" y="270" font-family="sans-serif" font-size="14" fill="#ff0000" text-anchor="middle" dominant-baseline="alphabetic" transform="rotate(-90,261,270)">90</text>
<text x="385" y="146" font-family="sans-serif" font-size="14" fill="#ff0000" text-anchor="middle" dominant-baseline="alphabetic">A FITS test</text>
</svg>
