<?xml version="1.0" encoding="UTF-8"?>
<svg xmlns="http://www.w3.org/2000/svg" width="720" height="540" viewBox="0 0 720 540">
<rect width="100%" height="100%" fill="black"/>
<polyline fill="none" stroke="#ff0000" stroke-width="1" points="504,55 478,56 442,58 408,59 376,61 344,62 313,63 284,65 255,66 227,66 216,66 "/>
<polyline fill="none" stroke="#ff0000" stroke-width="1" points="504,117 471,117 436,118 402,118 369,119 337,120 307,120 278,121 250,121 223,122 216,122 "/>
<polyline fill="none" stroke="#ff0000" stroke-width="1" points="504,176 468,176 433,175 399,175 366,174 335,174 304,173 275,173 247,172 221,172 216,172 "/>
<polyline fill="none" stroke="#ff0000" stroke-width="1" points="504,237 469,235 434,233 400,232 367,230 336,228 305,227 276,225 248,224 221,223 216,222 "/>
<polyline fill="none" stroke="#ff0000" stroke-width="1" points="504,299 473,297 438,294 404,292 371,289 340,287 309,285 279,283 251,281 223,279 216,279 "/>
<polyline fill="none" stroke="#ff0000" stroke-width="1" points="504,364 481,362 445,359 411,356 378,353 345,350 314,348 283,346 254,344 224,342 216,342 "/>
<polyline fill="none" stroke="#ff0000" stroke-width="1" points="504,434 489,433 454,429 419,426 385,423 352,420 319,417 288,415 257,413 226,412 216,411 "/>
<polyline fill="none" stroke="#ff0000" stroke-width="1" points="504,67 499,112 496,159 496,206 498,254 502,303 504,324 "/>
<polyline fill="none" stroke="#ff0000" stroke-width="1" points="467,54 465,66 460,113 457,159 457,205 459,252 463,300 468,352 475,406 482,464 485,486 "/>
<polyline fill="none" stroke="#ff0000" stroke-width="1" points="430,54 428,67 423,114 420,159 420,204 422,250 426,298 431,348 437,402 444,460 447,486 "/>
<polyline fill="none" stroke="#ff0000" stroke-width="1" points="394,54 392,69 387,114 384,159 384,202 386,247 389,295 394,345 400,399 406,456 409,486 "/>
<polyline fill="none" stroke="#ff0000" stroke-width="1" points="359,54 357,70 352,115 349,158 349,201 351,245 355,292 359,342 364,396 370,453 373,486 "/>
<polyline fill="none" stroke="#ff0000" stroke-width="1" points="326,54 324,71 319,116 316,158 316,200 318,243 321,290 325,339 330,393 334,450 337,486 "/>
<polyline fill="none" stroke="#ff0000" stroke-width="1" points="294,54 292,73 287,117 284,158 284,199 286,242 289,287 292,337 296,390 299,447 301,486 "/>
<polyline fill="none" stroke="#ff0000" stroke-width="1" points="263,54 261,74 257,117 254,158 254,198 255,240 258,286 260,335 263,388 265,445 267,486 "/>
<polyline fill="none" stroke="#ff0000" stroke-width="1" points="232,54 231,75 228,118 225,158 225,197 226,238 227,284 229,333 230,386 231,443 232,486 "/>
<polyline fill="none" stroke="#ff0000" stroke-width="1" points="216,55 218,55 "/>
<polyline fill="none" stroke="#ff0000" stroke-width="1" points="216,78 218,78 216,78 "/>
<polyline fill="none" stroke="#ff0000" stroke-width="1" points="216,89 218,89 216,89 "/>
<polyline fill="none" stroke="#ff0000" stroke-width="1" points="216,100 218,100 216,100 "/>
<polyline fill="none" stroke="#ff0000" stroke-width="1" points="216,111 218,111 216,111 "/>
<polyline fill="none" stroke="#ff0000" stroke-width="1" points="216,132 218,132 216,132 "/>
<polyline fill="none" stroke="#ff0000" stroke-width="1" points="216,142 218,142 216,142 "/>
<polyline fill="none" stroke="#ff0000" stroke-width="1" points="216,152 218,152 216,152 "/>
<polyline fill="none" stroke="#ff0000" stroke-width="1" points="216,162 218,162 216,162 "/>
<polyline fill="none" stroke="#ff0000" stroke-width="1" points="216,181 218,182 216,181 "/>
<polyline fill="none" stroke="#ff0000" stroke-width="1" points="216,191 218,191 216,191 "/>
<polyline fill="none" stroke="#ff0000" stroke-width="1" points="216,202 218,202 216,202 "/>
<polyline fill="none" stroke="#ff0000" stroke-width="1" points="216,212 218,212 216,212 "/>
<polyline fill="none" stroke="#ff0000" stroke-width="1" points="216,233 218,233 216,233 "/>
<polyline fill="none" stroke="#ff0000" stroke-width="1" points="216,244 218,244 216,244 "/>
<polyline fill="none" stroke="#ff0000" stroke-width="1" points="216,256 218,256 216,256 "/>
<polyline fill="none" stroke="#ff0000" stroke-width="1" points="216,267 218,267 216,267 "/>
<polyline fill="none" stroke="#ff0000" stroke-width="1" points="216,291 218,291 216,291 "/>
<polyline fill="none" stroke="#ff0000" stroke-width="1" points="216,304 218,304 216,304 "/>
<polyline fill="none" stroke="#ff0000" stroke-width="1" points="216,316 218,316 216,316 "/>
<polyline fill="none" stroke="#ff0000" stroke-width="1" points="216,329 218,329 216,329 "/>
<polyline fill="none" stroke="#ff0000" stroke-width="1" points="216,355 218,356 216,355 "/>
<polyline fill="none" stroke="#ff0000" stroke-width="1" points="216,369 218,369 216,369 "/>
<polyline fill="none" stroke="#ff0000" stroke-width="1" points="216,383 218,383 216,383 "/>
<polyline fill="none" stroke="#ff0000" stroke-width="1" points="216,397 218,397 216,397 "/>
<polyline fill="none" stroke="#ff0000" stroke-width="1" points="216,426 218,426 216,426 "/>
<polyline fill="none" stroke="#ff0000" stroke-width="1" points="216,441 218,441 216,441 "/>
<polyline fill="none" stroke="#ff0000" stroke-width="1" points="216,456 218,456 216,456 "/>
<polyline fill="none" stroke="#ff0000" stroke-width="1" points="216,471 218,471 216,471 "/>
<polyline fill="none" stroke="#ff0000" stroke-width="1" points="495,486 495,484 "/>
<polyline fill="none" stroke="#ff0000" stroke-width="1" points="476,486 475,484 476,486 "/>
<polyline fill="none" stroke="#ff0000" stroke-width="1" points="466,486 466,484 466,486 "/>
<polyline fill="none" stroke="#ff0000" stroke-width="1" points="456,486 456,484 456,486 "/>
<polyline fill="none" stroke="#ff0000" stroke-width="1" points="437,486 437,484 437,486 "/>
<polyline fill="none" stroke="#ff0000" stroke-width="1" points="428,486 428,484 428,486 "/>
<polyline fill="none" stroke="#ff0000" stroke-width="1" points="419,486 419,484 419,486 "/>
<polyline fill="none" stroke="#ff0000" stroke-width="1" points="400,486 400,484 400,486 "/>
<polyline fill="none" stroke="#ff0000" stroke-width="1" points="391,486 391,484 391,486 "/>
<polyline fill="none" stroke="#ff0000" stroke-width="1" points="382,486 382,484 382,486 "/>
<polyline fill="none" stroke="#ff0000" stroke-width="1" points="364,486 364,484 364,486 "/>
<polyline fill="none" stroke="#ff0000" stroke-width="1" points="355,486 355,484 355,486 "/>
<polyline fill="none" stroke="#ff0000" stroke-width="1" points="346,486 346,484 346,486 "/>
<polyline fill="none" stroke="#ff0000" stroke-width="1" points="328,486 328,484 328,486 "/>
<polyline fill="none" stroke="#ff0000" stroke-width="1" points="319,486 319,484 319,486 "/>
<polyline fill="none" stroke="#ff0000" stroke-width="1" points="310,486 310,484 310,486 "/>
<polyline fill="none" stroke="#ff0000" stroke-width="1" points="293,486 293,484 293,486 "/>
<polyline fill="none" stroke="#ff0000" stroke-width="1" points="284,486 284,484 284,486 "/>
<polyline fill="none" stroke="#ff0000" stroke-width="1" points="275,486 275,484 275,486 "/>
<polyline fill="none" stroke="#ff0000" stroke-width="1" points="258,486 258,484 258,486 "/>
<polyline fill="none" stroke="#ff0000" stroke-width="1" points="249,486 249,484 249,486 "/>
<polyline fill="none" stroke="#ff0000" stroke-width="1" points="241,486 241,484 241,486 "/>
<polyline fill="none" stroke="#ff0000" stroke-width="1" points="223,486 223,484 223,486 "/>
<polyline fill="none" stroke="#ff0000" stroke-width="1" points="504,68 502,68 "/>
<polyline fill="none" stroke="#ff0000" stroke-width="1" points="504,80 502,80 504,80 "/>
<polyline fill="none" stroke="#ff0000" stroke-width="1" points="504,92 502,92 504,92 "/>
<polyline fill="none" stroke="#ff0000" stroke-width="1" points="504,104 502,105 504,104 "/>
<polyline fill="none" stroke="#ff0000" stroke-width="1" points="504,129 502,129 504,129 "/>
<polyline fill="none" stroke="#ff0000" stroke-width="1" points="504,141 502,141 504,141 "/>
<polyline fill="none" stroke="#ff0000" stroke-width="1" points="504,153 502,153 504,153 "/>
<polyline fill="none" stroke="#ff0000" stroke-width="1" points="504,165 502,165 504,165 "/>
<polyline fill="none" stroke="#ff0000" stroke-width="1" points="504,188 502,188 504,188 "/>
<polyline fill="none" stroke="#ff0000" stroke-width="1" points="504,200 502,200 504,200 "/>
<polyline fill="none" stroke="#ff0000" stroke-width="1" points="504,212 502,212 504,212 "/>
<polyline fill="none" stroke="#ff0000" stroke-width="1" points="504,225 502,224 504,225 "/>
<polyline fill="none" stroke="#ff0000" stroke-width="1" points="504,249 502,249 504,249 "/>
<polyline fill="none" stroke="#ff0000" stroke-width="1" points="504,261 502,261 504,261 "/>
<polyline fill="none" stroke="#ff0000" stroke-width="1" points="504,274 502,274 504,274 "/>
<polyline fill="none" stroke="#ff0000" stroke-width="1" points="504,286 502,286 504,286 "/>
<polyline fill="none" stroke="#ff0000" stroke-width="1" points="504,312 502,312 504,312 "/>
<polyline fill="none" stroke="#ff0000" stroke-width="1" points="504,325 502,324 504,325 "/>
<polyline fill="none" stroke="#ff0000" stroke-width="1" points="504,338 502,338 504,338 "/>
<polyline fill="none" stroke="#ff0000" stroke-width="1" points="504,351 502,351 504,351 "/>
<polyline fill="none" stroke="#ff0000" stroke-width="1" points="504,378 502,378 504,378 "/>
<polyline fill="none" stroke="#ff0000" stroke-width="1" points="504,392 502,392 504,392 "/>
<polyline fill="none" stroke="#ff0000" stroke-width="1" points="504,406 502,406 504,406 "/>
<polyline fill="none" stroke="#ff0000" stroke-width="1" points="504,420 502,420 504,420 "/>
<polyline fill="none" stroke="#ff0000" stroke-width="1" points="504,449 502,449 504,449 "/>
<polyline fill="none" stroke="#ff0000" stroke-width="1" points="504,464 502,464 504,464 "/>
<polyline fill="none" stroke="#ff0000" stroke-width="1" points="504,479 502,479 504,479 "/>
<polyline fill="none" stroke="#ff0000" stroke-width="1" points="496,54 496,56 "/>
<polyline fill="none" stroke="#ff0000" stroke-width="1" points="486,54 486,56 486,54 "/>
<polyline fill="none" stroke="#ff0000" stroke-width="1" points="477,54 476,56 477,54 "/>
<polyline fill="none" stroke="#ff0000" stroke-width="1" points="458,54 457,56 458,54 "/>
<polyline fill="none" stroke="#ff0000" stroke-width="1" points="448,54 448,56 448,54 "/>
<polyline fill="none" stroke="#ff0000" stroke-width="1" points="439,54 439,56 439,54 "/>
<polyline fill="none" stroke="#ff0000" stroke-width="1" points="421,54 420,56 421,54 "/>
<polyline fill="none" stroke="#ff0000" stroke-width="1" points="412,54 411,56 412,54 "/>
<polyline fill="none" stroke="#ff0000" stroke-width="1" points="403,54 403,56 403,54 "/>
<polyline fill="none" stroke="#ff0000" stroke-width="1" points="385,54 385,56 385,54 "/>
<polyline fill="none" stroke="#ff0000" stroke-width="1" points="376,54 376,56 376,54 "/>
<polyline fill="none" stroke="#ff0000" stroke-width="1" points="368,54 368,56 368,54 "/>
<polyline fill="none" stroke="#ff0000" stroke-width="1" points="351,54 351,56 351,54 "/>
<polyline fill="none" stroke="#ff0000" stroke-width="1" points="342,54 342,56 342,54 "/>
<polyline fill="none" stroke="#ff0000" stroke-width="1" points="334,54 334,56 334,54 "/>
<polyline fill="none" stroke="#ff0000" stroke-width="1" points="318,54 318,56 318,54 "/>
<polyline fill="none" stroke="#ff0000" stroke-width="1" points="310,54 309,56 310,54 "/>
<polyline fill="none" stroke="#ff0000" stroke-width="1" points="302,54 301,56 302,54 "/>
<polyline fill="none" stroke="#ff0000" stroke-width="1" points="286,54 286,56 286,54 "/>
<polyline fill="none" stroke="#ff0000" stroke-width="1" points="278,54 278,56 278,54 "/>
<polyline fill="none" stroke="#ff0000" stroke-width="1" points="270,54 270,56 270,54 "/>
<polyline fill="none" stroke="#ff0000" stroke-width="1" points="255,54 255,56 255,54 "/>
<polyline fill="none" stroke="#ff0000" stroke-width="1" points="247,54 247,56 247,54 "/>
<polyline fill="none" stroke="#ff0000" stroke-width="1" points="240,54 240,56 240,54 "/>
<polyline fill="none" stroke="#ff0000" stroke-width="1" points="225,54 225,56 225,54 "/>
<polyline fill="none" stroke="#ff0000" stroke-width="1" points="218,54 218,56 218,54 "/>
<polyline fill="none" stroke="#ff0000" stroke-width="1" points="216,486 237,486 257,486 278,486 298,486 319,486 339,486 360,486 381,486 401,486 422,486 442,486 463,486 483,486 504,486 504,455 504,424 504,393 504,363 504,332 504,301 504,270 504,239 504,208 504,177 504,147 504,116 504,85 504,54 483,54 463,54 442,54 422,54 401,54 381,54 360,54 339,54 319,54 298,54 278,54 257,54 237,54 216,54 216,85 216,116 216,147 216,177 216,208 216,239 216,270 216,301 216,332 216,363 216,393 216,424 216,455 216,486 "/>
<text x="213" y="411" font-family="sans-serif" font-size="14" fill="#ff0000" text-anchor="end" dominant-baseline="central">10</text>
<text x="213" y="342" font-family="sans-serif" font-size="14" fill="#ff0000" text-anchor="end" dominant-baseline="central">12:32:00</text>
<text x="213" y="279" font-family="sans-serif" font-size="14" fill="#ff0000" text-anchor="end" dominant-baseline="central">50</text>
<text x="213" y="222" font-family="sans-serif" font-size="14" fill="#ff0000" text-anchor="end" dominant-baseline="central">40</text>
<text x="213" y="172" font-family="sans-serif" font-size="14" fill="#ff0000" text-anchor="end" dominant-baseline="central">30</text>
<text x="213" y="122" font-family="sans-serif" font-size="14" fill="#ff0000" text-anchor="end" dominant-baseline="central">20</text>
<text x="213" y="66" font-family="sans-serif" font-size="14" fill="#ff0000" text-anchor="end" dominant-baseline="central">31:10</text>
<text x="232" y="488" font-family="sans-serif" font-size="14" fill="#ff0000" text-anchor="middle" dominant-baseline="hanging">22</text>
<text x="267" y="488" font-family="sans-serif" font-size="14" fill="#ff0000" text-anchor="middle" dominant-baseline="hanging">21</text>
<text x="301" y="488" font-family="sans-serif" font-size="14" fill="#ff0000" text-anchor="middle" dominant-baseline="hanging">12:20</text>
<text x="337" y="488" font-family="sans-serif" font-size="14" fill="#ff0000" text-anchor="middle" dominant-baseline="hanging">19</text>
<text x="373" y="488" font-family="sans-serif" font-size="14" fill="#ff0000" text-anchor="middle" dominant-baseline="hanging">18</text>
<text x="409" y="488" font-family="sans-serif" font-size="14" fill="#ff0000" text-anchor="middle" dominant-baseline="hanging">17</text>
<text x="447" y="488" font-family="sans-serif" font-size="14" fill="#ff0000" text-anchor="middle" dominant-baseline="hanging">16</text>
<text x="485" y="488" font-family="sans-serif" font-size="14" fill="#ff0000" text-anchor="middle" dominant-baseline="hanging">15</text>
<text x="136" y="270" font-family="sans-serif" font-size="14" fill="#ff0000" text-anchor="middle" dominant-baseline="alphabetic" transform="rotate(90,136,270)">Right ascension</text>
<text x="360" y="503" font-family="sans-serif" font-size="28" fill="#ff0000" text-anchor="middle" dominant-baseline="hanging">Declination</text>
<text x="360" y="41" font-family="sans-serif" font-size="14" fill="#ff0000" text-anchor="middle" dominant-baseline="alphabetic">A FITS test</text>
</svg>
